<svg width="30" height="29" viewBox="0 0 30 29" fill="none" xmlns="http://www.w3.org/2000/svg">
<path d="M29.9769 11.4526C30.1268 10.7032 29.5272 9.80387 28.7778 9.80387L20.2344 8.60479L16.3374 0.810806C16.1875 0.511037 16.0376 0.361152 15.7379 0.211268C14.9884 -0.238385 14.0891 0.0613837 13.6395 0.810806L9.89237 8.60479L1.34896 9.80387C0.899307 9.80387 0.599538 9.95375 0.449653 10.2535C-0.149884 10.8531 -0.149884 11.7524 0.449653 12.3519L6.59491 18.3473L5.09607 26.8907C5.09607 27.1905 5.09607 27.4902 5.24595 27.79C5.69561 28.5394 6.59491 28.8392 7.34434 28.3895L14.9884 24.3427L22.6325 28.3895C22.7824 28.5394 23.0822 28.5394 23.382 28.5394C23.5319 28.5394 23.5318 28.5394 23.6817 28.5394C24.4312 28.3895 25.0307 27.6401 24.8808 26.7408L23.382 18.1974L29.5272 12.202C29.827 12.0521 29.9769 11.7524 29.9769 11.4526Z" fill="#FFD700"/>
<path d="M14.304 21V12.136L12.464 12.568V11L15.168 9.8H16.432V21H14.304Z" fill="white"/>
</svg>
