<svg width="17" height="17" viewBox="0 0 17 17" fill="none" xmlns="http://www.w3.org/2000/svg">
<g clip-path="url(#clip0_836_558)">
<path d="M8.01293 10.2088C8.64109 9.68079 9.09167 8.97237 9.30355 8.17961C9.51543 7.38684 9.47836 6.5481 9.19737 5.77711C8.91639 5.00613 8.40508 4.34022 7.7328 3.86969C7.06051 3.39917 6.25977 3.14679 5.43918 3.14679C4.6186 3.14679 3.81786 3.39917 3.14557 3.86969C2.47329 4.34022 1.96198 5.00613 1.68099 5.77711C1.40001 6.5481 1.36294 7.38684 1.57482 8.17961C1.7867 8.97237 2.23727 9.68079 2.86543 10.2088C1.88455 10.6523 1.03451 11.3411 0.397309 12.2088C0.27962 12.3692 0.230458 12.5697 0.26064 12.7663C0.290821 12.963 0.397874 13.1395 0.558247 13.2572C0.71862 13.3749 0.919177 13.4241 1.1158 13.3939C1.31242 13.3637 1.48899 13.2567 1.60668 13.0963C2.04777 12.4939 2.62466 12.0039 3.29054 11.6662C3.95643 11.3284 4.69255 11.1524 5.43918 11.1524C6.18582 11.1524 6.92194 11.3284 7.58783 11.6662C8.25371 12.0039 8.8306 12.4939 9.27168 13.0963C9.38937 13.2567 9.56598 13.3639 9.76266 13.3941C9.95934 13.4244 10.16 13.3752 10.3204 13.2575C10.4809 13.1398 10.588 12.9632 10.6183 12.7666C10.6485 12.5699 10.5994 12.3692 10.4817 12.2088C9.84411 11.3412 8.9939 10.6525 8.01293 10.2088ZM2.93918 7.15003C2.93918 6.65558 3.08581 6.17223 3.36051 5.76111C3.63521 5.34999 4.02566 5.02955 4.48248 4.84034C4.93929 4.65112 5.44196 4.60161 5.92691 4.69807C6.41186 4.79453 6.85732 5.03264 7.20695 5.38227C7.55658 5.7319 7.79468 6.17736 7.89115 6.66231C7.98761 7.14726 7.9381 7.64993 7.74888 8.10674C7.55966 8.56356 7.23923 8.954 6.82811 9.22871C6.41699 9.50341 5.93364 9.65003 5.43918 9.65003C4.77614 9.65003 4.14026 9.38664 3.67142 8.9178C3.20258 8.44896 2.93918 7.81308 2.93918 7.15003ZM15.8204 13.2544C15.741 13.3128 15.6509 13.3549 15.5552 13.3784C15.4596 13.4019 15.3602 13.4063 15.2628 13.3914C15.1654 13.3765 15.0719 13.3425 14.9876 13.2914C14.9034 13.2404 14.83 13.1732 14.7717 13.0938C14.3295 12.4925 13.7524 12.0034 13.0868 11.6658C12.4211 11.3282 11.6855 11.1516 10.9392 11.15C10.7403 11.15 10.5495 11.071 10.4089 10.9304C10.2682 10.7897 10.1892 10.5989 10.1892 10.4C10.1892 10.2011 10.2682 10.0104 10.4089 9.8697C10.5495 9.72905 10.7403 9.65003 10.9392 9.65003C11.3073 9.6496 11.6707 9.56789 12.0036 9.41073C12.3365 9.25357 12.6305 9.02485 12.8648 8.74089C13.099 8.45693 13.2677 8.12475 13.3587 7.76808C13.4497 7.4114 13.4608 7.03903 13.3912 6.67756C13.3216 6.3161 13.1731 5.97445 12.9562 5.67703C12.7393 5.37961 12.4594 5.13375 12.1365 4.95702C11.8136 4.78029 11.4557 4.67705 11.0883 4.65466C10.7209 4.63228 10.353 4.69131 10.0111 4.82753C9.91946 4.86504 9.82133 4.88405 9.72235 4.88345C9.62337 4.88285 9.52548 4.86267 9.43434 4.82406C9.34319 4.78545 9.26059 4.72919 9.1913 4.6585C9.122 4.58782 9.06739 4.50412 9.03059 4.41222C8.9938 4.32033 8.97557 4.22206 8.97694 4.12309C8.97831 4.02411 8.99926 3.92638 9.03858 3.83554C9.07789 3.7447 9.13481 3.66255 9.20603 3.59381C9.27726 3.52507 9.36138 3.47111 9.45356 3.43503C10.3363 3.08162 11.316 3.0542 12.2171 3.35769C13.1181 3.66118 13.8816 4.27572 14.3707 5.09113C14.8597 5.90654 15.0423 6.86949 14.8857 7.80732C14.7291 8.74515 14.2435 9.59652 13.5161 10.2088C14.4969 10.6523 15.347 11.3411 15.9842 12.2088C16.1007 12.3693 16.1489 12.5694 16.1182 12.7654C16.0875 12.9614 15.9804 13.1372 15.8204 13.2544Z" fill="#33C6AB"/>
</g>
<defs>
<clipPath id="clip0_836_558">
<rect width="16" height="16" fill="white" transform="translate(0.189453 0.400024)"/>
</clipPath>
</defs>
</svg>
