<svg width="164" height="49" viewBox="0 0 164 49" fill="none" xmlns="http://www.w3.org/2000/svg">
<rect y="0.969727" width="164" height="48" rx="24" fill="#FBFBFB"/>
<g clip-path="url(#clip0_836_2422)">
<g clip-path="url(#clip1_836_2422)">
<path d="M41.4835 25.6697C41.4945 24.8257 41.7195 23.9997 42.1385 23.2657C42.5585 22.5317 43.1565 21.9157 43.8785 21.4747C43.4185 20.8217 42.8125 20.2857 42.1095 19.9077C41.4045 19.5297 40.6215 19.3197 39.8225 19.2947C38.1165 19.1167 36.4625 20.3097 35.5925 20.3097C34.7075 20.3097 33.3685 19.3127 31.9275 19.3417C30.9945 19.3717 30.0865 19.6417 29.2895 20.1247C28.4945 20.6067 27.8375 21.2867 27.3825 22.0977C25.4175 25.4807 26.8825 30.4527 28.7655 33.1867C29.7075 34.5257 30.8075 36.0217 32.2485 35.9687C33.6575 35.9107 34.1835 35.0747 35.8845 35.0747C37.5695 35.0747 38.0645 35.9687 39.5335 35.9347C41.0455 35.9107 41.9985 34.5897 42.9065 33.2377C43.5825 32.2847 44.1035 31.2297 44.4495 30.1137C43.5725 29.7457 42.8225 29.1267 42.2935 28.3357C41.7665 27.5467 41.4845 26.6187 41.4835 25.6697ZM38.7085 17.4967C39.5325 16.5137 39.9385 15.2477 39.8395 13.9697C38.5815 14.1007 37.4185 14.6987 36.5805 15.6467C35.7575 16.5797 35.3395 17.8017 35.4195 19.0427C36.6945 19.0557 37.9045 18.4857 38.7085 17.4967Z" fill="#0F0F0F"/>
</g>
</g>
<path d="M52.9172 36.9697L57.5612 24.3697H59.6492L64.2572 36.9697H62.2412L61.1612 33.8917H56.0132L54.9332 36.9697H52.9172ZM56.5532 32.3797H60.6212L58.5872 26.6377L56.5532 32.3797ZM65.9423 40.9297V28.0417H67.6523L67.8503 29.4277C68.1383 29.0077 68.5343 28.6357 69.0383 28.3117C69.5423 27.9877 70.1903 27.8257 70.9823 27.8257C71.8463 27.8257 72.6083 28.0297 73.2683 28.4377C73.9283 28.8457 74.4443 29.4037 74.8163 30.1117C75.2003 30.8197 75.3923 31.6237 75.3923 32.5237C75.3923 33.4237 75.2003 34.2277 74.8163 34.9357C74.4443 35.6317 73.9283 36.1837 73.2683 36.5917C72.6083 36.9877 71.8403 37.1857 70.9643 37.1857C70.2683 37.1857 69.6503 37.0477 69.1103 36.7717C68.5823 36.4957 68.1623 36.1057 67.8503 35.6017V40.9297H65.9423ZM70.6403 35.5297C71.4563 35.5297 72.1283 35.2537 72.6563 34.7017C73.1843 34.1377 73.4483 33.4057 73.4483 32.5057C73.4483 31.9177 73.3283 31.3957 73.0883 30.9397C72.8483 30.4837 72.5183 30.1297 72.0983 29.8777C71.6783 29.6137 71.1923 29.4817 70.6403 29.4817C69.8243 29.4817 69.1523 29.7637 68.6243 30.3277C68.1083 30.8917 67.8503 31.6177 67.8503 32.5057C67.8503 33.4057 68.1083 34.1377 68.6243 34.7017C69.1523 35.2537 69.8243 35.5297 70.6403 35.5297ZM77.456 40.9297V28.0417H79.166L79.364 29.4277C79.652 29.0077 80.048 28.6357 80.552 28.3117C81.056 27.9877 81.704 27.8257 82.496 27.8257C83.36 27.8257 84.122 28.0297 84.782 28.4377C85.442 28.8457 85.958 29.4037 86.33 30.1117C86.714 30.8197 86.906 31.6237 86.906 32.5237C86.906 33.4237 86.714 34.2277 86.33 34.9357C85.958 35.6317 85.442 36.1837 84.782 36.5917C84.122 36.9877 83.354 37.1857 82.478 37.1857C81.782 37.1857 81.164 37.0477 80.624 36.7717C80.096 36.4957 79.676 36.1057 79.364 35.6017V40.9297H77.456ZM82.154 35.5297C82.97 35.5297 83.642 35.2537 84.17 34.7017C84.698 34.1377 84.962 33.4057 84.962 32.5057C84.962 31.9177 84.842 31.3957 84.602 30.9397C84.362 30.4837 84.032 30.1297 83.612 29.8777C83.192 29.6137 82.706 29.4817 82.154 29.4817C81.338 29.4817 80.666 29.7637 80.138 30.3277C79.622 30.8917 79.364 31.6177 79.364 32.5057C79.364 33.4057 79.622 34.1377 80.138 34.7017C80.666 35.2537 81.338 35.5297 82.154 35.5297ZM97.7348 37.1857C96.8108 37.1857 96.0008 37.0237 95.3048 36.6997C94.6088 36.3757 94.0628 35.9137 93.6668 35.3137C93.2828 34.7137 93.0848 33.9997 93.0728 33.1717H95.0888C95.1008 33.8437 95.3348 34.4137 95.7908 34.8817C96.2468 35.3497 96.8888 35.5837 97.7168 35.5837C98.4488 35.5837 99.0188 35.4097 99.4268 35.0617C99.8468 34.7017 100.057 34.2457 100.057 33.6937C100.057 33.2497 99.9548 32.8897 99.7508 32.6137C99.5588 32.3377 99.2888 32.1097 98.9408 31.9297C98.6048 31.7497 98.2148 31.5877 97.7708 31.4437C97.3268 31.2997 96.8588 31.1437 96.3668 30.9757C95.3948 30.6517 94.6628 30.2317 94.1708 29.7157C93.6908 29.1997 93.4508 28.5217 93.4508 27.6817C93.4388 26.9737 93.6008 26.3557 93.9368 25.8277C94.2848 25.2997 94.7648 24.8917 95.3768 24.6037C96.0008 24.3037 96.7268 24.1537 97.5548 24.1537C98.3708 24.1537 99.0848 24.3037 99.6968 24.6037C100.321 24.9037 100.807 25.3237 101.155 25.8637C101.503 26.3917 101.683 27.0097 101.695 27.7177H99.6788C99.6788 27.3937 99.5948 27.0877 99.4268 26.7997C99.2588 26.4997 99.0128 26.2537 98.6888 26.0617C98.3648 25.8697 97.9688 25.7737 97.5008 25.7737C96.9008 25.7617 96.4028 25.9117 96.0068 26.2237C95.6228 26.5357 95.4308 26.9677 95.4308 27.5197C95.4308 28.0117 95.5748 28.3897 95.8628 28.6537C96.1508 28.9177 96.5468 29.1397 97.0508 29.3197C97.5548 29.4877 98.1308 29.6857 98.7788 29.9137C99.4028 30.1177 99.9608 30.3637 100.453 30.6517C100.945 30.9397 101.335 31.3177 101.623 31.7857C101.923 32.2537 102.073 32.8477 102.073 33.5677C102.073 34.2037 101.911 34.7977 101.587 35.3497C101.263 35.8897 100.777 36.3337 100.129 36.6817C99.4808 37.0177 98.6828 37.1857 97.7348 37.1857ZM107.831 36.9697C106.955 36.9697 106.259 36.7597 105.743 36.3397C105.227 35.9077 104.969 35.1457 104.969 34.0537V29.6437H103.439V28.0417H104.969L105.203 25.7737H106.877V28.0417H109.397V29.6437H106.877V34.0537C106.877 34.5457 106.979 34.8877 107.183 35.0797C107.399 35.2597 107.765 35.3497 108.281 35.3497H109.307V36.9697H107.831ZM115.312 37.1857C114.46 37.1857 113.692 36.9937 113.008 36.6097C112.336 36.2137 111.802 35.6677 111.406 34.9717C111.01 34.2637 110.812 33.4417 110.812 32.5057C110.812 31.5697 111.01 30.7537 111.406 30.0577C111.814 29.3497 112.36 28.8037 113.044 28.4197C113.728 28.0237 114.49 27.8257 115.33 27.8257C116.182 27.8257 116.944 28.0237 117.616 28.4197C118.3 28.8037 118.84 29.3497 119.236 30.0577C119.644 30.7537 119.848 31.5697 119.848 32.5057C119.848 33.4417 119.644 34.2637 119.236 34.9717C118.84 35.6677 118.3 36.2137 117.616 36.6097C116.932 36.9937 116.164 37.1857 115.312 37.1857ZM115.312 35.5477C115.768 35.5477 116.188 35.4337 116.572 35.2057C116.968 34.9777 117.286 34.6417 117.526 34.1977C117.766 33.7417 117.886 33.1777 117.886 32.5057C117.886 31.8337 117.766 31.2757 117.526 30.8317C117.298 30.3757 116.986 30.0337 116.59 29.8057C116.206 29.5777 115.786 29.4637 115.33 29.4637C114.874 29.4637 114.448 29.5777 114.052 29.8057C113.668 30.0337 113.356 30.3757 113.116 30.8317C112.876 31.2757 112.756 31.8337 112.756 32.5057C112.756 33.1777 112.876 33.7417 113.116 34.1977C113.356 34.6417 113.668 34.9777 114.052 35.2057C114.436 35.4337 114.856 35.5477 115.312 35.5477ZM121.911 36.9697V28.0417H123.621L123.783 29.7337C124.095 29.1457 124.527 28.6837 125.079 28.3477C125.643 27.9997 126.321 27.8257 127.113 27.8257V29.8237H126.591C126.063 29.8237 125.589 29.9137 125.169 30.0937C124.761 30.2617 124.431 30.5557 124.179 30.9757C123.939 31.3837 123.819 31.9537 123.819 32.6857V36.9697H121.911ZM132.679 37.1857C131.803 37.1857 131.023 36.9937 130.339 36.6097C129.667 36.2137 129.139 35.6677 128.755 34.9717C128.371 34.2757 128.179 33.4657 128.179 32.5417C128.179 31.6057 128.365 30.7837 128.737 30.0757C129.121 29.3677 129.649 28.8157 130.321 28.4197C131.005 28.0237 131.797 27.8257 132.697 27.8257C133.573 27.8257 134.335 28.0237 134.983 28.4197C135.631 28.8037 136.135 29.3197 136.495 29.9677C136.855 30.6157 137.035 31.3297 137.035 32.1097C137.035 32.2297 137.029 32.3617 137.017 32.5057C137.017 32.6377 137.011 32.7877 136.999 32.9557H130.051C130.111 33.8197 130.393 34.4797 130.897 34.9357C131.413 35.3797 132.007 35.6017 132.679 35.6017C133.219 35.6017 133.669 35.4817 134.029 35.2417C134.401 34.9897 134.677 34.6537 134.857 34.2337H136.765C136.525 35.0737 136.045 35.7757 135.325 36.3397C134.617 36.9037 133.735 37.1857 132.679 37.1857ZM132.679 29.3917C132.043 29.3917 131.479 29.5837 130.987 29.9677C130.495 30.3397 130.195 30.9037 130.087 31.6597H135.127C135.091 30.9637 134.845 30.4117 134.389 30.0037C133.933 29.5957 133.363 29.3917 132.679 29.3917Z" fill="#0F0F0F"/>
<path d="M56.1592 18.9697V11.9697H58.4292C59.2492 11.9697 59.9226 12.1131 60.4492 12.3997C60.9826 12.6864 61.3759 13.0931 61.6292 13.6197C61.8892 14.1397 62.0192 14.7597 62.0192 15.4797C62.0192 16.1931 61.8892 16.8131 61.6292 17.3397C61.3759 17.8597 60.9826 18.2631 60.4492 18.5497C59.9226 18.8297 59.2492 18.9697 58.4292 18.9697H56.1592ZM57.2192 18.0697H58.3892C59.0226 18.0697 59.5226 17.9664 59.8892 17.7597C60.2626 17.5531 60.5292 17.2564 60.6892 16.8697C60.8559 16.4831 60.9392 16.0197 60.9392 15.4797C60.9392 14.9397 60.8559 14.4731 60.6892 14.0797C60.5292 13.6864 60.2626 13.3864 59.8892 13.1797C59.5226 12.9664 59.0226 12.8597 58.3892 12.8597H57.2192V18.0697ZM65.4705 19.0897C64.9971 19.0897 64.5705 18.9831 64.1905 18.7697C63.8171 18.5497 63.5205 18.2464 63.3005 17.8597C63.0805 17.4664 62.9705 17.0097 62.9705 16.4897C62.9705 15.9697 63.0805 15.5164 63.3005 15.1297C63.5271 14.7364 63.8305 14.4331 64.2105 14.2197C64.5905 13.9997 65.0138 13.8897 65.4805 13.8897C65.9538 13.8897 66.3771 13.9997 66.7505 14.2197C67.1305 14.4331 67.4305 14.7364 67.6505 15.1297C67.8771 15.5164 67.9905 15.9697 67.9905 16.4897C67.9905 17.0097 67.8771 17.4664 67.6505 17.8597C67.4305 18.2464 67.1305 18.5497 66.7505 18.7697C66.3705 18.9831 65.9438 19.0897 65.4705 19.0897ZM65.4705 18.1797C65.7238 18.1797 65.9571 18.1164 66.1705 17.9897C66.3905 17.8631 66.5671 17.6764 66.7005 17.4297C66.8338 17.1764 66.9005 16.8631 66.9005 16.4897C66.9005 16.1164 66.8338 15.8064 66.7005 15.5597C66.5738 15.3064 66.4005 15.1164 66.1805 14.9897C65.9671 14.8631 65.7338 14.7997 65.4805 14.7997C65.2271 14.7997 64.9905 14.8631 64.7705 14.9897C64.5571 15.1164 64.3838 15.3064 64.2505 15.5597C64.1171 15.8064 64.0505 16.1164 64.0505 16.4897C64.0505 16.8631 64.1171 17.1764 64.2505 17.4297C64.3838 17.6764 64.5571 17.8631 64.7705 17.9897C64.9838 18.1164 65.2171 18.1797 65.4705 18.1797ZM69.9413 18.9697L68.4813 14.0097H69.5413L70.5013 17.7497L71.5813 14.0097H72.7613L73.8413 17.7497L74.8013 14.0097H75.8613L74.4013 18.9697H73.3113L72.1713 15.0697L71.0313 18.9697H69.9413ZM76.7345 18.9697V14.0097H77.6745L77.7545 14.8797C77.9078 14.5731 78.1311 14.3331 78.4245 14.1597C78.7245 13.9797 79.0678 13.8897 79.4545 13.8897C80.0545 13.8897 80.5245 14.0764 80.8645 14.4497C81.2111 14.8231 81.3845 15.3797 81.3845 16.1197V18.9697H80.3345V16.2297C80.3345 15.2697 79.9411 14.7897 79.1545 14.7897C78.7611 14.7897 78.4345 14.9297 78.1745 15.2097C77.9211 15.4897 77.7945 15.8897 77.7945 16.4097V18.9697H76.7345ZM82.6329 18.9697V11.7697H83.6929V18.9697H82.6329ZM87.3552 19.0897C86.8819 19.0897 86.4552 18.9831 86.0752 18.7697C85.7019 18.5497 85.4052 18.2464 85.1852 17.8597C84.9652 17.4664 84.8552 17.0097 84.8552 16.4897C84.8552 15.9697 84.9652 15.5164 85.1852 15.1297C85.4119 14.7364 85.7152 14.4331 86.0952 14.2197C86.4752 13.9997 86.8986 13.8897 87.3652 13.8897C87.8386 13.8897 88.2619 13.9997 88.6352 14.2197C89.0152 14.4331 89.3152 14.7364 89.5352 15.1297C89.7619 15.5164 89.8752 15.9697 89.8752 16.4897C89.8752 17.0097 89.7619 17.4664 89.5352 17.8597C89.3152 18.2464 89.0152 18.5497 88.6352 18.7697C88.2552 18.9831 87.8286 19.0897 87.3552 19.0897ZM87.3552 18.1797C87.6086 18.1797 87.8419 18.1164 88.0552 17.9897C88.2752 17.8631 88.4519 17.6764 88.5852 17.4297C88.7186 17.1764 88.7852 16.8631 88.7852 16.4897C88.7852 16.1164 88.7186 15.8064 88.5852 15.5597C88.4586 15.3064 88.2852 15.1164 88.0652 14.9897C87.8519 14.8631 87.6186 14.7997 87.3652 14.7997C87.1119 14.7997 86.8752 14.8631 86.6552 14.9897C86.4419 15.1164 86.2686 15.3064 86.1352 15.5597C86.0019 15.8064 85.9352 16.1164 85.9352 16.4897C85.9352 16.8631 86.0019 17.1764 86.1352 17.4297C86.2686 17.6764 86.4419 17.8631 86.6552 17.9897C86.8686 18.1164 87.1019 18.1797 87.3552 18.1797ZM92.7016 19.0897C92.2816 19.0897 91.9349 19.0197 91.6616 18.8797C91.3882 18.7397 91.1849 18.5564 91.0516 18.3297C90.9182 18.0964 90.8516 17.8431 90.8516 17.5697C90.8516 17.0897 91.0382 16.7097 91.4116 16.4297C91.7849 16.1497 92.3182 16.0097 93.0116 16.0097H94.3116V15.9197C94.3116 15.5331 94.2049 15.2431 93.9916 15.0497C93.7849 14.8564 93.5149 14.7597 93.1816 14.7597C92.8882 14.7597 92.6316 14.8331 92.4116 14.9797C92.1982 15.1197 92.0682 15.3297 92.0216 15.6097H90.9616C90.9949 15.2497 91.1149 14.9431 91.3216 14.6897C91.5349 14.4297 91.8016 14.2331 92.1216 14.0997C92.4482 13.9597 92.8049 13.8897 93.1916 13.8897C93.8849 13.8897 94.4216 14.0731 94.8016 14.4397C95.1816 14.7997 95.3716 15.2931 95.3716 15.9197V18.9697H94.4516L94.3616 18.1197C94.2216 18.3931 94.0182 18.6231 93.7516 18.8097C93.4849 18.9964 93.1349 19.0897 92.7016 19.0897ZM92.9116 18.2297C93.1982 18.2297 93.4382 18.1631 93.6316 18.0297C93.8316 17.8897 93.9849 17.7064 94.0916 17.4797C94.2049 17.2531 94.2749 17.0031 94.3016 16.7297H93.1216C92.7016 16.7297 92.4016 16.8031 92.2216 16.9497C92.0482 17.0964 91.9616 17.2797 91.9616 17.4997C91.9616 17.7264 92.0449 17.9064 92.2116 18.0397C92.3849 18.1664 92.6182 18.2297 92.9116 18.2297ZM98.8675 19.0897C98.3875 19.0897 97.9642 18.9764 97.5975 18.7497C97.2308 18.5231 96.9442 18.2131 96.7375 17.8197C96.5308 17.4264 96.4275 16.9797 96.4275 16.4797C96.4275 15.9797 96.5308 15.5364 96.7375 15.1497C96.9442 14.7564 97.2308 14.4497 97.5975 14.2297C97.9708 14.0031 98.3975 13.8897 98.8775 13.8897C99.2708 13.8897 99.6142 13.9664 99.9075 14.1197C100.208 14.2731 100.441 14.4897 100.608 14.7697V11.7697H101.668V18.9697H100.718L100.608 18.1997C100.448 18.4331 100.228 18.6397 99.9475 18.8197C99.6675 18.9997 99.3075 19.0897 98.8675 19.0897ZM99.0575 18.1697C99.5108 18.1697 99.8808 18.0131 100.168 17.6997C100.461 17.3864 100.608 16.9831 100.608 16.4897C100.608 15.9897 100.461 15.5864 100.168 15.2797C99.8808 14.9664 99.5108 14.8097 99.0575 14.8097C98.6042 14.8097 98.2308 14.9664 97.9375 15.2797C97.6442 15.5864 97.4975 15.9897 97.4975 16.4897C97.4975 16.8164 97.5642 17.1064 97.6975 17.3597C97.8308 17.6131 98.0142 17.8131 98.2475 17.9597C98.4875 18.0997 98.7575 18.1697 99.0575 18.1697ZM107.844 19.0897C107.37 19.0897 106.944 18.9831 106.564 18.7697C106.19 18.5497 105.894 18.2464 105.674 17.8597C105.454 17.4664 105.344 17.0097 105.344 16.4897C105.344 15.9697 105.454 15.5164 105.674 15.1297C105.9 14.7364 106.204 14.4331 106.584 14.2197C106.964 13.9997 107.387 13.8897 107.854 13.8897C108.327 13.8897 108.75 13.9997 109.124 14.2197C109.504 14.4331 109.804 14.7364 110.024 15.1297C110.25 15.5164 110.364 15.9697 110.364 16.4897C110.364 17.0097 110.25 17.4664 110.024 17.8597C109.804 18.2464 109.504 18.5497 109.124 18.7697C108.744 18.9831 108.317 19.0897 107.844 19.0897ZM107.844 18.1797C108.097 18.1797 108.33 18.1164 108.544 17.9897C108.764 17.8631 108.94 17.6764 109.074 17.4297C109.207 17.1764 109.274 16.8631 109.274 16.4897C109.274 16.1164 109.207 15.8064 109.074 15.5597C108.947 15.3064 108.774 15.1164 108.554 14.9897C108.34 14.8631 108.107 14.7997 107.854 14.7997C107.6 14.7997 107.364 14.8631 107.144 14.9897C106.93 15.1164 106.757 15.3064 106.624 15.5597C106.49 15.8064 106.424 16.1164 106.424 16.4897C106.424 16.8631 106.49 17.1764 106.624 17.4297C106.757 17.6764 106.93 17.8631 107.144 17.9897C107.357 18.1164 107.59 18.1797 107.844 18.1797ZM111.51 18.9697V14.0097H112.45L112.53 14.8797C112.683 14.5731 112.907 14.3331 113.2 14.1597C113.5 13.9797 113.843 13.8897 114.23 13.8897C114.83 13.8897 115.3 14.0764 115.64 14.4497C115.987 14.8231 116.16 15.3797 116.16 16.1197V18.9697H115.11V16.2297C115.11 15.2697 114.717 14.7897 113.93 14.7897C113.537 14.7897 113.21 14.9297 112.95 15.2097C112.697 15.4897 112.57 15.8897 112.57 16.4097V18.9697H111.51ZM122.008 18.9697C121.521 18.9697 121.134 18.8531 120.848 18.6197C120.561 18.3797 120.418 17.9564 120.418 17.3497V14.8997H119.568V14.0097H120.418L120.548 12.7497H121.478V14.0097H122.878V14.8997H121.478V17.3497C121.478 17.6231 121.534 17.8131 121.648 17.9197C121.768 18.0197 121.971 18.0697 122.258 18.0697H122.828V18.9697H122.008ZM123.971 18.9697V11.7697H125.031V14.8097C125.197 14.5231 125.427 14.2997 125.721 14.1397C126.021 13.9731 126.351 13.8897 126.711 13.8897C127.304 13.8897 127.771 14.0764 128.111 14.4497C128.451 14.8231 128.621 15.3797 128.621 16.1197V18.9697H127.571V16.2297C127.571 15.2697 127.187 14.7897 126.421 14.7897C126.021 14.7897 125.687 14.9297 125.421 15.2097C125.161 15.4897 125.031 15.8897 125.031 16.4097V18.9697H123.971ZM132.189 19.0897C131.703 19.0897 131.269 18.9831 130.889 18.7697C130.516 18.5497 130.223 18.2464 130.009 17.8597C129.796 17.4731 129.689 17.0231 129.689 16.5097C129.689 15.9897 129.793 15.5331 129.999 15.1397C130.213 14.7464 130.506 14.4397 130.879 14.2197C131.259 13.9997 131.699 13.8897 132.199 13.8897C132.686 13.8897 133.109 13.9997 133.469 14.2197C133.829 14.4331 134.109 14.7197 134.309 15.0797C134.509 15.4397 134.609 15.8364 134.609 16.2697C134.609 16.3364 134.606 16.4097 134.599 16.4897C134.599 16.5631 134.596 16.6464 134.589 16.7397H130.729C130.763 17.2197 130.919 17.5864 131.199 17.8397C131.486 18.0864 131.816 18.2097 132.189 18.2097C132.489 18.2097 132.739 18.1431 132.939 18.0097C133.146 17.8697 133.299 17.6831 133.399 17.4497H134.459C134.326 17.9164 134.059 18.3064 133.659 18.6197C133.266 18.9331 132.776 19.0897 132.189 19.0897ZM132.189 14.7597C131.836 14.7597 131.523 14.8664 131.249 15.0797C130.976 15.2864 130.809 15.5997 130.749 16.0197H133.549C133.529 15.6331 133.393 15.3264 133.139 15.0997C132.886 14.8731 132.569 14.7597 132.189 14.7597Z" fill="#0F0F0F"/>
<defs>
<clipPath id="clip0_836_2422">
<rect width="18" height="22" fill="white" transform="translate(26.4492 13.9697)"/>
</clipPath>
<clipPath id="clip1_836_2422">
<rect width="18" height="22" fill="white" transform="translate(26.4492 13.9697)"/>
</clipPath>
</defs>
</svg>
