<svg width="23" height="24" viewBox="0 0 23 24" fill="none" xmlns="http://www.w3.org/2000/svg">
<path d="M15.4442 16H7.4223C7.10561 16.0005 6.79525 15.9068 6.52717 15.7299C6.25909 15.5529 6.04423 15.2998 5.90748 15C5.74739 14.6443 5.68573 14.2485 5.72953 13.8577C5.77332 13.467 5.92081 13.097 6.15518 12.79L10.1661 7.69001C10.3235 7.49938 10.5182 7.34649 10.7368 7.24171C10.9554 7.13693 11.1929 7.0827 11.4333 7.0827C11.6736 7.0827 11.9111 7.13693 12.1297 7.24171C12.3484 7.34649 12.543 7.49938 12.7004 7.69001L16.7113 12.79C16.9457 13.097 17.0932 13.467 17.137 13.8577C17.1808 14.2485 17.1191 14.6443 16.959 15C16.8223 15.2998 16.6074 15.5529 16.3393 15.7299C16.0713 15.9068 15.7609 16.0005 15.4442 16Z" fill="#118B4E"/>
</svg>
