<svg width="20" height="15" viewBox="0 0 20 15" fill="none" xmlns="http://www.w3.org/2000/svg">
<path d="M10.8046 0.927828C10.5598 0.746337 10.1806 0.759981 9.95739 0.959035C9.73419 1.15809 9.751 1.46642 9.9958 1.64791L17.3974 7.14242H0.800195C0.468995 7.14242 0.200195 7.36099 0.200195 7.6303C0.200195 7.8996 0.468995 8.11817 0.800195 8.11817H17.3938L9.9958 13.6097C9.751 13.7912 9.73419 14.1006 9.95739 14.2986C10.1806 14.4977 10.5598 14.5123 10.8046 14.3308L19.1038 8.1699C19.2718 8.045 19.3678 7.88108 19.3918 7.71227C19.3978 7.68593 19.4002 7.65859 19.4002 7.6303C19.4002 7.60395 19.3978 7.57857 19.393 7.5532C19.3714 7.38147 19.2754 7.21463 19.1038 7.08876L10.8046 0.927828Z" fill="#004D00"/>
</svg>
