<svg width="50" height="65" viewBox="0 0 50 65" fill="none" xmlns="http://www.w3.org/2000/svg">
<path d="M2.53154 20.2105L17.2788 20.2105V20.2105C11.0476 25.6137 10.6591 35.1509 16.4302 41.043L17.2788 41.9094H2.45117L1.36623 39.3377L0.562564 36.4043V36.4043C0.188411 34.5068 0 32.5774 0 30.6434V30.1759L0.241099 27.3631L0.322715 26.955C0.669595 25.2206 1.15288 23.5163 1.76806 21.858V21.858L2.53154 20.2105Z" fill="#F5F5F5"/>
<path d="M20.9353 55.0894L17.5599 54.3661L13.3005 52.6785V52.6785C20.912 51.9298 27.5834 47.2693 30.9052 40.3802L31.5436 39.0563L46.9739 39.0563L46.0565 41.2523C45.0431 43.6778 43.5823 45.891 41.7502 47.7761V47.7761L38.857 50.388L35.9826 52.3403V52.3403C34.6862 52.9934 33.3412 53.5452 31.9596 53.9908L31.5436 54.125L30.0698 54.491C27.0848 55.2323 23.9915 55.4349 20.9353 55.0894V55.0894Z" fill="#F5F5F5"/>
<path d="M19.6893 7.225L16.2335 8.15555L13.4609 9.40123L14.2317 9.50772C22.0293 10.5849 28.6515 15.7584 31.5835 23.0635V23.0635L47.054 23.0635L45.9241 20.6834C45.419 19.6195 44.8375 18.5935 44.1842 17.6135L44.1449 17.5546C42.7971 15.533 41.1494 13.7284 39.2583 12.2028L39.1973 12.1536C37.9555 11.1518 36.6137 10.281 35.193 9.55485V9.55485C34.2077 9.05126 33.1876 8.61887 32.1406 8.26101L30.5387 7.71354L30.18 7.61952C27.677 6.96338 25.083 6.72363 22.5021 6.90988V6.90988L19.6893 7.225Z" fill="#F5F5F5"/>
</svg>
