<svg width="19" height="19" viewBox="0 0 19 19" fill="none" xmlns="http://www.w3.org/2000/svg">
<g clip-path="url(#clip0_836_2559)">
<path d="M15.2434 4.63463C14.205 4.16537 13.1108 3.83098 11.9874 3.63963C11.9772 3.6376 11.9666 3.63882 11.9571 3.64312C11.9476 3.64743 11.9397 3.6546 11.9344 3.66363C11.7857 3.92995 11.6505 4.20364 11.5294 4.48363C10.3168 4.30245 9.08405 4.30245 7.87145 4.48363C7.74946 4.20285 7.61191 3.92909 7.45945 3.66363C7.45418 3.65488 7.44641 3.64792 7.43714 3.64364C7.42786 3.63936 7.41752 3.63796 7.40745 3.63963C6.28245 3.82963 5.18745 4.16463 4.15045 4.63363C4.14177 4.63733 4.13444 4.64361 4.12945 4.65163C2.05445 7.70163 1.48645 10.6756 1.76545 13.6126C1.76608 13.6198 1.76818 13.6268 1.77162 13.6332C1.77506 13.6396 1.77977 13.6452 1.78545 13.6496C2.99658 14.5314 4.34744 15.2031 5.78145 15.6366C5.79151 15.6396 5.80224 15.6395 5.81224 15.6363C5.82223 15.6331 5.83102 15.6269 5.83745 15.6186C6.14603 15.2063 6.41933 14.7688 6.65445 14.3106C6.65929 14.3012 6.66093 14.2904 6.65913 14.28C6.65732 14.2695 6.65217 14.2599 6.64445 14.2526C6.63969 14.2475 6.63389 14.2434 6.62745 14.2406C6.19678 14.0786 5.7795 13.883 5.37945 13.6556C5.37214 13.6515 5.36598 13.6457 5.36154 13.6386C5.35709 13.6315 5.3545 13.6234 5.354 13.615C5.35351 13.6066 5.35512 13.5983 5.35869 13.5907C5.36226 13.5831 5.36768 13.5766 5.37445 13.5716C5.45745 13.5096 5.54145 13.4456 5.62145 13.3816C5.62852 13.3756 5.63713 13.3716 5.64631 13.3702C5.6555 13.3688 5.66489 13.37 5.67345 13.3736C8.29245 14.5506 11.1264 14.5506 13.7144 13.3736C13.7229 13.3698 13.7323 13.3684 13.7414 13.3696C13.7505 13.3706 13.7592 13.3741 13.7664 13.3796C13.8464 13.4446 13.9304 13.5096 14.0154 13.5716C14.0221 13.5766 14.0274 13.5831 14.0309 13.5906C14.0344 13.5981 14.0359 13.6064 14.0354 13.6146C14.0351 13.623 14.0326 13.6312 14.0282 13.6383C14.0238 13.6455 14.0177 13.6514 14.0104 13.6556C13.6124 13.8856 13.1944 14.0806 12.7624 14.2406C12.7557 14.243 12.7495 14.2468 12.7443 14.2518C12.7391 14.2569 12.7351 14.2629 12.7324 14.2696C12.7302 14.2761 12.7292 14.2831 12.7298 14.2899C12.7303 14.2968 12.7322 14.3035 12.7354 14.3096C12.9754 14.7656 13.2474 15.2026 13.5514 15.6176C13.5575 15.6264 13.5662 15.633 13.5762 15.6366C13.5863 15.6402 13.5972 15.6406 13.6074 15.6376C15.0438 15.2049 16.3969 14.5328 17.6094 13.6496C17.6155 13.6454 17.6205 13.6399 17.6241 13.6335C17.6277 13.6271 17.6299 13.62 17.6304 13.6126C17.9644 10.2176 17.0714 7.26763 15.2644 4.65263C15.2604 4.64375 15.2533 4.63664 15.2444 4.63263L15.2434 4.63463ZM7.04545 11.8246C6.25745 11.8246 5.60845 11.1126 5.60845 10.2386C5.60845 9.36363 6.24545 8.65163 7.04545 8.65163C7.85345 8.65163 8.49645 9.37063 8.48445 10.2386C8.48445 11.1126 7.84645 11.8246 7.04545 11.8246ZM12.3624 11.8246C11.5744 11.8246 10.9244 11.1126 10.9244 10.2386C10.9244 9.36363 11.5614 8.65163 12.3624 8.65163C13.1694 8.65163 13.8124 9.37063 13.8004 10.2386C13.8004 11.1126 13.1694 11.8246 12.3624 11.8246Z" fill="#9B9CA1"/>
</g>
<defs>
<clipPath id="clip0_836_2559">
<rect width="18" height="18" fill="white" transform="translate(0.699219 0.639648)"/>
</clipPath>
</defs>
</svg>
