<svg width="24" height="25" viewBox="0 0 24 25" fill="none" xmlns="http://www.w3.org/2000/svg">
<path d="M11.7352 15.073C12.6775 14.281 13.3533 13.2184 13.6711 12.0292C13.989 10.8401 13.9334 9.58194 13.5119 8.42547C13.0904 7.26899 12.3234 6.27013 11.315 5.56434C10.3066 4.85855 9.10548 4.47998 7.8746 4.47998C6.64371 4.47998 5.44261 4.85855 4.43418 5.56434C3.42575 6.27013 2.65879 7.26899 2.23731 8.42547C1.81583 9.58194 1.76024 10.8401 2.07805 12.0292C2.39587 13.2184 3.07173 14.281 4.01397 15.073C2.54264 15.7383 1.26758 16.7715 0.311784 18.073C0.13525 18.3135 0.0615074 18.6144 0.10678 18.9093C0.152052 19.2042 0.312631 19.4691 0.553191 19.6456C0.79375 19.8222 1.09459 19.8959 1.38952 19.8506C1.68445 19.8054 1.94931 19.6448 2.12585 19.4042C2.78748 18.5006 3.65281 17.7657 4.65164 17.2591C5.65046 16.7525 6.75464 16.4884 7.8746 16.4884C8.99455 16.4884 10.0987 16.7525 11.0976 17.2591C12.0964 17.7657 12.9617 18.5006 13.6233 19.4042C13.7999 19.6449 14.0648 19.8056 14.3598 19.851C14.6548 19.8963 14.9558 19.8226 15.1965 19.6461C15.4372 19.4696 15.5979 19.2046 15.6432 18.9096C15.6886 18.6146 15.6149 18.3137 15.4383 18.073C14.482 16.7717 13.2067 15.7385 11.7352 15.073ZM4.1246 10.4848C4.1246 9.74317 4.34453 9.01814 4.75659 8.40146C5.16864 7.78477 5.75431 7.30413 6.43953 7.0203C7.12476 6.73647 7.87876 6.66221 8.60619 6.8069C9.33361 6.9516 10.0018 7.30875 10.5262 7.8332C11.0507 8.35764 11.4078 9.02583 11.5525 9.75326C11.6972 10.4807 11.623 11.2347 11.3391 11.9199C11.0553 12.6051 10.5747 13.1908 9.95799 13.6029C9.3413 14.0149 8.61628 14.2348 7.8746 14.2348C6.88004 14.2348 5.92621 13.8398 5.22295 13.1365C4.51969 12.4332 4.1246 11.4794 4.1246 10.4848ZM23.4465 19.6414C23.3274 19.7289 23.1922 19.7921 23.0487 19.8274C22.9051 19.8626 22.7561 19.8693 22.61 19.8469C22.4639 19.8245 22.3236 19.7736 22.1973 19.697C22.0709 19.6204 21.9608 19.5196 21.8733 19.4005C21.2101 18.4986 20.3444 17.7649 19.3459 17.2585C18.3475 16.7521 17.2441 16.4871 16.1246 16.4848C15.8262 16.4848 15.5401 16.3663 15.3291 16.1553C15.1181 15.9444 14.9996 15.6582 14.9996 15.3598C14.9996 15.0615 15.1181 14.7753 15.3291 14.5644C15.5401 14.3534 15.8262 14.2348 16.1246 14.2348C16.6767 14.2342 17.2219 14.1116 17.7212 13.8759C18.2205 13.6402 18.6616 13.2971 19.013 12.8711C19.3643 12.4452 19.6173 11.9469 19.7538 11.4119C19.8903 10.8769 19.907 10.3183 19.8026 9.77614C19.6983 9.23394 19.4755 8.72147 19.1501 8.27534C18.8248 7.82921 18.405 7.46042 17.9206 7.19533C17.4363 6.93023 16.8994 6.77537 16.3482 6.74179C15.7971 6.70821 15.2454 6.79676 14.7324 7.0011C14.595 7.05736 14.4478 7.08586 14.2993 7.08497C14.1509 7.08408 14.004 7.0538 13.8673 6.99589C13.7306 6.93798 13.6067 6.85358 13.5028 6.74755C13.3988 6.64152 13.3169 6.51597 13.2617 6.37813C13.2065 6.24029 13.1792 6.09289 13.1812 5.94442C13.1833 5.79596 13.2147 5.64937 13.2737 5.51311C13.3327 5.37685 13.418 5.25361 13.5249 5.1505C13.6317 5.0474 13.7579 4.96645 13.8962 4.91235C15.2202 4.38223 16.6898 4.3411 18.0414 4.79633C19.393 5.25156 20.5383 6.17337 21.2718 7.39649C22.0054 8.61961 22.2793 10.064 22.0444 11.4708C21.8094 12.8775 21.0811 14.1546 19.9899 15.073C21.4612 15.7383 22.7363 16.7715 23.6921 18.073C23.8669 18.3138 23.9392 18.614 23.8931 18.9079C23.8471 19.2019 23.6865 19.4656 23.4465 19.6414Z" fill="#E29D37"/>
</svg>
