<svg width="17" height="17" viewBox="0 0 17 17" fill="none" xmlns="http://www.w3.org/2000/svg">
<path d="M9.80469 12.1001C9.80469 12.2979 9.74604 12.4912 9.63616 12.6557C9.52628 12.8201 9.3701 12.9483 9.18737 13.024C9.00465 13.0997 8.80358 13.1195 8.6096 13.0809C8.41562 13.0423 8.23744 12.9471 8.09758 12.8072C7.95773 12.6674 7.86249 12.4892 7.8239 12.2952C7.78532 12.1012 7.80512 11.9001 7.88081 11.7174C7.9565 11.5347 8.08467 11.3785 8.24912 11.2686C8.41357 11.1587 8.60691 11.1001 8.80469 11.1001C9.06991 11.1001 9.32426 11.2055 9.5118 11.393C9.69933 11.5805 9.80469 11.8349 9.80469 12.1001ZM15.5547 8.8501C15.5547 10.1851 15.1588 11.4902 14.4171 12.6002C13.6754 13.7102 12.6212 14.5754 11.3878 15.0863C10.1544 15.5972 8.7972 15.7308 7.48783 15.4704C6.17846 15.2099 4.97572 14.5671 4.03172 13.6231C3.08772 12.6791 2.44484 11.4763 2.18439 10.167C1.92394 8.85758 2.05761 7.50039 2.5685 6.26698C3.0794 5.03358 3.94456 3.97938 5.05459 3.23768C6.16462 2.49598 7.46967 2.1001 8.80469 2.1001C10.5943 2.10208 12.31 2.81388 13.5755 4.07932C14.8409 5.34476 15.5527 7.0605 15.5547 8.8501ZM14.0547 8.8501C14.0547 7.81175 13.7468 6.79671 13.1699 5.93335C12.593 5.07 11.7731 4.39709 10.8138 3.99973C9.85447 3.60237 8.79887 3.4984 7.78047 3.70097C6.76207 3.90355 5.82661 4.40356 5.09238 5.13779C4.35815 5.87201 3.85814 6.80747 3.65557 7.82587C3.453 8.84427 3.55696 9.89987 3.95432 10.8592C4.35168 11.8185 5.02459 12.6384 5.88795 13.2153C6.75131 13.7922 7.76634 14.1001 8.80469 14.1001C10.1966 14.0986 11.5311 13.545 12.5154 12.5608C13.4996 11.5765 14.0532 10.242 14.0547 8.8501ZM8.80469 4.8501C7.28844 4.8501 6.05469 5.97135 6.05469 7.3501V7.6001C6.05469 7.79901 6.13371 7.98978 6.27436 8.13043C6.41501 8.27108 6.60578 8.3501 6.80469 8.3501C7.0036 8.3501 7.19437 8.27108 7.33502 8.13043C7.47567 7.98978 7.55469 7.79901 7.55469 7.6001V7.3501C7.55469 6.79885 8.11719 6.3501 8.80469 6.3501C9.49219 6.3501 10.0547 6.79885 10.0547 7.3501C10.0547 7.90135 9.49219 8.3501 8.80469 8.3501C8.60578 8.3501 8.41501 8.42912 8.27436 8.56977C8.13371 8.71042 8.05469 8.90119 8.05469 9.1001V9.6001C8.05424 9.78539 8.12241 9.96429 8.24604 10.1023C8.36967 10.2403 8.54002 10.3277 8.72424 10.3476C8.90847 10.3675 9.09353 10.3184 9.24376 10.21C9.39398 10.1015 9.49873 9.94122 9.53782 9.7601C10.6991 9.4676 11.5547 8.49822 11.5547 7.3501C11.5547 5.97135 10.3209 4.8501 8.80469 4.8501Z" fill="#33C6AB"/>
</svg>
