<svg width="21" height="21" viewBox="0 0 21 21" fill="none" xmlns="http://www.w3.org/2000/svg">
<path d="M9.58062 10.5202C9.58062 10.8169 9.49264 11.1069 9.32782 11.3535C9.163 11.6002 8.92873 11.7925 8.65464 11.906C8.38055 12.0195 8.07895 12.0492 7.78798 11.9914C7.49701 11.9335 7.22973 11.7906 7.01996 11.5808C6.81018 11.3711 6.66732 11.1038 6.60944 10.8128C6.55156 10.5218 6.58126 10.2202 6.6948 9.94616C6.80833 9.67207 7.00059 9.4378 7.24726 9.27298C7.49393 9.10815 7.78394 9.02018 8.08062 9.02018C8.47844 9.02018 8.85997 9.17822 9.14128 9.45952C9.42258 9.74083 9.58062 10.1224 9.58062 10.5202ZM12.5806 9.02018C12.2839 9.02018 11.9939 9.10815 11.7473 9.27298C11.5006 9.4378 11.3083 9.67207 11.1948 9.94616C11.0813 10.2202 11.0516 10.5218 11.1094 10.8128C11.1673 11.1038 11.3102 11.3711 11.52 11.5808C11.7297 11.7906 11.997 11.9335 12.288 11.9914C12.579 12.0492 12.8806 12.0195 13.1546 11.906C13.4287 11.7925 13.663 11.6002 13.8278 11.3535C13.9926 11.1069 14.0806 10.8169 14.0806 10.5202C14.0806 10.1224 13.9226 9.74083 13.6413 9.45952C13.36 9.17822 12.9784 9.02018 12.5806 9.02018ZM20.4556 10.5202C20.456 12.2545 20.0108 13.9599 19.1629 15.4728C18.3149 16.9857 17.0925 18.2554 15.6129 19.1602C14.1333 20.065 12.4461 20.5746 10.713 20.6401C8.97985 20.7056 7.25898 20.3248 5.7153 19.5342L2.67499 20.5514C2.34402 20.663 1.98846 20.6799 1.64841 20.6002C1.30835 20.5205 0.997315 20.3474 0.750347 20.1004C0.503379 19.8535 0.3303 19.5424 0.250619 19.2024C0.170937 18.8623 0.187821 18.5068 0.299366 18.1758L1.3128 15.1355C0.616887 13.7723 0.239065 12.2691 0.207743 10.7389C0.17642 9.20875 0.492413 7.69136 1.13196 6.30086C1.77151 4.91037 2.71798 3.68296 3.90019 2.71092C5.08241 1.73888 6.46961 1.04751 7.95749 0.688777C9.44538 0.330049 10.9952 0.313304 12.4905 0.6398C13.9858 0.966297 15.3876 1.62754 16.5906 2.57381C17.7935 3.52008 18.7663 4.72675 19.4357 6.1031C20.1052 7.47945 20.4539 8.98966 20.4556 10.5202ZM18.2056 10.5202C18.2052 9.31225 17.9268 8.12062 17.3922 7.03747C16.8575 5.95431 16.0808 5.00867 15.1222 4.2737C14.1636 3.53872 13.0488 3.03412 11.864 2.79892C10.6792 2.56372 9.45615 2.60422 8.2895 2.9173C7.12285 3.23039 6.04386 3.80765 5.136 4.60444C4.22814 5.40123 3.51574 6.39619 3.05391 7.51235C2.59208 8.6285 2.39321 9.83594 2.47268 11.0413C2.55214 12.2466 2.90781 13.4174 3.51218 14.4633C3.59206 14.6012 3.64172 14.7545 3.65788 14.9131C3.67405 15.0716 3.65634 15.2318 3.60593 15.383L2.67499 18.1758L5.4678 17.2449C5.58269 17.2066 5.70296 17.187 5.82405 17.1867C6.02164 17.1871 6.21564 17.2395 6.38655 17.3386C7.58376 18.0314 8.94231 18.3966 10.3255 18.3975C11.7087 18.3984 13.0677 18.0349 14.2658 17.3437C15.4639 16.6525 16.4589 15.658 17.1505 14.4601C17.8421 13.2623 18.206 11.9034 18.2056 10.5202Z" fill="#E29D37"/>
</svg>
