<svg width="109" height="19" viewBox="0 0 109 19" fill="none" xmlns="http://www.w3.org/2000/svg">
<g clip-path="url(#clip0_836_2456)">
<g clip-path="url(#clip1_836_2456)">
<g clip-path="url(#clip2_836_2456)">
<path d="M8.995 13.3378C8.051 11.6268 6.643 10.2178 4.931 9.27479C6.643 8.33078 8.052 6.92279 8.995 5.21079C9.938 6.92279 11.347 8.33078 13.058 9.27479C11.347 10.2178 9.938 11.6268 8.995 13.3378ZM10.259 0.279785H7.729C7.729 4.54179 4.262 8.00879 0 8.00879V10.5388C4.262 10.5388 7.729 14.0078 7.729 18.2688H10.259C10.259 14.0078 13.728 10.5388 17.989 10.5388V8.00879C13.728 8.00879 10.259 4.54179 10.259 0.279785Z" fill="#FBFBFB"/>
</g>
</g>
<path d="M37.9107 6.01237H35.6321C35.5671 5.6387 35.4473 5.30768 35.2727 5.01931C35.098 4.72687 34.8807 4.47911 34.6208 4.27603C34.3608 4.07295 34.0643 3.92064 33.7313 3.8191C33.4023 3.7135 33.0469 3.6607 32.6651 3.6607C31.9868 3.6607 31.3857 3.83129 30.8617 4.17246C30.3378 4.50958 29.9276 5.00509 29.6311 5.65901C29.3346 6.30887 29.1863 7.10292 29.1863 8.04115C29.1863 8.99563 29.3346 9.79983 29.6311 10.4537C29.9316 11.1036 30.3419 11.5951 30.8617 11.9281C31.3857 12.2571 31.9848 12.4216 32.659 12.4216C33.0327 12.4216 33.382 12.3729 33.7069 12.2754C34.0359 12.1738 34.3304 12.0256 34.5903 11.8306C34.8543 11.6357 35.0757 11.396 35.2544 11.1117C35.4372 10.8274 35.5631 10.5025 35.6321 10.1369L37.9107 10.1491C37.8254 10.7421 37.6406 11.2986 37.3563 11.8184C37.076 12.3383 36.7084 12.7973 36.2535 13.1953C35.7986 13.5893 35.2666 13.898 34.6573 14.1214C34.0481 14.3407 33.3718 14.4504 32.6286 14.4504C31.5319 14.4504 30.5531 14.1965 29.692 13.6888C28.8309 13.1811 28.1527 12.448 27.6571 11.4895C27.1616 10.5309 26.9139 9.38148 26.9139 8.04115C26.9139 6.69675 27.1637 5.54732 27.6632 4.59284C28.1628 3.6343 28.8431 2.90118 29.7042 2.39348C30.5653 1.88577 31.54 1.63192 32.6286 1.63192C33.3231 1.63192 33.9689 1.7294 34.5659 1.92436C35.163 2.11932 35.6951 2.40566 36.1622 2.78339C36.6292 3.15706 37.0131 3.61602 37.3136 4.16028C37.6182 4.70047 37.8173 5.31784 37.9107 6.01237ZM42.5759 14.4687C41.983 14.4687 41.4488 14.363 40.9736 14.1518C40.5025 13.9366 40.1288 13.6198 39.8526 13.2014C39.5805 12.7831 39.4444 12.2673 39.4444 11.654C39.4444 11.1259 39.5419 10.6893 39.7369 10.3441C39.9318 9.99885 40.1979 9.72266 40.535 9.51551C40.8721 9.30837 41.2519 9.152 41.6743 9.0464C42.1007 8.93673 42.5414 8.85753 42.9963 8.80879C43.5446 8.75193 43.9894 8.70116 44.3306 8.65648C44.6717 8.60774 44.9195 8.53463 45.0738 8.43716C45.2322 8.33562 45.3114 8.17924 45.3114 7.96804V7.93149C45.3114 7.47252 45.1754 7.11713 44.9033 6.86531C44.6311 6.61349 44.2392 6.48758 43.7274 6.48758C43.1872 6.48758 42.7587 6.60537 42.4419 6.84094C42.1292 7.07652 41.918 7.35474 41.8083 7.6756L39.7491 7.38317C39.9115 6.81454 40.1796 6.33933 40.5533 5.95754C40.9269 5.57169 41.3839 5.28331 41.9241 5.09242C42.4643 4.89746 43.0613 4.79998 43.7152 4.79998C44.1661 4.79998 44.6149 4.85278 45.0617 4.95838C45.5084 5.06399 45.9166 5.23864 46.2862 5.48233C46.6558 5.72197 46.9523 6.04893 47.1757 6.46321C47.4032 6.8775 47.5169 7.39535 47.5169 8.01678V14.2798H45.3967V12.9943H45.3236C45.1896 13.2542 45.0007 13.4979 44.757 13.7254C44.5174 13.9488 44.2148 14.1295 43.8493 14.2676C43.4878 14.4016 43.0633 14.4687 42.5759 14.4687ZM43.1486 12.8481C43.5914 12.8481 43.9752 12.7607 44.3001 12.5861C44.625 12.4074 44.8748 12.1718 45.0495 11.8794C45.2282 11.5869 45.3175 11.2681 45.3175 10.9229V9.82013C45.2485 9.877 45.1307 9.9298 44.9642 9.97854C44.8017 10.0273 44.6189 10.0699 44.4159 10.1065C44.2128 10.143 44.0117 10.1755 43.8127 10.204C43.6137 10.2324 43.4411 10.2568 43.2949 10.2771C42.9659 10.3217 42.6714 10.3949 42.4115 10.4964C42.1515 10.5979 41.9464 10.7401 41.7961 10.9229C41.6458 11.1016 41.5707 11.3331 41.5707 11.6174C41.5707 12.0236 41.7189 12.3302 42.0154 12.5374C42.3119 12.7445 42.6897 12.8481 43.1486 12.8481ZM49.7345 17.789V4.92183H51.9034V6.4693H52.0314C52.1451 6.24185 52.3055 6.00019 52.5127 5.74431C52.7198 5.48436 53.0001 5.26301 53.3534 5.08023C53.7068 4.8934 54.1576 4.79998 54.706 4.79998C55.4289 4.79998 56.0808 4.98479 56.6616 5.35439C57.2465 5.71994 57.7095 6.26216 58.0507 6.98107C58.3959 7.69591 58.5685 8.57322 58.5685 9.61299C58.5685 10.6406 58.4 11.5138 58.0629 12.2327C57.7258 12.9516 57.2668 13.5 56.686 13.8777C56.1052 14.2554 55.4472 14.4443 54.712 14.4443C54.1759 14.4443 53.7312 14.3549 53.3778 14.1762C53.0244 13.9975 52.7401 13.7822 52.5249 13.5304C52.3137 13.2745 52.1492 13.0329 52.0314 12.8054H51.94V17.789H49.7345ZM51.8973 9.60081C51.8973 10.206 51.9826 10.736 52.1532 11.1909C52.3279 11.6458 52.5777 12.0012 52.9026 12.2571C53.2316 12.5089 53.6296 12.6348 54.0967 12.6348C54.5841 12.6348 54.9923 12.5049 55.3213 12.2449C55.6503 11.9809 55.898 11.6215 56.0646 11.1666C56.2351 10.7076 56.3204 10.1857 56.3204 9.60081C56.3204 9.02 56.2372 8.50417 56.0707 8.05333C55.9041 7.60249 55.6564 7.24913 55.3274 6.99325C54.9984 6.73737 54.5882 6.60943 54.0967 6.60943C53.6256 6.60943 53.2255 6.73331 52.8965 6.98107C52.5675 7.22883 52.3177 7.57609 52.1471 8.02287C51.9806 8.46965 51.8973 8.99563 51.8973 9.60081ZM60.4572 14.2798V4.92183H62.6627V14.2798H60.4572ZM61.566 3.59368C61.2167 3.59368 60.9162 3.47793 60.6643 3.24642C60.4125 3.01084 60.2866 2.72856 60.2866 2.39957C60.2866 2.06652 60.4125 1.78423 60.6643 1.55272C60.9162 1.31715 61.2167 1.19936 61.566 1.19936C61.9194 1.19936 62.2199 1.31715 62.4677 1.55272C62.7195 1.78423 62.8454 2.06652 62.8454 2.39957C62.8454 2.72856 62.7195 3.01084 62.4677 3.24642C62.2199 3.47793 61.9194 3.59368 61.566 3.59368ZM69.6034 4.92183V6.62771H64.2238V4.92183H69.6034ZM65.552 2.67982H67.7574V11.4651C67.7574 11.7616 67.8021 11.989 67.8915 12.1474C67.9849 12.3018 68.1067 12.4074 68.257 12.4642C68.4073 12.5211 68.5738 12.5495 68.7566 12.5495C68.8947 12.5495 69.0206 12.5394 69.1343 12.5191C69.2521 12.4988 69.3415 12.4805 69.4024 12.4642L69.774 14.1884C69.6562 14.229 69.4877 14.2737 69.2684 14.3224C69.0531 14.3712 68.7891 14.3996 68.4763 14.4077C67.924 14.424 67.4264 14.3407 66.9837 14.1579C66.541 13.9711 66.1897 13.6827 65.9297 13.2928C65.6738 12.9029 65.5479 12.4155 65.552 11.8306V2.67982ZM74.1408 14.4687C73.5478 14.4687 73.0137 14.363 72.5385 14.1518C72.0673 13.9366 71.6936 13.6198 71.4175 13.2014C71.1453 12.7831 71.0093 12.2673 71.0093 11.654C71.0093 11.1259 71.1067 10.6893 71.3017 10.3441C71.4967 9.99885 71.7627 9.72266 72.0998 9.51551C72.4369 9.30837 72.8167 9.152 73.2391 9.0464C73.6656 8.93673 74.1062 8.85753 74.5611 8.80879C75.1095 8.75193 75.5542 8.70116 75.8954 8.65648C76.2366 8.60774 76.4843 8.53463 76.6387 8.43716C76.7971 8.33562 76.8763 8.17924 76.8763 7.96804V7.93149C76.8763 7.47252 76.7402 7.11713 76.4681 6.86531C76.1959 6.61349 75.804 6.48758 75.2922 6.48758C74.752 6.48758 74.3235 6.60537 74.0067 6.84094C73.694 7.07652 73.4828 7.35474 73.3731 7.6756L71.3139 7.38317C71.4763 6.81454 71.7444 6.33933 72.1181 5.95754C72.4918 5.57169 72.9487 5.28331 73.4889 5.09242C74.0291 4.89746 74.6261 4.79998 75.28 4.79998C75.7309 4.79998 76.1797 4.85278 76.6265 4.95838C77.0733 5.06399 77.4814 5.23864 77.851 5.48233C78.2207 5.72197 78.5172 6.04893 78.7405 6.46321C78.968 6.8775 79.0817 7.39535 79.0817 8.01678V14.2798H76.9616V12.9943H76.8884C76.7544 13.2542 76.5655 13.4979 76.3219 13.7254C76.0822 13.9488 75.7796 14.1295 75.4141 14.2676C75.0526 14.4016 74.6282 14.4687 74.1408 14.4687ZM74.7135 12.8481C75.1562 12.8481 75.54 12.7607 75.8649 12.5861C76.1899 12.4074 76.4396 12.1718 76.6143 11.8794C76.793 11.5869 76.8824 11.2681 76.8824 10.9229V9.82013C76.8133 9.877 76.6955 9.9298 76.529 9.97854C76.3665 10.0273 76.1838 10.0699 75.9807 10.1065C75.7776 10.143 75.5765 10.1755 75.3775 10.204C75.1785 10.2324 75.0059 10.2568 74.8597 10.2771C74.5307 10.3217 74.2362 10.3949 73.9763 10.4964C73.7163 10.5979 73.5112 10.7401 73.3609 10.9229C73.2107 11.1016 73.1355 11.3331 73.1355 11.6174C73.1355 12.0236 73.2838 12.3302 73.5803 12.5374C73.8768 12.7445 74.2545 12.8481 74.7135 12.8481ZM83.5048 1.80251V14.2798H81.2994V1.80251H83.5048ZM85.7727 14.2798V4.92183H87.9782V14.2798H85.7727ZM86.8815 3.59368C86.5322 3.59368 86.2317 3.47793 85.9799 3.24642C85.728 3.01084 85.6021 2.72856 85.6021 2.39957C85.6021 2.06652 85.728 1.78423 85.9799 1.55272C86.2317 1.31715 86.5322 1.19936 86.8815 1.19936C87.2349 1.19936 87.5355 1.31715 87.7832 1.55272C88.035 1.78423 88.1609 2.06652 88.1609 2.39957C88.1609 2.72856 88.035 3.01084 87.7832 3.24642C87.5355 3.47793 87.2349 3.59368 86.8815 3.59368ZM90.1242 14.2798V12.8785L94.9494 6.82876V6.74956H90.2826V4.92183H97.6484V6.42666L93.0547 12.3729V12.4521H97.8068V14.2798H90.1242ZM103.754 14.4626C102.816 14.4626 102.006 14.2676 101.324 13.8777C100.645 13.4837 100.123 12.9273 99.7579 12.2084C99.3923 11.4854 99.2095 10.6345 99.2095 9.65564C99.2095 8.69304 99.3923 7.84822 99.7579 7.12119C100.127 6.3901 100.643 5.82148 101.305 5.41532C101.967 5.00509 102.745 4.79998 103.639 4.79998C104.215 4.79998 104.76 4.8934 105.272 5.08023C105.787 5.26301 106.242 5.54732 106.636 5.93317C107.034 6.31902 107.347 6.81048 107.574 7.40754C107.802 8.00053 107.916 8.70725 107.916 9.5277V10.204H100.245V8.71741H105.802C105.797 8.295 105.706 7.9193 105.527 7.59031C105.349 7.25726 105.099 6.99528 104.778 6.80439C104.461 6.61349 104.092 6.51804 103.669 6.51804C103.218 6.51804 102.822 6.62771 102.481 6.84703C102.14 7.0623 101.874 7.34661 101.683 7.69997C101.496 8.04927 101.401 8.43309 101.397 8.85144V10.1491C101.397 10.6934 101.496 11.1605 101.695 11.5504C101.894 11.9362 102.172 12.2327 102.53 12.4399C102.887 12.643 103.306 12.7445 103.785 12.7445C104.106 12.7445 104.396 12.6998 104.656 12.6105C104.916 12.517 105.142 12.381 105.332 12.2023C105.523 12.0236 105.668 11.8022 105.765 11.5382L107.824 11.7697C107.694 12.314 107.446 12.7892 107.081 13.1953C106.719 13.5974 106.256 13.9102 105.692 14.1336C105.127 14.3529 104.482 14.4626 103.754 14.4626Z" fill="#FBFBFB"/>
</g>
<defs>
<clipPath id="clip0_836_2456">
<rect width="109" height="18" fill="white" transform="translate(0 0.279785)"/>
</clipPath>
<clipPath id="clip1_836_2456">
<rect width="18" height="18" fill="white" transform="translate(0 0.279785)"/>
</clipPath>
<clipPath id="clip2_836_2456">
<rect width="18" height="18" fill="white" transform="translate(0 0.279785)"/>
</clipPath>
</defs>
</svg>
