<svg width="19" height="19" viewBox="0 0 19 19" fill="none" xmlns="http://www.w3.org/2000/svg">
<g clip-path="url(#clip0_836_2553)">
<path d="M13.2112 3.60183C12.1512 2.96383 10.9362 2.63083 9.69922 2.63983C8.46222 2.63083 7.24622 2.96383 6.18622 3.60183C5.12322 4.23483 4.24522 5.13483 3.64022 6.21283C3.01022 7.31383 2.69922 8.51383 2.69922 9.81583C2.69922 11.3778 3.14422 12.7848 4.03422 14.0328C4.92422 15.2798 6.07322 16.1458 7.48322 16.6238C7.64822 16.6558 7.77022 16.6338 7.84722 16.5588C7.92522 16.4868 7.96922 16.3848 7.96622 16.2788L7.96222 15.7738C7.95922 15.4558 7.95722 15.1788 7.95722 14.9418L7.74822 14.9788C7.58122 15.0058 7.41122 15.0168 7.24222 15.0108C7.02922 15.0078 6.81722 14.9858 6.60822 14.9458C6.38622 14.9028 6.17722 14.8068 6.00022 14.6658C5.81222 14.5188 5.67222 14.3188 5.59922 14.0918L5.50822 13.8758C5.43122 13.7058 5.33522 13.5468 5.22122 13.4008C5.08922 13.2258 4.95822 13.1068 4.82422 13.0438L4.76022 12.9978C4.71722 12.9648 4.67722 12.9278 4.64122 12.8868C4.60822 12.8478 4.58122 12.8028 4.56122 12.7558C4.54322 12.7108 4.55722 12.6758 4.60522 12.6478C4.65422 12.6178 4.74222 12.6058 4.86922 12.6058L5.05322 12.6338C5.17322 12.6588 5.32422 12.7328 5.50322 12.8568C5.68322 12.9818 5.83022 13.1438 5.94422 13.3438C6.08422 13.5978 6.25322 13.7928 6.45122 13.9268C6.64822 14.0608 6.84722 14.1288 7.04922 14.1288C7.24722 14.1288 7.42122 14.1118 7.56722 14.0808C7.71322 14.0508 7.85022 14.0028 7.97722 13.9408C8.03322 13.5238 8.18122 13.2028 8.42322 12.9788C8.10822 12.9468 7.79722 12.8898 7.49022 12.8098C7.19022 12.7258 6.90222 12.6028 6.63422 12.4448C6.35022 12.2878 6.10022 12.0748 5.90022 11.8188C5.70622 11.5718 5.54622 11.2438 5.42222 10.8408C5.29122 10.3848 5.22922 9.91283 5.23622 9.43883C5.23622 8.68583 5.47522 8.04383 5.95622 7.51383C5.73122 6.94683 5.75122 6.31183 6.02022 5.60683C6.19522 5.55183 6.45622 5.59283 6.80322 5.73283C7.14922 5.87283 7.40222 5.99283 7.56422 6.09183C7.72522 6.19183 7.85422 6.27583 7.95122 6.34583C8.52022 6.18483 9.10822 6.10383 9.69922 6.10483C10.3012 6.10483 10.8842 6.18583 11.4492 6.34783L11.7952 6.12283C12.0322 5.97483 12.3122 5.83783 12.6342 5.71183C12.9572 5.58783 13.2032 5.55483 13.3742 5.60983C13.6472 6.31383 13.6712 6.94783 13.4462 7.51683C13.9262 8.04583 14.1662 8.68683 14.1662 9.43983C14.1662 9.96983 14.1042 10.4378 13.9792 10.8458C13.8552 11.2548 13.6942 11.5828 13.4952 11.8288C13.2912 12.0808 13.0412 12.2918 12.7582 12.4498C12.4642 12.6178 12.1772 12.7388 11.9022 12.8138C11.6252 12.8888 11.3152 12.9458 10.9672 12.9808C11.2832 13.2608 11.4412 13.7028 11.4412 14.3078V16.2798C11.4382 16.3848 11.4792 16.4868 11.5552 16.5598C11.6312 16.6348 11.7512 16.6558 11.9152 16.6248C13.3262 16.1438 14.4752 15.2808 15.3642 14.0308C16.2532 12.7848 16.6992 11.3778 16.6992 9.81483C16.7092 8.55283 16.3852 7.31083 15.7602 6.21383C15.1542 5.13583 14.2762 4.23583 13.2142 3.60283H13.2122L13.2112 3.60183Z" fill="#9B9CA1"/>
</g>
<defs>
<clipPath id="clip0_836_2553">
<rect width="18" height="18" fill="white" transform="translate(0.699219 0.639648)"/>
</clipPath>
</defs>
</svg>
