<svg width="164" height="49" viewBox="0 0 164 49" fill="none" xmlns="http://www.w3.org/2000/svg">
<rect y="0.969727" width="164" height="48" rx="24" fill="#FBFBFB"/>
<g clip-path="url(#clip0_836_2407)">
<g clip-path="url(#clip1_836_2407)">
<path d="M19.7968 34.9697C19.4918 34.8137 19.3398 34.4237 19.3398 34.0337V16.4877C19.3398 16.1757 19.4158 15.9417 19.4918 15.6297C19.5678 15.4737 19.7208 15.3177 19.8728 15.1617C23.1478 18.5147 26.3468 21.8687 29.5448 25.2217C26.2698 28.3417 23.0718 31.6167 19.7968 34.9697ZM32.7698 21.7547C31.8558 22.6907 30.8658 23.6257 29.9518 24.6397C26.9058 21.4427 23.7828 18.2447 20.7368 15.0477C20.7368 15.0477 20.7368 14.9697 20.8128 14.9697C24.7728 17.2317 28.7328 19.4927 32.7698 21.7547ZM20.7368 34.9337C23.7828 31.8137 26.9058 28.6947 29.9518 25.5757C30.7898 26.4337 31.7038 27.2917 32.6938 28.2267C28.7338 30.4887 24.7738 32.7507 20.8138 34.9337H20.7368ZM33.2268 27.9147C32.2368 26.9797 31.3228 26.0437 30.3328 25.1077L33.3028 22.0667C33.6078 22.2227 33.9128 22.3787 34.2178 22.6127C34.9788 23.0797 35.8168 23.4697 36.5778 23.9377C36.8068 24.0157 36.9588 24.1717 37.1118 24.4057C37.4158 24.7957 37.4158 25.1857 37.1118 25.5757C36.9588 25.7317 36.8068 25.8877 36.5778 25.9657C35.5118 26.6677 34.3698 27.2917 33.2278 27.9157L33.2268 27.9147Z" fill="#0F0F0F"/>
</g>
</g>
<path d="M52.0898 37.1857C50.9018 37.1857 49.8638 36.9157 48.9758 36.3757C48.0878 35.8357 47.3978 35.0797 46.9058 34.1077C46.4138 33.1357 46.1678 32.0017 46.1678 30.7057C46.1678 29.4217 46.4198 28.2877 46.9238 27.3037C47.4278 26.3197 48.1418 25.5517 49.0658 24.9997C50.0018 24.4357 51.1058 24.1537 52.3778 24.1537C53.8178 24.1537 55.0178 24.5017 55.9778 25.1977C56.9378 25.8937 57.5618 26.8537 57.8498 28.0777H55.6898C55.4978 27.4057 55.1198 26.8777 54.5558 26.4937C53.9918 26.1097 53.2658 25.9177 52.3778 25.9177C51.0578 25.9177 50.0198 26.3437 49.2638 27.1957C48.5078 28.0477 48.1298 29.2237 48.1298 30.7237C48.1298 32.2237 48.5018 33.3937 49.2458 34.2337C49.9898 35.0737 50.9798 35.4937 52.2158 35.4937C53.4638 35.4937 54.3998 35.1397 55.0238 34.4317C55.6598 33.7237 56.0318 32.7817 56.1398 31.6057H52.7198V30.1297H58.0658V36.9697H56.3198L56.1578 35.1157C55.7378 35.7757 55.2098 36.2857 54.5738 36.6457C53.9378 37.0057 53.1098 37.1857 52.0898 37.1857ZM64.4855 37.1857C63.6335 37.1857 62.8655 36.9937 62.1815 36.6097C61.5095 36.2137 60.9755 35.6677 60.5795 34.9717C60.1835 34.2637 59.9855 33.4417 59.9855 32.5057C59.9855 31.5697 60.1835 30.7537 60.5795 30.0577C60.9875 29.3497 61.5335 28.8037 62.2175 28.4197C62.9015 28.0237 63.6635 27.8257 64.5035 27.8257C65.3555 27.8257 66.1175 28.0237 66.7895 28.4197C67.4735 28.8037 68.0135 29.3497 68.4095 30.0577C68.8175 30.7537 69.0215 31.5697 69.0215 32.5057C69.0215 33.4417 68.8175 34.2637 68.4095 34.9717C68.0135 35.6677 67.4735 36.2137 66.7895 36.6097C66.1055 36.9937 65.3375 37.1857 64.4855 37.1857ZM64.4855 35.5477C64.9415 35.5477 65.3615 35.4337 65.7455 35.2057C66.1415 34.9777 66.4595 34.6417 66.6995 34.1977C66.9395 33.7417 67.0595 33.1777 67.0595 32.5057C67.0595 31.8337 66.9395 31.2757 66.6995 30.8317C66.4715 30.3757 66.1595 30.0337 65.7635 29.8057C65.3795 29.5777 64.9595 29.4637 64.5035 29.4637C64.0475 29.4637 63.6215 29.5777 63.2255 29.8057C62.8415 30.0337 62.5295 30.3757 62.2895 30.8317C62.0495 31.2757 61.9295 31.8337 61.9295 32.5057C61.9295 33.1777 62.0495 33.7417 62.2895 34.1977C62.5295 34.6417 62.8415 34.9777 63.2255 35.2057C63.6095 35.4337 64.0295 35.5477 64.4855 35.5477ZM75.2609 37.1857C74.4089 37.1857 73.6409 36.9937 72.9569 36.6097C72.2849 36.2137 71.7509 35.6677 71.3549 34.9717C70.9589 34.2637 70.7609 33.4417 70.7609 32.5057C70.7609 31.5697 70.9589 30.7537 71.3549 30.0577C71.7629 29.3497 72.3089 28.8037 72.9929 28.4197C73.6769 28.0237 74.4389 27.8257 75.2789 27.8257C76.1309 27.8257 76.8929 28.0237 77.5649 28.4197C78.2489 28.8037 78.7889 29.3497 79.1849 30.0577C79.5929 30.7537 79.7969 31.5697 79.7969 32.5057C79.7969 33.4417 79.5929 34.2637 79.1849 34.9717C78.7889 35.6677 78.2489 36.2137 77.5649 36.6097C76.8809 36.9937 76.1129 37.1857 75.2609 37.1857ZM75.2609 35.5477C75.7169 35.5477 76.1369 35.4337 76.5209 35.2057C76.9169 34.9777 77.2349 34.6417 77.4749 34.1977C77.7149 33.7417 77.8349 33.1777 77.8349 32.5057C77.8349 31.8337 77.7149 31.2757 77.4749 30.8317C77.2469 30.3757 76.9349 30.0337 76.5389 29.8057C76.1549 29.5777 75.7349 29.4637 75.2789 29.4637C74.8229 29.4637 74.3969 29.5777 74.0009 29.8057C73.6169 30.0337 73.3049 30.3757 73.0649 30.8317C72.8249 31.2757 72.7049 31.8337 72.7049 32.5057C72.7049 33.1777 72.8249 33.7417 73.0649 34.1977C73.3049 34.6417 73.6169 34.9777 74.0009 35.2057C74.3849 35.4337 74.8049 35.5477 75.2609 35.5477ZM85.0397 34.2337C84.5717 34.2337 84.1397 34.1797 83.7437 34.0717L82.9697 34.8277C83.1017 34.9117 83.2637 34.9837 83.4557 35.0437C83.6477 35.1037 83.9177 35.1577 84.2657 35.2057C84.6137 35.2537 85.0877 35.3017 85.6877 35.3497C86.8757 35.4577 87.7337 35.7457 88.2617 36.2137C88.7897 36.6697 89.0537 37.2817 89.0537 38.0497C89.0537 38.5777 88.9097 39.0757 88.6217 39.5437C88.3457 40.0237 87.9077 40.4077 87.3077 40.6957C86.7197 40.9957 85.9637 41.1457 85.0397 41.1457C83.7917 41.1457 82.7777 40.9057 81.9977 40.4257C81.2297 39.9577 80.8457 39.2437 80.8457 38.2837C80.8457 37.9117 80.9417 37.5397 81.1337 37.1677C81.3377 36.8077 81.6557 36.4657 82.0877 36.1417C81.8357 36.0337 81.6137 35.9197 81.4217 35.7997C81.2417 35.6677 81.0797 35.5357 80.9357 35.4037V34.9717L82.4837 33.3877C81.7877 32.7877 81.4397 32.0017 81.4397 31.0297C81.4397 30.4417 81.5777 29.9077 81.8537 29.4277C82.1417 28.9357 82.5557 28.5457 83.0957 28.2577C83.6357 27.9697 84.2837 27.8257 85.0397 27.8257C85.5437 27.8257 86.0117 27.8977 86.4437 28.0417H89.7737V29.3017L88.1897 29.3917C88.4777 29.8837 88.6217 30.4297 88.6217 31.0297C88.6217 31.6297 88.4777 32.1697 88.1897 32.6497C87.9137 33.1297 87.5057 33.5137 86.9657 33.8017C86.4377 34.0897 85.7957 34.2337 85.0397 34.2337ZM85.0397 32.7397C85.5917 32.7397 86.0357 32.5957 86.3717 32.3077C86.7197 32.0077 86.8937 31.5877 86.8937 31.0477C86.8937 30.4957 86.7197 30.0757 86.3717 29.7877C86.0357 29.4997 85.5917 29.3557 85.0397 29.3557C84.4757 29.3557 84.0197 29.4997 83.6717 29.7877C83.3357 30.0757 83.1677 30.4957 83.1677 31.0477C83.1677 31.5877 83.3357 32.0077 83.6717 32.3077C84.0197 32.5957 84.4757 32.7397 85.0397 32.7397ZM82.6457 38.1037C82.6457 38.6197 82.8737 39.0037 83.3297 39.2557C83.7857 39.5197 84.3557 39.6517 85.0397 39.6517C85.6997 39.6517 86.2337 39.5077 86.6417 39.2197C87.0497 38.9437 87.2537 38.5717 87.2537 38.1037C87.2537 37.7557 87.1157 37.4557 86.8397 37.2037C86.5637 36.9637 86.0417 36.8137 85.2737 36.7537C84.6977 36.7177 84.1877 36.6637 83.7437 36.5917C83.3237 36.8197 83.0357 37.0657 82.8797 37.3297C82.7237 37.5937 82.6457 37.8517 82.6457 38.1037ZM91.4755 36.9697V24.0097H93.3835V36.9697H91.4755ZM99.9758 37.1857C99.0998 37.1857 98.3198 36.9937 97.6358 36.6097C96.9638 36.2137 96.4358 35.6677 96.0518 34.9717C95.6678 34.2757 95.4758 33.4657 95.4758 32.5417C95.4758 31.6057 95.6618 30.7837 96.0338 30.0757C96.4178 29.3677 96.9458 28.8157 97.6178 28.4197C98.3018 28.0237 99.0938 27.8257 99.9938 27.8257C100.87 27.8257 101.632 28.0237 102.28 28.4197C102.928 28.8037 103.432 29.3197 103.792 29.9677C104.152 30.6157 104.332 31.3297 104.332 32.1097C104.332 32.2297 104.326 32.3617 104.314 32.5057C104.314 32.6377 104.308 32.7877 104.296 32.9557H97.3478C97.4078 33.8197 97.6898 34.4797 98.1938 34.9357C98.7098 35.3797 99.3038 35.6017 99.9758 35.6017C100.516 35.6017 100.966 35.4817 101.326 35.2417C101.698 34.9897 101.974 34.6537 102.154 34.2337H104.062C103.822 35.0737 103.342 35.7757 102.622 36.3397C101.914 36.9037 101.032 37.1857 99.9758 37.1857ZM99.9758 29.3917C99.3398 29.3917 98.7758 29.5837 98.2838 29.9677C97.7918 30.3397 97.4918 30.9037 97.3838 31.6597H102.424C102.388 30.9637 102.142 30.4117 101.686 30.0037C101.23 29.5957 100.66 29.3917 99.9758 29.3917ZM110.919 36.9697V24.3697H115.329C116.313 24.3697 117.129 24.5377 117.777 24.8737C118.425 25.1977 118.905 25.6477 119.217 26.2237C119.541 26.7877 119.703 27.4297 119.703 28.1497C119.703 28.8337 119.547 29.4637 119.235 30.0397C118.935 30.6037 118.461 31.0537 117.813 31.3897C117.165 31.7257 116.337 31.8937 115.329 31.8937H112.827V36.9697H110.919ZM112.827 30.3277H115.239C116.139 30.3277 116.781 30.1357 117.165 29.7517C117.561 29.3557 117.759 28.8217 117.759 28.1497C117.759 27.4537 117.561 26.9137 117.165 26.5297C116.781 26.1337 116.139 25.9357 115.239 25.9357H112.827V30.3277ZM121.517 36.9697V24.0097H123.425V36.9697H121.517ZM128.865 37.1857C128.109 37.1857 127.485 37.0597 126.993 36.8077C126.501 36.5557 126.135 36.2257 125.895 35.8177C125.655 35.3977 125.535 34.9417 125.535 34.4497C125.535 33.5857 125.871 32.9017 126.543 32.3977C127.215 31.8937 128.175 31.6417 129.423 31.6417H131.763V31.4797C131.763 30.7837 131.571 30.2617 131.187 29.9137C130.815 29.5657 130.329 29.3917 129.729 29.3917C129.201 29.3917 128.739 29.5237 128.343 29.7877C127.959 30.0397 127.725 30.4177 127.641 30.9217H125.733C125.793 30.2737 126.009 29.7217 126.381 29.2657C126.765 28.7977 127.245 28.4437 127.821 28.2037C128.409 27.9517 129.051 27.8257 129.747 27.8257C130.995 27.8257 131.961 28.1557 132.645 28.8157C133.329 29.4637 133.671 30.3517 133.671 31.4797V36.9697H132.015L131.853 35.4397C131.601 35.9317 131.235 36.3457 130.755 36.6817C130.275 37.0177 129.645 37.1857 128.865 37.1857ZM129.243 35.6377C129.759 35.6377 130.191 35.5177 130.539 35.2777C130.899 35.0257 131.175 34.6957 131.367 34.2877C131.571 33.8797 131.697 33.4297 131.745 32.9377H129.621C128.865 32.9377 128.325 33.0697 128.001 33.3337C127.689 33.5977 127.533 33.9277 127.533 34.3237C127.533 34.7317 127.683 35.0557 127.983 35.2957C128.295 35.5237 128.715 35.6377 129.243 35.6377ZM136.658 40.9297L138.8 36.2317H138.278L134.75 28.0417H136.82L139.556 34.6477L142.418 28.0417H144.434L138.674 40.9297H136.658Z" fill="#0F0F0F"/>
<path d="M49.0898 19.0897C48.4298 19.0897 47.8532 18.9397 47.3598 18.6397C46.8665 18.3397 46.4832 17.9197 46.2098 17.3797C45.9365 16.8397 45.7998 16.2097 45.7998 15.4897C45.7998 14.7764 45.9398 14.1464 46.2198 13.5997C46.4998 13.0531 46.8965 12.6264 47.4098 12.3197C47.9298 12.0064 48.5432 11.8497 49.2498 11.8497C50.0498 11.8497 50.7165 12.0431 51.2498 12.4297C51.7832 12.8164 52.1298 13.3497 52.2898 14.0297H51.0898C50.9832 13.6564 50.7732 13.3631 50.4598 13.1497C50.1465 12.9364 49.7432 12.8297 49.2498 12.8297C48.5165 12.8297 47.9398 13.0664 47.5198 13.5397C47.0998 14.0131 46.8898 14.6664 46.8898 15.4997C46.8898 16.3331 47.0965 16.9831 47.5098 17.4497C47.9232 17.9164 48.4732 18.1497 49.1598 18.1497C49.8532 18.1497 50.3732 17.9531 50.7198 17.5597C51.0732 17.1664 51.2798 16.6431 51.3398 15.9897H49.4398V15.1697H52.4098V18.9697H51.4398L51.3498 17.9397C51.1165 18.3064 50.8232 18.5897 50.4698 18.7897C50.1165 18.9897 49.6565 19.0897 49.0898 19.0897ZM55.9763 19.0897C55.4897 19.0897 55.0563 18.9831 54.6763 18.7697C54.303 18.5497 54.0097 18.2464 53.7963 17.8597C53.583 17.4731 53.4763 17.0231 53.4763 16.5097C53.4763 15.9897 53.5797 15.5331 53.7863 15.1397C53.9997 14.7464 54.293 14.4397 54.6663 14.2197C55.0463 13.9997 55.4863 13.8897 55.9863 13.8897C56.473 13.8897 56.8963 13.9997 57.2563 14.2197C57.6163 14.4331 57.8963 14.7197 58.0963 15.0797C58.2963 15.4397 58.3963 15.8364 58.3963 16.2697C58.3963 16.3364 58.393 16.4097 58.3863 16.4897C58.3863 16.5631 58.383 16.6464 58.3763 16.7397H54.5163C54.5497 17.2197 54.7063 17.5864 54.9863 17.8397C55.273 18.0864 55.603 18.2097 55.9763 18.2097C56.2763 18.2097 56.5263 18.1431 56.7263 18.0097C56.933 17.8697 57.0863 17.6831 57.1863 17.4497H58.2463C58.113 17.9164 57.8463 18.3064 57.4463 18.6197C57.053 18.9331 56.563 19.0897 55.9763 19.0897ZM55.9763 14.7597C55.623 14.7597 55.3097 14.8664 55.0363 15.0797C54.763 15.2864 54.5963 15.5997 54.5363 16.0197H57.3363C57.3163 15.6331 57.1797 15.3264 56.9263 15.0997C56.673 14.8731 56.3563 14.7597 55.9763 14.7597ZM61.4492 18.9697C60.9626 18.9697 60.5759 18.8531 60.2892 18.6197C60.0026 18.3797 59.8592 17.9564 59.8592 17.3497V14.8997H59.0092V14.0097H59.8592L59.9892 12.7497H60.9192V14.0097H62.3192V14.8997H60.9192V17.3497C60.9192 17.6231 60.9759 17.8131 61.0892 17.9197C61.2092 18.0197 61.4126 18.0697 61.6992 18.0697H62.2692V18.9697H61.4492ZM66.5317 13.0697C66.3317 13.0697 66.1651 13.0097 66.0317 12.8897C65.9051 12.7631 65.8417 12.6064 65.8417 12.4197C65.8417 12.2331 65.9051 12.0797 66.0317 11.9597C66.1651 11.8331 66.3317 11.7697 66.5317 11.7697C66.7317 11.7697 66.8951 11.8331 67.0217 11.9597C67.1551 12.0797 67.2217 12.2331 67.2217 12.4197C67.2217 12.6064 67.1551 12.7631 67.0217 12.8897C66.8951 13.0097 66.7317 13.0697 66.5317 13.0697ZM66.0017 18.9697V14.0097H67.0617V18.9697H66.0017ZM70.541 18.9697C70.0543 18.9697 69.6677 18.8531 69.381 18.6197C69.0943 18.3797 68.951 17.9564 68.951 17.3497V14.8997H68.101V14.0097H68.951L69.081 12.7497H70.011V14.0097H71.411V14.8997H70.011V17.3497C70.011 17.6231 70.0677 17.8131 70.181 17.9197C70.301 18.0197 70.5043 18.0697 70.791 18.0697H71.361V18.9697H70.541ZM77.3435 19.0897C76.8702 19.0897 76.4435 18.9831 76.0635 18.7697C75.6902 18.5497 75.3935 18.2464 75.1735 17.8597C74.9535 17.4664 74.8435 17.0097 74.8435 16.4897C74.8435 15.9697 74.9535 15.5164 75.1735 15.1297C75.4002 14.7364 75.7035 14.4331 76.0835 14.2197C76.4635 13.9997 76.8868 13.8897 77.3535 13.8897C77.8268 13.8897 78.2502 13.9997 78.6235 14.2197C79.0035 14.4331 79.3035 14.7364 79.5235 15.1297C79.7502 15.5164 79.8635 15.9697 79.8635 16.4897C79.8635 17.0097 79.7502 17.4664 79.5235 17.8597C79.3035 18.2464 79.0035 18.5497 78.6235 18.7697C78.2435 18.9831 77.8168 19.0897 77.3435 19.0897ZM77.3435 18.1797C77.5968 18.1797 77.8302 18.1164 78.0435 17.9897C78.2635 17.8631 78.4402 17.6764 78.5735 17.4297C78.7068 17.1764 78.7735 16.8631 78.7735 16.4897C78.7735 16.1164 78.7068 15.8064 78.5735 15.5597C78.4468 15.3064 78.2735 15.1164 78.0535 14.9897C77.8402 14.8631 77.6068 14.7997 77.3535 14.7997C77.1002 14.7997 76.8635 14.8631 76.6435 14.9897C76.4302 15.1164 76.2568 15.3064 76.1235 15.5597C75.9902 15.8064 75.9235 16.1164 75.9235 16.4897C75.9235 16.8631 75.9902 17.1764 76.1235 17.4297C76.2568 17.6764 76.4302 17.8631 76.6435 17.9897C76.8568 18.1164 77.0902 18.1797 77.3435 18.1797ZM81.0098 18.9697V14.0097H81.9498L82.0298 14.8797C82.1832 14.5731 82.4065 14.3331 82.6998 14.1597C82.9998 13.9797 83.3432 13.8897 83.7298 13.8897C84.3298 13.8897 84.7998 14.0764 85.1398 14.4497C85.4865 14.8231 85.6598 15.3797 85.6598 16.1197V18.9697H84.6098V16.2297C84.6098 15.2697 84.2165 14.7897 83.4298 14.7897C83.0365 14.7897 82.7098 14.9297 82.4498 15.2097C82.1965 15.4897 82.0698 15.8897 82.0698 16.4097V18.9697H81.0098Z" fill="#0F0F0F"/>
<defs>
<clipPath id="clip0_836_2407">
<rect width="18" height="20" fill="white" transform="translate(19.3398 14.9697)"/>
</clipPath>
<clipPath id="clip1_836_2407">
<rect width="18" height="20" fill="white" transform="translate(19.3398 14.9697)"/>
</clipPath>
</defs>
</svg>
