<svg width="64" height="26" viewBox="0 0 64 26" fill="none" xmlns="http://www.w3.org/2000/svg">
<g clip-path="url(#clip0_836_2500)">
<rect x="0.919922" y="0.879883" width="62.27" height="24.8" rx="12.4" fill="#112220"/>
<path d="M13.9139 17.8799V8.07988H15.3979V12.2799H20.1439V8.07988H21.6279V17.8799H20.1439V13.4979H15.3979V17.8799H13.9139ZM24.405 9.61988C24.125 9.61988 23.8916 9.53588 23.705 9.36788C23.5276 9.19055 23.439 8.97122 23.439 8.70988C23.439 8.44855 23.5276 8.23388 23.705 8.06588C23.8916 7.88855 24.125 7.79988 24.405 7.79988C24.685 7.79988 24.9136 7.88855 25.091 8.06588C25.2776 8.23388 25.371 8.44855 25.371 8.70988C25.371 8.97122 25.2776 9.19055 25.091 9.36788C24.9136 9.53588 24.685 9.61988 24.405 9.61988ZM23.663 17.8799V10.9359H25.147V17.8799H23.663ZM27.106 17.8799V10.9359H28.436L28.562 12.2519C28.8046 11.7945 29.1406 11.4352 29.57 11.1739C30.0086 10.9032 30.536 10.7679 31.152 10.7679V12.3219H30.746C30.3353 12.3219 29.9666 12.3919 29.64 12.5319C29.3226 12.6625 29.066 12.8912 28.87 13.2179C28.6833 13.5352 28.59 13.9785 28.59 14.5479V17.8799H27.106ZM33.2643 9.61988C32.9843 9.61988 32.751 9.53588 32.5643 9.36788C32.387 9.19055 32.2983 8.97122 32.2983 8.70988C32.2983 8.44855 32.387 8.23388 32.5643 8.06588C32.751 7.88855 32.9843 7.79988 33.2643 7.79988C33.5443 7.79988 33.773 7.88855 33.9503 8.06588C34.137 8.23388 34.2303 8.44855 34.2303 8.70988C34.2303 8.97122 34.137 9.19055 33.9503 9.36788C33.773 9.53588 33.5443 9.61988 33.2643 9.61988ZM32.5223 17.8799V10.9359H34.0063V17.8799H32.5223ZM35.9653 17.8799V10.9359H37.2813L37.3933 12.1539C37.608 11.7245 37.9207 11.3885 38.3313 11.1459C38.7513 10.8939 39.232 10.7679 39.7733 10.7679C40.6133 10.7679 41.2713 11.0292 41.7473 11.5519C42.2327 12.0745 42.4753 12.8539 42.4753 13.8899V17.8799H41.0053V14.0439C41.0053 12.6999 40.4547 12.0279 39.3533 12.0279C38.8027 12.0279 38.3453 12.2239 37.9813 12.6159C37.6267 13.0079 37.4493 13.5679 37.4493 14.2959V17.8799H35.9653ZM47.0652 15.7519C46.7012 15.7519 46.3652 15.7099 46.0572 15.6259L45.4552 16.2139C45.5578 16.2792 45.6838 16.3352 45.8332 16.3819C45.9825 16.4285 46.1925 16.4705 46.4632 16.5079C46.7338 16.5452 47.1025 16.5825 47.5692 16.6199C48.4932 16.7039 49.1605 16.9279 49.5712 17.2919C49.9818 17.6465 50.1872 18.1225 50.1872 18.7199C50.1872 19.1305 50.0752 19.5179 49.8512 19.8819C49.6365 20.2552 49.2958 20.5539 48.8292 20.7779C48.3718 21.0112 47.7838 21.1279 47.0652 21.1279C46.0945 21.1279 45.3058 20.9412 44.6992 20.5679C44.1018 20.2039 43.8032 19.6485 43.8032 18.9019C43.8032 18.6125 43.8778 18.3232 44.0272 18.0339C44.1858 17.7539 44.4332 17.4879 44.7692 17.2359C44.5732 17.1519 44.4005 17.0632 44.2512 16.9699C44.1112 16.8672 43.9852 16.7645 43.8732 16.6619V16.3259L45.0772 15.0939C44.5358 14.6272 44.2652 14.0159 44.2652 13.2599C44.2652 12.8025 44.3725 12.3872 44.5872 12.0139C44.8112 11.6312 45.1332 11.3279 45.5532 11.1039C45.9732 10.8799 46.4772 10.7679 47.0652 10.7679C47.4572 10.7679 47.8212 10.8239 48.1572 10.9359H50.7472V11.9159L49.5152 11.9859C49.7392 12.3685 49.8512 12.7932 49.8512 13.2599C49.8512 13.7265 49.7392 14.1465 49.5152 14.5199C49.3005 14.8932 48.9832 15.1919 48.5632 15.4159C48.1525 15.6399 47.6532 15.7519 47.0652 15.7519ZM47.0652 14.5899C47.4945 14.5899 47.8398 14.4779 48.1012 14.2539C48.3718 14.0205 48.5072 13.6939 48.5072 13.2739C48.5072 12.8445 48.3718 12.5179 48.1012 12.2939C47.8398 12.0699 47.4945 11.9579 47.0652 11.9579C46.6265 11.9579 46.2718 12.0699 46.0012 12.2939C45.7398 12.5179 45.6092 12.8445 45.6092 13.2739C45.6092 13.6939 45.7398 14.0205 46.0012 14.2539C46.2718 14.4779 46.6265 14.5899 47.0652 14.5899ZM45.2032 18.7619C45.2032 19.1632 45.3805 19.4619 45.7352 19.6579C46.0898 19.8632 46.5332 19.9659 47.0652 19.9659C47.5785 19.9659 47.9938 19.8539 48.3112 19.6299C48.6285 19.4152 48.7872 19.1259 48.7872 18.7619C48.7872 18.4912 48.6798 18.2579 48.4652 18.0619C48.2505 17.8752 47.8445 17.7585 47.2472 17.7119C46.7992 17.6839 46.4025 17.6419 46.0572 17.5859C45.7305 17.7632 45.5065 17.9545 45.3852 18.1599C45.2638 18.3652 45.2032 18.5659 45.2032 18.7619Z" fill="#33C6AB"/>
<rect x="1.41992" y="1.37988" width="61.27" height="23.8" rx="11.9" stroke="#236456"/>
</g>
<defs>
<clipPath id="clip0_836_2500">
<rect x="0.919922" y="0.879883" width="62.27" height="24.8" rx="12.4" fill="white"/>
</clipPath>
</defs>
</svg>
