<svg width="19" height="19" viewBox="0 0 19 19" fill="none" xmlns="http://www.w3.org/2000/svg">
<g clip-path="url(#clip0_836_2545)">
<path d="M12.5792 2.63965C16.3992 2.63965 16.6992 2.93965 16.6992 6.75965V12.5196C16.6992 16.3396 16.3992 16.6396 12.5792 16.6396H6.81922C2.99922 16.6396 2.69922 16.3396 2.69922 12.5196V6.75965C2.69922 2.93965 2.99922 2.63965 6.81922 2.63965H12.5792ZM7.25922 13.4896V7.79465H5.48922V13.4896H7.25922ZM6.37422 6.97965C6.51252 6.98382 6.65024 6.96016 6.77922 6.91008C6.9082 6.86001 7.0258 6.78453 7.12505 6.68813C7.2243 6.59173 7.30318 6.47638 7.35699 6.34892C7.41081 6.22145 7.43847 6.08448 7.43834 5.94612C7.43821 5.80776 7.41028 5.67084 7.35621 5.54348C7.30215 5.41612 7.22305 5.30092 7.12362 5.20471C7.02418 5.10851 6.90643 5.03326 6.77735 4.98343C6.64828 4.9336 6.51051 4.91021 6.37222 4.91465C6.23656 4.91478 6.10226 4.94163 5.97698 4.99366C5.8517 5.0457 5.7379 5.1219 5.64207 5.21791C5.44853 5.41183 5.33995 5.67468 5.34022 5.94865C5.34048 6.22262 5.44957 6.48526 5.64348 6.6788C5.8374 6.87233 6.10025 6.97991 6.37422 6.97965ZM13.8992 13.4896V10.3656C13.8992 8.83265 13.5682 7.65265 11.7752 7.65265C10.9152 7.65265 10.3372 8.12465 10.1012 8.57265H10.0772V7.79465H8.37922V13.4896H10.1482V10.6726C10.1482 9.92965 10.2902 9.20965 11.2112 9.20965C12.1182 9.20965 12.1312 10.0596 12.1312 10.7196V13.4896H13.8992Z" fill="#9B9CA1"/>
</g>
<defs>
<clipPath id="clip0_836_2545">
<rect width="18" height="18" fill="white" transform="translate(0.699219 0.639648)"/>
</clipPath>
</defs>
</svg>
