<svg width="40" height="51" viewBox="0 0 40 51" fill="none" xmlns="http://www.w3.org/2000/svg">
<path d="M2.00253 15.9873L13.6681 15.9873C8.73903 20.2614 8.43173 27.8056 12.9968 32.4665L13.6681 33.1518H1.93896L1.08073 31.1175L0.445006 28.7971C0.149039 27.2961 0 25.7699 0 24.24V23.8702L0.190717 21.6452L0.255278 21.3224C0.529671 19.9504 0.911963 18.6023 1.39859 17.2905L2.00253 15.9873Z" fill="url(#paint0_linear_339_7)"/>
<path d="M16.56 43.5774L13.8899 43.0052L10.5206 41.6703C16.5415 41.0781 21.8188 37.3915 24.4465 31.942L24.9514 30.8948L37.1573 30.8947L36.4316 32.6318C35.63 34.5505 34.4744 36.3012 33.0252 37.7924L30.7366 39.8585L28.4629 41.4028C27.4373 41.9194 26.3734 42.3559 25.2805 42.7084L24.9514 42.8146L23.7856 43.1041C21.4244 43.6904 18.9775 43.8507 16.56 43.5774Z" fill="url(#paint1_linear_339_7)"/>
<path d="M15.5747 5.71521L12.8411 6.4513L10.6478 7.43667L11.2576 7.52091C17.4257 8.37296 22.6641 12.4654 24.9834 18.244L37.2211 18.244L36.3273 16.3612C35.9277 15.5196 35.4677 14.708 34.9509 13.9328L34.9199 13.8863C33.8538 12.2871 32.5503 10.8596 31.0544 9.6528L31.0062 9.61384C30.0239 8.82143 28.9624 8.13256 27.8387 7.55819C27.0593 7.15983 26.2523 6.8178 25.4241 6.53473L24.157 6.10166L23.8732 6.02728C21.8932 5.50825 19.8413 5.3186 17.7997 5.46593L15.5747 5.71521Z" fill="url(#paint2_linear_339_7)"/>
<defs>
<linearGradient id="paint0_linear_339_7" x1="28.8936" y1="7.66057" x2="10.0259" y2="42.7589" gradientUnits="userSpaceOnUse">
<stop stop-color="#02A854"/>
<stop offset="1" stop-color="#002A14"/>
</linearGradient>
<linearGradient id="paint1_linear_339_7" x1="28.6387" y1="8.16897" x2="1.02555" y2="30.7194" gradientUnits="userSpaceOnUse">
<stop stop-color="#02A854"/>
<stop offset="1" stop-color="#002A14"/>
</linearGradient>
<linearGradient id="paint2_linear_339_7" x1="28.3845" y1="7.40618" x2="33.4616" y2="40.9776" gradientUnits="userSpaceOnUse">
<stop stop-color="#02A854"/>
<stop offset="1" stop-color="#002A14"/>
</linearGradient>
</defs>
</svg>
