<svg width="21" height="21" viewBox="0 0 21 21" fill="none" xmlns="http://www.w3.org/2000/svg">
<path d="M15.2061 7.47408C15.311 7.5786 15.3942 7.70279 15.451 7.83954C15.5078 7.97628 15.537 8.12289 15.537 8.27096C15.537 8.41902 15.5078 8.56563 15.451 8.70238C15.3942 8.83912 15.311 8.96332 15.2061 9.06783L9.9561 14.3178C9.85158 14.4227 9.72739 14.5059 9.59064 14.5627C9.4539 14.6195 9.30729 14.6487 9.15922 14.6487C9.01116 14.6487 8.86455 14.6195 8.7278 14.5627C8.59106 14.5059 8.46686 14.4227 8.36235 14.3178L6.11235 12.0678C6.0077 11.9632 5.92469 11.839 5.86806 11.7022C5.81142 11.5655 5.78227 11.419 5.78227 11.271C5.78227 11.123 5.81142 10.9764 5.86806 10.8397C5.92469 10.703 6.0077 10.5787 6.11235 10.4741C6.217 10.3694 6.34123 10.2864 6.47796 10.2298C6.61469 10.1732 6.76123 10.144 6.90922 10.144C7.05722 10.144 7.20376 10.1732 7.34049 10.2298C7.47722 10.2864 7.60145 10.3694 7.7061 10.4741L9.16016 11.9263L13.6142 7.47127C13.7189 7.36686 13.8431 7.2841 13.9798 7.22772C14.1165 7.17135 14.2629 7.14247 14.4107 7.14273C14.5586 7.14299 14.7049 7.17239 14.8414 7.22924C14.9779 7.2861 15.1018 7.3693 15.2061 7.47408ZM20.7852 10.52C20.7852 12.5226 20.1913 14.4801 19.0788 16.1452C17.9662 17.8102 16.3849 19.108 14.5348 19.8743C12.6847 20.6406 10.6489 20.8411 8.68487 20.4505C6.72081 20.0598 4.91671 19.0955 3.5007 17.6795C2.0847 16.2635 1.12039 14.4594 0.72971 12.4953C0.339034 10.5313 0.539543 8.49545 1.30588 6.64535C2.07222 4.79525 3.36996 3.21394 5.03501 2.10139C6.70006 0.98884 8.65763 0.39502 10.6602 0.39502C13.3446 0.397997 15.9182 1.46569 17.8163 3.36385C19.7145 5.26201 20.7822 7.83562 20.7852 10.52ZM18.5352 10.52C18.5352 8.96249 18.0733 7.43994 17.208 6.1449C16.3427 4.84987 15.1128 3.84051 13.6738 3.24447C12.2348 2.64843 10.6514 2.49248 9.12382 2.79634C7.59622 3.10019 6.19303 3.85021 5.09169 4.95155C3.99036 6.05289 3.24034 7.45608 2.93648 8.98368C2.63262 10.5113 2.78857 12.0947 3.38461 13.5337C3.98065 14.9726 4.99001 16.2025 6.28505 17.0678C7.58008 17.9332 9.10263 18.395 10.6602 18.395C12.7481 18.3928 14.7498 17.5624 16.2262 16.086C17.7025 14.6097 18.5329 12.6079 18.5352 10.52Z" fill="#E29D37"/>
</svg>
