<svg width="75" height="79" viewBox="0 0 75 79" fill="none" xmlns="http://www.w3.org/2000/svg">
<rect width="75" height="78.7219" rx="10" fill="#FFF5E4"/>
<path d="M43.62 32.0357L33.9675 42.1908L30.255 38.294C30.0533 38.0468 29.8051 37.846 29.5259 37.7043C29.2468 37.5625 28.9427 37.4829 28.6329 37.4703C28.323 37.4577 28.014 37.5125 27.7253 37.6313C27.4365 37.75 27.1743 37.9301 26.955 38.1603C26.7358 38.3904 26.5642 38.6657 26.4511 38.9687C26.338 39.2718 26.2857 39.5961 26.2977 39.9213C26.3097 40.2466 26.3856 40.5657 26.5206 40.8587C26.6557 41.1517 26.847 41.4123 27.0825 41.624L32.37 47.1975C32.5802 47.4164 32.8296 47.5895 33.1037 47.7071C33.3779 47.8246 33.6714 47.8842 33.9675 47.8824C34.5578 47.8798 35.1234 47.6338 35.5425 47.1975L46.7925 35.3892C47.0034 35.1697 47.1708 34.9085 47.285 34.6207C47.3992 34.3329 47.458 34.0242 47.458 33.7124C47.458 33.4007 47.3992 33.092 47.285 32.8042C47.1708 32.5164 47.0034 32.2552 46.7925 32.0357C46.3709 31.5958 45.8007 31.3489 45.2063 31.3489C44.6118 31.3489 44.0416 31.5958 43.62 32.0357ZM37.5 16C33.0499 16 28.6998 17.3851 24.9997 19.9801C21.2996 22.5751 18.4157 26.2635 16.7127 30.5789C15.0097 34.8943 14.5642 39.6428 15.4323 44.2239C16.3005 48.8051 18.4434 53.0132 21.5901 56.316C24.7368 59.6188 28.7459 61.8681 33.1105 62.7794C37.475 63.6906 41.999 63.2229 46.1104 61.4354C50.2217 59.648 53.7357 56.621 56.2081 52.7372C58.6804 48.8535 60 44.2875 60 39.6166C60 36.5152 59.418 33.4442 58.2873 30.5789C57.1566 27.7136 55.4992 25.1101 53.4099 22.9171L46.1104 17.7977C46.1104 17.7977 40.4547 16 37.5 16ZM37.5 58.5098C33.9399 58.5098 30.4598 57.4018 27.4997 55.3257C24.5397 53.2497 22.2326 50.299 20.8702 46.8467C19.5078 43.3944 19.1513 39.5956 19.8459 35.9307C20.5404 32.2657 22.2547 28.8993 24.7721 26.257C27.2894 23.6148 30.4967 21.8153 33.9884 21.0863C37.48 20.3573 41.0992 20.7315 44.3883 22.1615C47.6774 23.5915 50.4886 26.0131 52.4664 29.12C54.4443 32.227 55.5 35.8798 55.5 39.6166C55.5 44.6274 53.6036 49.4329 50.2279 52.9761C46.8523 56.5193 42.2739 58.5098 37.5 58.5098Z" fill="#FFAF0A"/>
</svg>
