<svg width="19" height="19" viewBox="0 0 19 19" fill="none" xmlns="http://www.w3.org/2000/svg">
<g clip-path="url(#clip0_836_2542)">
<path d="M3.97222 2.63965C3.26922 2.63965 2.69922 3.20965 2.69922 3.91265V15.3666C2.69922 16.0706 3.26922 16.6396 3.97222 16.6396H15.4262C16.1302 16.6396 16.6992 16.0696 16.6992 15.3666V3.91265C16.6992 3.20965 16.1292 2.63965 15.4262 2.63965H3.97222ZM5.65722 5.82165H8.59222L10.3042 8.26965L12.4242 5.82165H13.3472L10.7192 8.86365L13.9342 13.4576H10.9992L9.09922 10.7406L6.75222 13.4576H5.81422L8.68122 10.1456L5.65722 5.82165ZM7.07722 6.57465L11.3742 12.7006H12.5132L8.21322 6.57465H7.07722Z" fill="#9B9CA1"/>
</g>
<defs>
<clipPath id="clip0_836_2542">
<rect width="18" height="18" fill="white" transform="translate(0.699219 0.639648)"/>
</clipPath>
</defs>
</svg>
