<svg width="22" height="21" viewBox="0 0 22 21" fill="none" xmlns="http://www.w3.org/2000/svg">
<path d="M11 0.39502C8.99747 0.39502 7.0399 0.98884 5.37486 2.10139C3.70981 3.21394 2.41206 4.79525 1.64572 6.64535C0.879387 8.49545 0.678878 10.5313 1.06955 12.4953C1.46023 14.4594 2.42454 16.2635 3.84055 17.6795C5.25656 19.0955 7.06066 20.0598 9.02471 20.4505C10.9888 20.8411 13.0246 20.6406 14.8747 19.8743C16.7248 19.108 18.3061 17.8102 19.4186 16.1452C20.5312 14.4801 21.125 12.5226 21.125 10.52C21.122 7.83562 20.0543 5.26201 18.1562 3.36385C16.258 1.46569 13.6844 0.397997 11 0.39502ZM6.45969 16.9485C6.98195 16.2344 7.66528 15.6535 8.45418 15.2531C9.24308 14.8527 10.1153 14.644 11 14.644C11.8847 14.644 12.7569 14.8527 13.5458 15.2531C14.3347 15.6535 15.0181 16.2344 15.5403 16.9485C14.2134 17.8895 12.6268 18.395 11 18.395C9.37323 18.395 7.78665 17.8895 6.45969 16.9485ZM8.375 9.77002C8.375 9.25084 8.52896 8.74333 8.8174 8.31165C9.10583 7.87997 9.5158 7.54352 9.99546 7.34484C10.4751 7.14616 11.0029 7.09417 11.5121 7.19546C12.0213 7.29674 12.489 7.54675 12.8562 7.91386C13.2233 8.28098 13.4733 8.74871 13.5746 9.25791C13.6759 9.76711 13.6239 10.2949 13.4252 10.7746C13.2265 11.2542 12.8901 11.6642 12.4584 11.9526C12.0267 12.2411 11.5192 12.395 11 12.395C10.3038 12.395 9.63613 12.1185 9.14385 11.6262C8.65157 11.1339 8.375 10.4662 8.375 9.77002ZM17.1875 15.3894C16.4583 14.462 15.5289 13.7114 14.4688 13.1938C15.1444 12.5096 15.6026 11.6408 15.7858 10.6969C15.9689 9.7529 15.8688 8.77585 15.498 7.88863C15.1273 7.00142 14.5024 6.24366 13.702 5.7107C12.9017 5.17773 11.9616 4.89336 11 4.89336C10.0384 4.89336 9.09833 5.17773 8.29797 5.7107C7.49762 6.24366 6.87275 7.00142 6.50198 7.88863C6.13121 8.77585 6.0311 9.7529 6.21424 10.6969C6.39739 11.6408 6.85561 12.5096 7.53125 13.1938C6.4711 13.7114 5.54168 14.462 4.8125 15.3894C3.89661 14.2284 3.32614 12.8329 3.1664 11.3627C3.00665 9.89256 3.2641 8.40713 3.90925 7.07646C4.55441 5.7458 5.5612 4.62368 6.81439 3.83856C8.06757 3.05345 9.5165 2.63705 10.9953 2.63705C12.4741 2.63705 13.9231 3.05345 15.1762 3.83856C16.4294 4.62368 17.4362 5.7458 18.0814 7.07646C18.7265 8.40713 18.984 9.89256 18.8242 11.3627C18.6645 12.8329 18.094 14.2284 17.1781 15.3894H17.1875Z" fill="#E29D37"/>
</svg>
