<svg width="28" height="33" viewBox="0 0 28 33" fill="none" xmlns="http://www.w3.org/2000/svg">
<path d="M11 0.814941C8.99747 0.814941 7.0399 1.40876 5.37486 2.52131C3.70981 3.63386 2.41206 5.21517 1.64572 7.06527C0.879387 8.91537 0.678878 10.9512 1.06955 12.9152C1.46023 14.8793 2.42454 16.6834 3.84055 18.0994C5.25656 19.5154 7.06066 20.4797 9.02471 20.8704C10.9888 21.2611 13.0246 21.0606 14.8747 20.2942C16.7248 19.5279 18.3061 18.2301 19.4186 16.5651C20.5312 14.9 21.125 12.9425 21.125 10.9399C21.122 8.25554 20.0543 5.68193 18.1562 3.78377C16.258 1.88561 13.6844 0.817919 11 0.814941ZM11 18.8149C9.44248 18.8149 7.91993 18.3531 6.62489 17.4878C5.32985 16.6224 4.32049 15.3925 3.72445 13.9536C3.12841 12.5146 2.97246 10.9312 3.27632 9.4036C3.58018 7.876 4.3302 6.47281 5.43154 5.37148C6.53288 4.27014 7.93607 3.52012 9.46367 3.21626C10.9913 2.9124 12.5747 3.06835 14.0136 3.66439C15.4526 4.26043 16.6825 5.26979 17.5478 6.56483C18.4131 7.85986 18.875 9.38241 18.875 10.9399C18.8728 13.0278 18.0424 15.0296 16.566 16.5059C15.0896 17.9823 13.0879 18.8127 11 18.8149ZM14.75 10.9399C14.75 11.1208 14.7063 11.299 14.6228 11.4595C14.5392 11.6199 14.4182 11.7578 14.27 11.8615L10.52 14.4865C10.3514 14.6045 10.1537 14.674 9.94838 14.6874C9.74305 14.7008 9.53798 14.6576 9.35547 14.5626C9.17296 14.4676 9.02001 14.3243 8.91325 14.1484C8.8065 13.9725 8.75004 13.7707 8.75 13.5649V8.31494C8.75004 8.10918 8.8065 7.90736 8.91325 7.73146C9.02001 7.55555 9.17296 7.41229 9.35547 7.31727C9.53798 7.22224 9.74305 7.17909 9.94838 7.19251C10.1537 7.20593 10.3514 7.27541 10.52 7.39338L14.27 10.0184C14.4182 10.1221 14.5392 10.26 14.6228 10.4204C14.7063 10.5808 14.75 10.7591 14.75 10.9399Z" fill="#33ABD1"/>
</svg>
