<svg width="72" height="76" viewBox="0 0 72 76" fill="none" xmlns="http://www.w3.org/2000/svg">
<rect x="0.735352" y="0.811035" width="70.9461" height="74.4666" rx="10" fill="#F0EEFD"/>
<path d="M57.9901 33.1773C58.0867 30.2427 57.4753 27.33 56.2126 24.7098C55.3559 23.6346 54.1669 22.9091 52.8529 22.6595C47.4178 22.1419 41.9603 21.9297 36.5037 22.024C31.0669 21.9255 25.629 22.1308 20.213 22.639C19.1423 22.8435 18.1513 23.3706 17.3612 24.1562C15.6032 25.8579 15.4079 28.7693 15.2126 31.2296C14.9291 35.6532 14.9291 40.0917 15.2126 44.5153C15.2691 45.9 15.4655 47.2745 15.7985 48.6158C16.0341 49.6513 16.5106 50.6093 17.1854 51.4041C17.9809 52.2313 18.9949 52.7885 20.0958 53.0033C24.307 53.5489 28.5502 53.775 32.7924 53.6799C39.629 53.7824 45.6256 53.6799 52.7162 53.1058C53.8441 52.9042 54.8867 52.3463 55.7047 51.5066C56.2516 50.9324 56.66 50.2295 56.8962 49.4564C57.5948 47.2064 57.9379 44.8517 57.912 42.4855C57.9901 41.3374 57.9901 34.4075 57.9901 33.1773ZM32.0892 43.7157V31.0246L43.6528 37.4009C40.4103 39.2871 36.1325 41.4194 32.0892 43.7157Z" fill="#5C41EB"/>
</svg>
