<svg width="24" height="25" viewBox="0 0 24 25" fill="none" xmlns="http://www.w3.org/2000/svg">
<path d="M11.7352 15.1633C12.6775 14.3713 13.3533 13.3087 13.6711 12.1195C13.989 10.9304 13.9334 9.67227 13.5119 8.5158C13.0904 7.35933 12.3234 6.36046 11.315 5.65467C10.3066 4.94888 9.10548 4.57031 7.8746 4.57031C6.64371 4.57031 5.44261 4.94888 4.43418 5.65467C3.42575 6.36046 2.65879 7.35933 2.23731 8.5158C1.81583 9.67227 1.76024 10.9304 2.07805 12.1195C2.39587 13.3087 3.07173 14.3713 4.01397 15.1633C2.54264 15.8286 1.26758 16.8618 0.311784 18.1633C0.13525 18.4039 0.0615074 18.7047 0.10678 18.9996C0.152052 19.2946 0.312631 19.5594 0.553191 19.736C0.79375 19.9125 1.09459 19.9862 1.38952 19.941C1.68445 19.8957 1.94931 19.7351 2.12585 19.4946C2.78748 18.5909 3.65281 17.856 4.65164 17.3494C5.65046 16.8428 6.75464 16.5788 7.8746 16.5788C8.99455 16.5788 10.0987 16.8428 11.0976 17.3494C12.0964 17.856 12.9617 18.5909 13.6233 19.4946C13.7999 19.7352 14.0648 19.8959 14.3598 19.9413C14.6548 19.9867 14.9558 19.913 15.1965 19.7364C15.4372 19.5599 15.5979 19.295 15.6432 19C15.6886 18.7049 15.6149 18.404 15.4383 18.1633C14.482 16.862 13.2067 15.8288 11.7352 15.1633ZM4.1246 10.5752C4.1246 9.8335 4.34453 9.10848 4.75659 8.49179C5.16864 7.87511 5.75431 7.39446 6.43953 7.11063C7.12476 6.8268 7.87876 6.75254 8.60619 6.89723C9.33361 7.04193 10.0018 7.39908 10.5262 7.92353C11.0507 8.44798 11.4078 9.11616 11.5525 9.84359C11.6972 10.571 11.623 11.325 11.3391 12.0102C11.0553 12.6955 10.5747 13.2811 9.95799 13.6932C9.3413 14.1052 8.61628 14.3252 7.8746 14.3252C6.88004 14.3252 5.92621 13.9301 5.22295 13.2268C4.51969 12.5236 4.1246 11.5697 4.1246 10.5752ZM23.4465 19.7317C23.3274 19.8193 23.1922 19.8824 23.0487 19.9177C22.9051 19.953 22.7561 19.9596 22.61 19.9372C22.4639 19.9148 22.3236 19.8639 22.1973 19.7873C22.0709 19.7107 21.9608 19.61 21.8733 19.4908C21.2101 18.5889 20.3444 17.8552 19.3459 17.3489C18.3475 16.8425 17.2441 16.5775 16.1246 16.5752C15.8262 16.5752 15.5401 16.4567 15.3291 16.2457C15.1181 16.0347 14.9996 15.7485 14.9996 15.4502C14.9996 15.1518 15.1181 14.8657 15.3291 14.6547C15.5401 14.4437 15.8262 14.3252 16.1246 14.3252C16.6767 14.3245 17.2219 14.202 17.7212 13.9662C18.2205 13.7305 18.6616 13.3874 19.013 12.9615C19.3643 12.5355 19.6173 12.0373 19.7538 11.5022C19.8903 10.9672 19.907 10.4087 19.8026 9.86647C19.6983 9.32427 19.4755 8.8118 19.1501 8.36567C18.8248 7.91954 18.405 7.55076 17.9206 7.28566C17.4363 7.02056 16.8994 6.8657 16.3482 6.83212C15.7971 6.79855 15.2454 6.88709 14.7324 7.09143C14.595 7.14769 14.4478 7.1762 14.2993 7.1753C14.1509 7.17441 14.004 7.14413 13.8673 7.08622C13.7306 7.02831 13.6067 6.94391 13.5028 6.83788C13.3988 6.73185 13.3169 6.6063 13.2617 6.46846C13.2065 6.33062 13.1792 6.18322 13.1812 6.03476C13.1833 5.88629 13.2147 5.73971 13.2737 5.60345C13.3327 5.46718 13.418 5.34395 13.5249 5.24084C13.6317 5.13773 13.7579 5.05679 13.8962 5.00268C15.2202 4.47256 16.6898 4.43143 18.0414 4.88666C19.393 5.34189 20.5383 6.2637 21.2718 7.48682C22.0054 8.70994 22.2793 10.1544 22.0444 11.5611C21.8094 12.9679 21.0811 14.2449 19.9899 15.1633C21.4612 15.8286 22.7363 16.8618 23.6921 18.1633C23.8669 18.4041 23.9392 18.7043 23.8931 18.9982C23.8471 19.2922 23.6865 19.5559 23.4465 19.7317Z" fill="#FBFBFB"/>
</svg>
