<svg width="24" height="25" viewBox="0 0 24 25" fill="none" xmlns="http://www.w3.org/2000/svg">
<path d="M11.2505 12.63C11.2505 12.9267 11.1626 13.2167 10.9977 13.4634C10.8329 13.7101 10.5987 13.9023 10.3246 14.0159C10.0505 14.1294 9.74887 14.1591 9.4579 14.1012C9.16693 14.0433 8.89966 13.9005 8.68988 13.6907C8.4801 13.4809 8.33724 13.2137 8.27936 12.9227C8.22148 12.6317 8.25119 12.3301 8.36472 12.056C8.47825 11.7819 8.67051 11.5477 8.91718 11.3828C9.16386 11.218 9.45387 11.13 9.75054 11.13C10.1484 11.13 10.5299 11.2881 10.8112 11.5694C11.0925 11.8507 11.2505 12.2322 11.2505 12.63ZM14.2505 11.13C13.9539 11.13 13.6639 11.218 13.4172 11.3828C13.1705 11.5477 12.9782 11.7819 12.8647 12.056C12.7512 12.3301 12.7215 12.6317 12.7794 12.9227C12.8372 13.2137 12.9801 13.4809 13.1899 13.6907C13.3997 13.9005 13.6669 14.0433 13.9579 14.1012C14.2489 14.1591 14.5505 14.1294 14.8246 14.0159C15.0987 13.9023 15.3329 13.7101 15.4977 13.4634C15.6626 13.2167 15.7505 12.9267 15.7505 12.63C15.7505 12.2322 15.5925 11.8507 15.3112 11.5694C15.0299 11.2881 14.6484 11.13 14.2505 11.13ZM22.1255 12.63C22.1259 14.3644 21.6808 16.0697 20.8328 17.5826C19.9848 19.0956 18.7624 20.3653 17.2828 21.2701C15.8032 22.1749 14.116 22.6845 12.3829 22.75C10.6498 22.8155 8.9289 22.4347 7.38522 21.6441L4.34491 22.6613C4.01394 22.7728 3.65839 22.7897 3.31833 22.71C2.97828 22.6304 2.66724 22.4573 2.42027 22.2103C2.1733 21.9633 2.00022 21.6523 1.92054 21.3123C1.84086 20.9722 1.85774 20.6166 1.96929 20.2857L2.98272 17.2454C2.28681 15.8822 1.90899 14.379 1.87766 12.8488C1.84634 11.3186 2.16234 9.80122 2.80189 8.41073C3.44144 7.02023 4.3879 5.79282 5.57011 4.82078C6.75233 3.84874 8.13953 3.15737 9.62742 2.79864C11.1153 2.43991 12.6652 2.42317 14.1604 2.74966C15.6557 3.07616 17.0576 3.7374 18.2605 4.68367C19.4634 5.62994 20.4362 6.83662 21.1056 8.21297C21.7751 9.58932 22.1238 11.0995 22.1255 12.63ZM19.8755 12.63C19.8751 11.4221 19.5967 10.2305 19.0621 9.14733C18.5274 8.06418 17.7507 7.11854 16.7921 6.38356C15.8335 5.64859 14.7187 5.14398 13.5339 4.90878C12.3491 4.67358 11.1261 4.71409 9.95943 5.02717C8.79278 5.34025 7.71379 5.91751 6.80592 6.7143C5.89806 7.51109 5.18566 8.50605 4.72383 9.62221C4.26201 10.7384 4.06313 11.9458 4.1426 13.1511C4.22206 14.3564 4.57773 15.5273 5.1821 16.5732C5.26198 16.7111 5.31164 16.8644 5.32781 17.0229C5.34397 17.1815 5.32626 17.3417 5.27585 17.4929L4.34491 20.2857L7.13772 19.3547C7.25261 19.3165 7.37288 19.2968 7.49397 19.2966C7.69156 19.297 7.88557 19.3493 8.05648 19.4485C9.25368 20.1412 10.6122 20.5064 11.9954 20.5073C13.3786 20.5082 14.7376 20.1448 15.9357 19.4536C17.1339 18.7624 18.1288 17.7678 18.8204 16.57C19.512 15.3721 19.8759 14.0132 19.8755 12.63Z" fill="#FBFBFB"/>
</svg>
