<svg width="24" height="25" viewBox="0 0 24 25" fill="none" xmlns="http://www.w3.org/2000/svg">
<path d="M16.7241 15.4426C15.6928 17.2295 13.9688 18.2551 12 18.2551C10.0313 18.2551 8.31 17.2304 7.27594 15.4426C7.13319 15.1847 7.0974 14.881 7.17627 14.5969C7.25514 14.3129 7.44237 14.0711 7.69767 13.9237C7.95298 13.7762 8.25595 13.7349 8.54141 13.8086C8.82687 13.8823 9.072 14.0651 9.22407 14.3176C9.58875 14.9486 10.4344 16.0051 12 16.0051C13.5656 16.0051 14.4113 14.9476 14.7759 14.3176C14.8483 14.1869 14.946 14.0718 15.0633 13.9792C15.1807 13.8866 15.3153 13.8183 15.4593 13.7784C15.6033 13.7384 15.7539 13.7275 15.9021 13.7463C16.0504 13.7652 16.1934 13.8134 16.3229 13.8881C16.4523 13.9629 16.5655 14.0627 16.656 14.1817C16.7464 14.3007 16.8122 14.4365 16.8496 14.5812C16.8869 14.7259 16.8951 14.8766 16.8735 15.0246C16.852 15.1725 16.8012 15.3146 16.7241 15.4426ZM22.125 12.6301C22.125 14.6327 21.5312 16.5902 20.4186 18.2553C19.3061 19.9203 17.7248 21.2181 15.8747 21.9844C14.0246 22.7507 11.9888 22.9513 10.0247 22.5606C8.06066 22.1699 6.25656 21.2056 4.84055 19.7896C3.42454 18.3736 2.46023 16.5695 2.06955 14.6054C1.67888 12.6414 1.87939 10.6056 2.64572 8.75546C3.41206 6.90536 4.70981 5.32405 6.37486 4.2115C8.0399 3.09895 9.99747 2.50513 12 2.50513C14.6844 2.5081 17.258 3.5758 19.1562 5.47396C21.0543 7.37212 22.122 9.94572 22.125 12.6301ZM19.875 12.6301C19.875 11.0726 19.4131 9.55005 18.5478 8.25501C17.6825 6.95997 16.4526 5.95062 15.0136 5.35458C13.5747 4.75854 11.9913 4.60258 10.4637 4.90644C8.93607 5.2103 7.53288 5.96032 6.43154 7.06166C5.3302 8.163 4.58018 9.56619 4.27632 11.0938C3.97246 12.6214 4.12841 14.2048 4.72445 15.6438C5.32049 17.0827 6.32985 18.3126 7.62489 19.1779C8.91993 20.0433 10.4425 20.5051 12 20.5051C14.0879 20.5029 16.0896 19.6725 17.566 18.1961C19.0424 16.7198 19.8728 14.718 19.875 12.6301ZM8.625 12.2551C8.92168 12.2551 9.21169 12.1672 9.45836 12.0023C9.70503 11.8375 9.89729 11.6032 10.0108 11.3292C10.1244 11.0551 10.1541 10.7535 10.0962 10.4625C10.0383 10.1715 9.89544 9.90425 9.68566 9.69447C9.47589 9.48469 9.20861 9.34183 8.91764 9.28395C8.62667 9.22607 8.32507 9.25578 8.05098 9.36931C7.77689 9.48284 7.54262 9.6751 7.3778 9.92177C7.21298 10.1684 7.125 10.4585 7.125 10.7551C7.125 11.153 7.28304 11.5345 7.56434 11.8158C7.84565 12.0971 8.22718 12.2551 8.625 12.2551ZM15.375 9.25513C15.0783 9.25513 14.7883 9.3431 14.5416 9.50792C14.295 9.67274 14.1027 9.90701 13.9892 10.1811C13.8757 10.4552 13.8459 10.7568 13.9038 11.0478C13.9617 11.3387 14.1046 11.606 14.3143 11.8158C14.5241 12.0256 14.7914 12.1684 15.0824 12.2263C15.3733 12.2842 15.6749 12.2545 15.949 12.1409C16.2231 12.0274 16.4574 11.8352 16.6222 11.5885C16.787 11.3418 16.875 11.0518 16.875 10.7551C16.875 10.3573 16.717 9.97577 16.4357 9.69447C16.1544 9.41316 15.7728 9.25513 15.375 9.25513Z" fill="#FBFBFB"/>
</svg>
