<svg width="24" height="25" viewBox="0 0 24 25" fill="none" xmlns="http://www.w3.org/2000/svg">
<path d="M12 2.50513C9.99747 2.50513 8.0399 3.09895 6.37486 4.2115C4.70981 5.32405 3.41206 6.90536 2.64572 8.75546C1.87939 10.6056 1.67888 12.6414 2.06955 14.6054C2.46023 16.5695 3.42454 18.3736 4.84055 19.7896C6.25656 21.2056 8.06066 22.1699 10.0247 22.5606C11.9888 22.9513 14.0246 22.7507 15.8747 21.9844C17.7248 21.2181 19.3061 19.9203 20.4186 18.2553C21.5312 16.5902 22.125 14.6327 22.125 12.6301C22.122 9.94572 21.0543 7.37212 19.1562 5.47396C17.258 3.5758 14.6844 2.5081 12 2.50513ZM10.0378 16.7551H13.9622C13.5369 18.0507 12.8712 19.2545 12 20.3036C11.1288 19.2545 10.4631 18.0507 10.0378 16.7551ZM9.50719 14.5051C9.33094 13.2613 9.33094 11.9989 9.50719 10.7551H14.4928C14.6691 11.9989 14.6691 13.2613 14.4928 14.5051H9.50719ZM4.125 12.6301C4.12498 11.9982 4.20147 11.3686 4.35282 10.7551H7.23938C7.08688 12.0005 7.08688 13.2598 7.23938 14.5051H4.35282C4.20147 13.8916 4.12498 13.262 4.125 12.6301ZM13.9622 8.50513H10.0378C10.4631 7.20954 11.1288 6.00571 12 4.95669C12.8712 6.00571 13.5369 7.20954 13.9622 8.50513ZM16.7606 10.7551H19.6472C19.9509 11.9867 19.9509 13.2736 19.6472 14.5051H16.7606C16.9131 13.2598 16.9131 12.0005 16.7606 10.7551ZM18.705 8.50513H16.3125C16.0075 7.40455 15.5682 6.34567 15.0047 5.35231C16.5381 5.98947 17.8325 7.09235 18.705 8.50513ZM9 5.35231C8.43485 6.34544 7.99404 7.40434 7.6875 8.50513H5.295C6.16875 7.0916 7.46489 5.98864 9 5.35231ZM5.295 16.7551H7.6875C7.99404 17.8559 8.43485 18.9148 9 19.9079C7.46489 19.2716 6.16875 18.1687 5.295 16.7551ZM15.0047 19.9079C15.5682 18.9146 16.0075 17.8557 16.3125 16.7551H18.705C17.8325 18.1679 16.5381 19.2708 15.0047 19.9079Z" fill="#FBFBFB"/>
</svg>
