<svg width="24" height="25" viewBox="0 0 24 25" fill="none" xmlns="http://www.w3.org/2000/svg">
<g clip-path="url(#clip0_836_746)">
<path d="M23.4179 8.46484L12.5429 2.46484C12.3764 2.37292 12.1893 2.32471 11.9991 2.32471C11.8089 2.32471 11.6219 2.37292 11.4554 2.46484L0.580362 8.46484C0.404523 8.56213 0.257954 8.70474 0.155891 8.87786C0.0538291 9.05097 0 9.24826 0 9.44922C0 9.65017 0.0538291 9.84747 0.155891 10.0206C0.257954 10.1937 0.404523 10.3363 0.580362 10.4336L2.62411 11.5586V16.0361C2.62337 16.497 2.79337 16.9419 3.1013 17.2848C4.37067 18.7033 7.21786 21.0752 11.9991 21.0752C13.2689 21.082 14.5327 20.9003 15.7491 20.5361V22.9502C15.7491 23.2485 15.8676 23.5347 16.0786 23.7456C16.2896 23.9566 16.5757 24.0752 16.8741 24.0752C17.1725 24.0752 17.4586 23.9566 17.6696 23.7456C17.8806 23.5347 17.9991 23.2485 17.9991 22.9502V19.5864C19.0856 18.9862 20.0649 18.2097 20.8969 17.2886C21.2049 16.9456 21.3748 16.5008 21.3741 16.0398V11.5623L23.4179 10.4373C23.5937 10.3401 23.7403 10.1974 23.8423 10.0243C23.9444 9.85122 23.9982 9.65392 23.9982 9.45297C23.9982 9.25201 23.9444 9.05472 23.8423 8.8816C23.7403 8.70849 23.5937 8.56588 23.4179 8.46859V8.46484ZM11.9991 4.73547L20.5454 9.45015L17.4366 11.1658C17.4308 11.1624 17.4251 11.1586 17.4197 11.1545L12.5447 8.46484C12.2845 8.33032 11.982 8.30264 11.7016 8.3877C11.4212 8.47276 11.1851 8.66383 11.0435 8.92029C10.9018 9.17675 10.8658 9.47836 10.943 9.76097C11.0203 10.0436 11.2048 10.2849 11.4572 10.4336L15.1135 12.4483L11.9991 14.1658L3.45286 9.45015L11.9991 4.73547ZM11.9991 18.8252C8.20974 18.8252 5.93817 17.0373 4.87411 15.8936V12.7998L11.4554 16.4317C11.6219 16.5236 11.8089 16.5718 11.9991 16.5718C12.1893 16.5718 12.3764 16.5236 12.5429 16.4317L15.7491 14.6664V18.1567C14.5512 18.6095 13.2797 18.8361 11.9991 18.8252ZM19.1241 15.8936C18.7791 16.2633 18.4027 16.6024 17.9991 16.907V13.4242L19.1241 12.8036V15.8936Z" fill="#FBFBFB"/>
</g>
<defs>
<clipPath id="clip0_836_746">
<rect width="24" height="24" fill="white" transform="translate(0 0.450195)"/>
</clipPath>
</defs>
</svg>
