<svg width="22" height="19" viewBox="0 0 22 19" fill="none" xmlns="http://www.w3.org/2000/svg">
<path d="M15.6875 0.0751953C13.8041 0.0751953 12.1325 0.818633 11 2.09645C9.8675 0.818633 8.19594 0.0751953 6.3125 0.0751953C4.67208 0.0771801 3.09942 0.729713 1.93947 1.88966C0.779518 3.04962 0.126985 4.62228 0.125 6.2627C0.125 13.0446 10.0447 18.4633 10.4666 18.6911C10.6305 18.7794 10.8138 18.8256 11 18.8256C11.1862 18.8256 11.3695 18.7794 11.5334 18.6911C11.9553 18.4633 21.875 13.0446 21.875 6.2627C21.873 4.62228 21.2205 3.04962 20.0605 1.88966C18.9006 0.729713 17.3279 0.0771801 15.6875 0.0751953ZM15.1728 13.4214C13.8671 14.5294 12.4714 15.5266 11 16.4027C9.52864 15.5266 8.13287 14.5294 6.82719 13.4214C4.79562 11.6786 2.375 9.02082 2.375 6.2627C2.375 5.21841 2.78984 4.21689 3.52827 3.47846C4.26669 2.74004 5.26821 2.3252 6.3125 2.3252C7.98125 2.3252 9.37813 3.20645 9.95844 4.62582C10.0429 4.83273 10.1871 5.0098 10.3726 5.13444C10.5581 5.25908 10.7765 5.32565 11 5.32565C11.2235 5.32565 11.4419 5.25908 11.6274 5.13444C11.8129 5.0098 11.9571 4.83273 12.0416 4.62582C12.6219 3.20645 14.0188 2.3252 15.6875 2.3252C16.7318 2.3252 17.7333 2.74004 18.4717 3.47846C19.2102 4.21689 19.625 5.21841 19.625 6.2627C19.625 9.02082 17.2044 11.6786 15.1728 13.4214Z" fill="#FBFBFB"/>
</svg>
