<svg width="300" height="265" viewBox="0 0 300 265" fill="none" xmlns="http://www.w3.org/2000/svg">
<rect width="299" height="264" transform="translate(0.496094 0.244995)" fill="#161616"/>
<g clip-path="url(#clip0_1060_225)">
<rect x="15.9961" y="16.245" width="268" height="232" rx="12" fill="#1A1A1A"/>
<path d="M41.1801 57.245V46.045H44.8601C45.7348 46.045 46.4548 46.189 47.0201 46.477C47.5854 46.765 48.0014 47.1543 48.2681 47.645C48.5454 48.1357 48.6841 48.6903 48.6841 49.309C48.6841 49.917 48.5508 50.4663 48.2841 50.957C48.0174 51.4477 47.6014 51.8423 47.0361 52.141C46.4708 52.429 45.7454 52.573 44.8601 52.573H42.5241V57.245H41.1801ZM42.5241 51.437H44.8281C45.7241 51.437 46.3588 51.2503 46.7321 50.877C47.1161 50.493 47.3081 49.9703 47.3081 49.309C47.3081 48.637 47.1161 48.1143 46.7321 47.741C46.3588 47.357 45.7241 47.165 44.8281 47.165H42.5241V51.437ZM50.3657 57.245V49.309H51.5817L51.6937 50.829C51.9391 50.3063 52.3124 49.8903 52.8137 49.581C53.3151 49.2717 53.9337 49.117 54.6697 49.117V50.525H54.3017C53.8324 50.525 53.4004 50.6103 53.0057 50.781C52.6111 50.941 52.2964 51.2183 52.0617 51.613C51.8271 52.0077 51.7097 52.5517 51.7097 53.245V57.245H50.3657ZM59.4493 57.437C58.692 57.437 58.02 57.2663 57.4333 56.925C56.8467 56.573 56.3827 56.0877 56.0413 55.469C55.7107 54.8503 55.5453 54.1197 55.5453 53.277C55.5453 52.445 55.7107 51.7197 56.0413 51.101C56.372 50.4717 56.8307 49.9863 57.4173 49.645C58.0147 49.293 58.7027 49.117 59.4813 49.117C60.2493 49.117 60.9107 49.293 61.4653 49.645C62.0307 49.9863 62.4627 50.4397 62.7613 51.005C63.06 51.5703 63.2093 52.1783 63.2093 52.829C63.2093 52.9463 63.204 53.0637 63.1933 53.181C63.1933 53.2983 63.1933 53.4317 63.1933 53.581H56.8733C56.9053 54.189 57.044 54.6957 57.2893 55.101C57.5453 55.4957 57.86 55.7943 58.2333 55.997C58.6173 56.1997 59.0227 56.301 59.4493 56.301C60.004 56.301 60.468 56.173 60.8413 55.917C61.2147 55.661 61.4867 55.3143 61.6573 54.877H62.9853C62.772 55.613 62.3613 56.2263 61.7533 56.717C61.156 57.197 60.388 57.437 59.4493 57.437ZM59.4493 50.253C58.8093 50.253 58.2387 50.4503 57.7373 50.845C57.2467 51.229 56.964 51.7943 56.8893 52.541H61.8813C61.8493 51.8263 61.604 51.2663 61.1453 50.861C60.6867 50.4557 60.1213 50.253 59.4493 50.253ZM64.9907 60.765V49.309H66.2067L66.3347 50.621C66.5907 50.237 66.9534 49.8903 67.4227 49.581C67.9027 49.2717 68.5107 49.117 69.2467 49.117C70.0361 49.117 70.7241 49.2983 71.3107 49.661C71.8974 50.0237 72.3507 50.5197 72.6707 51.149C73.0014 51.7783 73.1667 52.493 73.1667 53.293C73.1667 54.093 73.0014 54.8077 72.6707 55.437C72.3507 56.0557 71.8921 56.5463 71.2947 56.909C70.7081 57.261 70.0201 57.437 69.2307 57.437C68.5801 57.437 67.9987 57.3037 67.4867 57.037C66.9854 56.7703 66.6014 56.397 66.3347 55.917V60.765H64.9907ZM69.0867 56.269C69.6201 56.269 70.0894 56.1463 70.4947 55.901C70.9001 55.645 71.2201 55.293 71.4547 54.845C71.6894 54.397 71.8067 53.8743 71.8067 53.277C71.8067 52.6797 71.6894 52.157 71.4547 51.709C71.2201 51.261 70.9001 50.9143 70.4947 50.669C70.0894 50.413 69.6201 50.285 69.0867 50.285C68.5534 50.285 68.0841 50.413 67.6787 50.669C67.2734 50.9143 66.9534 51.261 66.7187 51.709C66.4841 52.157 66.3667 52.6797 66.3667 53.277C66.3667 53.8743 66.4841 54.397 66.7187 54.845C66.9534 55.293 67.2734 55.645 67.6787 55.901C68.0841 56.1463 68.5534 56.269 69.0867 56.269ZM77.6776 57.437C77.0163 57.437 76.4669 57.325 76.0296 57.101C75.5923 56.877 75.2669 56.5783 75.0536 56.205C74.8403 55.8317 74.7336 55.4263 74.7336 54.989C74.7336 54.1783 75.0429 53.5543 75.6616 53.117C76.2803 52.6797 77.1229 52.461 78.1896 52.461H80.3336V52.365C80.3336 51.6717 80.1523 51.149 79.7896 50.797C79.4269 50.4343 78.9416 50.253 78.3336 50.253C77.8109 50.253 77.3576 50.3863 76.9736 50.653C76.6003 50.909 76.3656 51.2877 76.2696 51.789H74.8936C74.9469 51.213 75.1389 50.7277 75.4696 50.333C75.8109 49.9383 76.2323 49.6397 76.7336 49.437C77.2349 49.2237 77.7683 49.117 78.3336 49.117C79.4429 49.117 80.2749 49.4157 80.8296 50.013C81.3949 50.5997 81.6776 51.3837 81.6776 52.365V57.245H80.4776L80.3976 55.821C80.1736 56.269 79.8429 56.653 79.4056 56.973C78.9789 57.2823 78.4029 57.437 77.6776 57.437ZM77.8856 56.301C78.3976 56.301 78.8349 56.1677 79.1976 55.901C79.5709 55.6343 79.8536 55.2877 80.0456 54.861C80.2376 54.4343 80.3336 53.9863 80.3336 53.517V53.501H78.3016C77.5123 53.501 76.9523 53.6397 76.6216 53.917C76.3016 54.1837 76.1416 54.5197 76.1416 54.925C76.1416 55.341 76.2909 55.677 76.5896 55.933C76.8989 56.1783 77.3309 56.301 77.8856 56.301ZM83.6938 57.245V49.309H84.9098L85.0218 50.829C85.2672 50.3063 85.6405 49.8903 86.1418 49.581C86.6432 49.2717 87.2618 49.117 87.9978 49.117V50.525H87.6298C87.1605 50.525 86.7285 50.6103 86.3338 50.781C85.9392 50.941 85.6245 51.2183 85.3898 51.613C85.1552 52.0077 85.0378 52.5517 85.0378 53.245V57.245H83.6938ZM92.7775 57.437C92.0201 57.437 91.3481 57.2663 90.7615 56.925C90.1748 56.573 89.7108 56.0877 89.3695 55.469C89.0388 54.8503 88.8735 54.1197 88.8735 53.277C88.8735 52.445 89.0388 51.7197 89.3695 51.101C89.7001 50.4717 90.1588 49.9863 90.7455 49.645C91.3428 49.293 92.0308 49.117 92.8095 49.117C93.5775 49.117 94.2388 49.293 94.7935 49.645C95.3588 49.9863 95.7908 50.4397 96.0895 51.005C96.3881 51.5703 96.5375 52.1783 96.5375 52.829C96.5375 52.9463 96.5321 53.0637 96.5215 53.181C96.5215 53.2983 96.5215 53.4317 96.5215 53.581H90.2015C90.2335 54.189 90.3721 54.6957 90.6175 55.101C90.8735 55.4957 91.1881 55.7943 91.5615 55.997C91.9455 56.1997 92.3508 56.301 92.7775 56.301C93.3321 56.301 93.7961 56.173 94.1695 55.917C94.5428 55.661 94.8148 55.3143 94.9855 54.877H96.3135C96.1001 55.613 95.6895 56.2263 95.0815 56.717C94.4841 57.197 93.7161 57.437 92.7775 57.437ZM92.7775 50.253C92.1375 50.253 91.5668 50.4503 91.0655 50.845C90.5748 51.229 90.2921 51.7943 90.2175 52.541H95.2095C95.1775 51.8263 94.9321 51.2663 94.4735 50.861C94.0148 50.4557 93.4495 50.253 92.7775 50.253ZM102.553 60.765V49.309H103.769L103.897 50.621C104.153 50.237 104.516 49.8903 104.985 49.581C105.465 49.2717 106.073 49.117 106.809 49.117C107.599 49.117 108.287 49.2983 108.873 49.661C109.46 50.0237 109.913 50.5197 110.233 51.149C110.564 51.7783 110.729 52.493 110.729 53.293C110.729 54.093 110.564 54.8077 110.233 55.437C109.913 56.0557 109.455 56.5463 108.857 56.909C108.271 57.261 107.583 57.437 106.793 57.437C106.143 57.437 105.561 57.3037 105.049 57.037C104.548 56.7703 104.164 56.397 103.897 55.917V60.765H102.553ZM106.649 56.269C107.183 56.269 107.652 56.1463 108.057 55.901C108.463 55.645 108.783 55.293 109.017 54.845C109.252 54.397 109.369 53.8743 109.369 53.277C109.369 52.6797 109.252 52.157 109.017 51.709C108.783 51.261 108.463 50.9143 108.057 50.669C107.652 50.413 107.183 50.285 106.649 50.285C106.116 50.285 105.647 50.413 105.241 50.669C104.836 50.9143 104.516 51.261 104.281 51.709C104.047 52.157 103.929 52.6797 103.929 53.277C103.929 53.8743 104.047 54.397 104.281 54.845C104.516 55.293 104.836 55.645 105.241 55.901C105.647 56.1463 106.116 56.269 106.649 56.269ZM113.416 47.549C113.149 47.549 112.925 47.4637 112.744 47.293C112.573 47.1117 112.488 46.8877 112.488 46.621C112.488 46.365 112.573 46.1517 112.744 45.981C112.925 45.8103 113.149 45.725 113.416 45.725C113.672 45.725 113.891 45.8103 114.072 45.981C114.253 46.1517 114.344 46.365 114.344 46.621C114.344 46.8877 114.253 47.1117 114.072 47.293C113.891 47.4637 113.672 47.549 113.416 47.549ZM112.744 57.245V49.309H114.088V57.245H112.744ZM119.564 57.245C118.839 57.245 118.268 57.069 117.852 56.717C117.436 56.365 117.228 55.7303 117.228 54.813V50.445H115.852V49.309H117.228L117.404 47.405H118.572V49.309H120.908V50.445H118.572V54.813C118.572 55.3143 118.674 55.6557 118.876 55.837C119.079 56.0077 119.436 56.093 119.948 56.093H120.78V57.245H119.564ZM126.045 57.437C125.288 57.437 124.605 57.2663 123.997 56.925C123.4 56.573 122.925 56.0877 122.573 55.469C122.232 54.8397 122.061 54.109 122.061 53.277C122.061 52.445 122.232 51.7197 122.573 51.101C122.925 50.4717 123.4 49.9863 123.997 49.645C124.605 49.293 125.288 49.117 126.045 49.117C126.984 49.117 127.773 49.3623 128.413 49.853C129.064 50.3437 129.474 50.9997 129.645 51.821H128.269C128.162 51.3303 127.901 50.9517 127.485 50.685C127.069 50.4077 126.584 50.269 126.029 50.269C125.581 50.269 125.16 50.381 124.765 50.605C124.37 50.829 124.05 51.165 123.805 51.613C123.56 52.061 123.437 52.6157 123.437 53.277C123.437 53.9383 123.56 54.493 123.805 54.941C124.05 55.389 124.37 55.7303 124.765 55.965C125.16 56.189 125.581 56.301 126.029 56.301C126.584 56.301 127.069 56.1677 127.485 55.901C127.901 55.6237 128.162 55.2343 128.269 54.733H129.645C129.485 55.533 129.08 56.1837 128.429 56.685C127.778 57.1863 126.984 57.437 126.045 57.437ZM131.522 57.245V45.725H132.866V50.669C133.133 50.1783 133.511 49.7997 134.002 49.533C134.493 49.2557 135.026 49.117 135.602 49.117C136.519 49.117 137.255 49.405 137.81 49.981C138.365 50.5463 138.642 51.421 138.642 52.605V57.245H137.314V52.749C137.314 51.0957 136.647 50.269 135.314 50.269C134.621 50.269 134.039 50.5197 133.57 51.021C133.101 51.5117 132.866 52.2157 132.866 53.133V57.245H131.522ZM145.345 57.245V50.445H144.145V49.309H145.345V47.933C145.345 47.165 145.537 46.605 145.921 46.253C146.305 45.901 146.865 45.725 147.601 45.725H148.401V46.877H147.809C147.403 46.877 147.115 46.9623 146.945 47.133C146.774 47.293 146.689 47.5703 146.689 47.965V49.309H148.641V50.445H146.689V57.245H145.345ZM153.544 57.437C152.798 57.437 152.126 57.2663 151.528 56.925C150.931 56.5837 150.456 56.1037 150.104 55.485C149.763 54.8557 149.592 54.1197 149.592 53.277C149.592 52.4343 149.768 51.7037 150.12 51.085C150.472 50.4557 150.947 49.9703 151.544 49.629C152.152 49.2877 152.83 49.117 153.576 49.117C154.323 49.117 154.995 49.2877 155.592 49.629C156.19 49.9703 156.659 50.4557 157 51.085C157.352 51.7037 157.528 52.4343 157.528 53.277C157.528 54.1197 157.352 54.8557 157 55.485C156.648 56.1037 156.168 56.5837 155.56 56.925C154.963 57.2663 154.291 57.437 153.544 57.437ZM153.544 56.285C154.003 56.285 154.43 56.173 154.824 55.949C155.219 55.725 155.539 55.389 155.784 54.941C156.03 54.493 156.152 53.9383 156.152 53.277C156.152 52.6157 156.03 52.061 155.784 51.613C155.55 51.165 155.235 50.829 154.84 50.605C154.446 50.381 154.024 50.269 153.576 50.269C153.118 50.269 152.691 50.381 152.296 50.605C151.902 50.829 151.582 51.165 151.336 51.613C151.091 52.061 150.968 52.6157 150.968 53.277C150.968 53.9383 151.091 54.493 151.336 54.941C151.582 55.389 151.896 55.725 152.28 55.949C152.675 56.173 153.096 56.285 153.544 56.285ZM159.397 57.245V49.309H160.613L160.725 50.829C160.97 50.3063 161.344 49.8903 161.845 49.581C162.346 49.2717 162.965 49.117 163.701 49.117V50.525H163.333C162.864 50.525 162.432 50.6103 162.037 50.781C161.642 50.941 161.328 51.2183 161.093 51.613C160.858 52.0077 160.741 52.5517 160.741 53.245V57.245H159.397Z" fill="#FBFBFB"/>
<g clip-path="url(#clip1_1060_225)">
<rect x="39.9961" y="80.4351" width="16" height="16" rx="4" fill="#1A1A1A"/>
<rect x="40.4961" y="80.9351" width="15" height="15" rx="3.5" stroke="#222222"/>
</g>
<path d="M67.3281 93.635V84.801H64.4021V83.835H71.4301V84.801H68.5041V93.635H67.3281ZM72.7961 93.635V83.555H73.9721V87.881C74.2054 87.4517 74.5367 87.1203 74.9661 86.887C75.3954 86.6443 75.8621 86.523 76.3661 86.523C77.1687 86.523 77.8127 86.775 78.2981 87.279C78.7834 87.7737 79.0261 88.539 79.0261 89.575V93.635H77.8641V89.701C77.8641 88.2543 77.2807 87.531 76.1141 87.531C75.5074 87.531 74.9987 87.7503 74.5881 88.189C74.1774 88.6183 73.9721 89.2343 73.9721 90.037V93.635H72.7961ZM83.9298 93.803C83.2671 93.803 82.6791 93.6537 82.1658 93.355C81.6525 93.047 81.2465 92.6223 80.9478 92.081C80.6585 91.5397 80.5138 90.9003 80.5138 90.163C80.5138 89.435 80.6585 88.8003 80.9478 88.259C81.2371 87.7083 81.6385 87.2837 82.1518 86.985C82.6745 86.677 83.2765 86.523 83.9578 86.523C84.6298 86.523 85.2085 86.677 85.6938 86.985C86.1885 87.2837 86.5665 87.6803 86.8278 88.175C87.0891 88.6697 87.2198 89.2017 87.2198 89.771C87.2198 89.8737 87.2151 89.9763 87.2058 90.079C87.2058 90.1817 87.2058 90.2983 87.2058 90.429H81.6758C81.7038 90.961 81.8251 91.4043 82.0398 91.759C82.2638 92.1043 82.5391 92.3657 82.8658 92.543C83.2018 92.7203 83.5565 92.809 83.9298 92.809C84.4151 92.809 84.8211 92.697 85.1478 92.473C85.4745 92.249 85.7125 91.9457 85.8618 91.563H87.0238C86.8371 92.207 86.4778 92.7437 85.9458 93.173C85.4231 93.593 84.7511 93.803 83.9298 93.803ZM83.9298 87.517C83.3698 87.517 82.8705 87.6897 82.4318 88.035C82.0025 88.371 81.7551 88.8657 81.6898 89.519H86.0578C86.0298 88.8937 85.8151 88.4037 85.4138 88.049C85.0125 87.6943 84.5178 87.517 83.9298 87.517ZM92.4836 93.635V86.691H93.5476L93.6316 87.699C93.8556 87.3257 94.1542 87.0363 94.5276 86.831C94.9009 86.6257 95.3209 86.523 95.7876 86.523C96.3382 86.523 96.8096 86.635 97.2016 86.859C97.6029 87.083 97.9109 87.4237 98.1256 87.881C98.3682 87.461 98.6996 87.1297 99.1196 86.887C99.5489 86.6443 100.011 86.523 100.506 86.523C101.336 86.523 101.999 86.775 102.494 87.279C102.988 87.7737 103.236 88.539 103.236 89.575V93.635H102.074V89.701C102.074 88.9823 101.929 88.441 101.64 88.077C101.35 87.713 100.935 87.531 100.394 87.531C99.8336 87.531 99.3669 87.7503 98.9936 88.189C98.6296 88.6183 98.4476 89.2343 98.4476 90.037V93.635H97.2716V89.701C97.2716 88.9823 97.1269 88.441 96.8376 88.077C96.5482 87.713 96.1329 87.531 95.5916 87.531C95.0409 87.531 94.5789 87.7503 94.2056 88.189C93.8416 88.6183 93.6596 89.2343 93.6596 90.037V93.635H92.4836ZM107.317 93.803C106.738 93.803 106.258 93.705 105.875 93.509C105.492 93.313 105.208 93.0517 105.021 92.725C104.834 92.3983 104.741 92.0437 104.741 91.661C104.741 90.9517 105.012 90.4057 105.553 90.023C106.094 89.6403 106.832 89.449 107.765 89.449H109.641V89.365C109.641 88.7583 109.482 88.301 109.165 87.993C108.848 87.6757 108.423 87.517 107.891 87.517C107.434 87.517 107.037 87.6337 106.701 87.867C106.374 88.091 106.169 88.4223 106.085 88.861H104.881C104.928 88.357 105.096 87.9323 105.385 87.587C105.684 87.2417 106.052 86.9803 106.491 86.803C106.93 86.6163 107.396 86.523 107.891 86.523C108.862 86.523 109.59 86.7843 110.075 87.307C110.57 87.8203 110.817 88.5063 110.817 89.365V93.635H109.767L109.697 92.389C109.501 92.781 109.212 93.117 108.829 93.397C108.456 93.6677 107.952 93.803 107.317 93.803ZM107.499 92.809C107.947 92.809 108.33 92.6923 108.647 92.459C108.974 92.2257 109.221 91.9223 109.389 91.549C109.557 91.1757 109.641 90.7837 109.641 90.373V90.359H107.863C107.172 90.359 106.682 90.4803 106.393 90.723C106.113 90.9563 105.973 91.2503 105.973 91.605C105.973 91.969 106.104 92.263 106.365 92.487C106.636 92.7017 107.014 92.809 107.499 92.809ZM112.581 93.635V86.691H113.645L113.743 88.021C113.958 87.5637 114.285 87.1997 114.723 86.929C115.162 86.6583 115.703 86.523 116.347 86.523V87.755H116.025C115.615 87.755 115.237 87.8297 114.891 87.979C114.546 88.119 114.271 88.3617 114.065 88.707C113.86 89.0523 113.757 89.5283 113.757 90.135V93.635H112.581ZM117.667 93.635V83.555H118.843V89.617L121.685 86.691H123.127L120.047 89.827L123.519 93.635H122.021L118.843 90.037V93.635H117.667ZM127.338 93.803C126.675 93.803 126.087 93.6537 125.574 93.355C125.061 93.047 124.655 92.6223 124.356 92.081C124.067 91.5397 123.922 90.9003 123.922 90.163C123.922 89.435 124.067 88.8003 124.356 88.259C124.645 87.7083 125.047 87.2837 125.56 86.985C126.083 86.677 126.685 86.523 127.366 86.523C128.038 86.523 128.617 86.677 129.102 86.985C129.597 87.2837 129.975 87.6803 130.236 88.175C130.497 88.6697 130.628 89.2017 130.628 89.771C130.628 89.8737 130.623 89.9763 130.614 90.079C130.614 90.1817 130.614 90.2983 130.614 90.429H125.084C125.112 90.961 125.233 91.4043 125.448 91.759C125.672 92.1043 125.947 92.3657 126.274 92.543C126.61 92.7203 126.965 92.809 127.338 92.809C127.823 92.809 128.229 92.697 128.556 92.473C128.883 92.249 129.121 91.9457 129.27 91.563H130.432C130.245 92.207 129.886 92.7437 129.354 93.173C128.831 93.593 128.159 93.803 127.338 93.803ZM127.338 87.517C126.778 87.517 126.279 87.6897 125.84 88.035C125.411 88.371 125.163 88.8657 125.098 89.519H129.466C129.438 88.8937 129.223 88.4037 128.822 88.049C128.421 87.6943 127.926 87.517 127.338 87.517ZM134.698 93.635C134.064 93.635 133.564 93.481 133.2 93.173C132.836 92.865 132.654 92.3097 132.654 91.507V87.685H131.45V86.691H132.654L132.808 85.025H133.83V86.691H135.874V87.685H133.83V91.507C133.83 91.9457 133.919 92.2443 134.096 92.403C134.274 92.5523 134.586 92.627 135.034 92.627H135.762V93.635H134.698ZM144.237 93.803C143.584 93.803 142.996 93.6537 142.473 93.355C141.951 93.0563 141.535 92.6363 141.227 92.095C140.929 91.5443 140.779 90.9003 140.779 90.163C140.779 89.4257 140.933 88.7863 141.241 88.245C141.549 87.6943 141.965 87.2697 142.487 86.971C143.019 86.6723 143.612 86.523 144.265 86.523C144.919 86.523 145.507 86.6723 146.029 86.971C146.552 87.2697 146.963 87.6943 147.261 88.245C147.569 88.7863 147.723 89.4257 147.723 90.163C147.723 90.9003 147.569 91.5443 147.261 92.095C146.953 92.6363 146.533 93.0563 146.001 93.355C145.479 93.6537 144.891 93.803 144.237 93.803ZM144.237 92.795C144.639 92.795 145.012 92.697 145.357 92.501C145.703 92.305 145.983 92.011 146.197 91.619C146.412 91.227 146.519 90.7417 146.519 90.163C146.519 89.5843 146.412 89.099 146.197 88.707C145.992 88.315 145.717 88.021 145.371 87.825C145.026 87.629 144.657 87.531 144.265 87.531C143.864 87.531 143.491 87.629 143.145 87.825C142.8 88.021 142.52 88.315 142.305 88.707C142.091 89.099 141.983 89.5843 141.983 90.163C141.983 90.7417 142.091 91.227 142.305 91.619C142.52 92.011 142.795 92.305 143.131 92.501C143.477 92.697 143.845 92.795 144.237 92.795ZM149.359 96.715V86.691H150.423L150.535 87.839C150.759 87.503 151.076 87.1997 151.487 86.929C151.907 86.6583 152.439 86.523 153.083 86.523C153.773 86.523 154.375 86.6817 154.889 86.999C155.402 87.3163 155.799 87.7503 156.079 88.301C156.368 88.8517 156.513 89.477 156.513 90.177C156.513 90.877 156.368 91.5023 156.079 92.053C155.799 92.5943 155.397 93.0237 154.875 93.341C154.361 93.649 153.759 93.803 153.069 93.803C152.499 93.803 151.991 93.6863 151.543 93.453C151.104 93.2197 150.768 92.893 150.535 92.473V96.715H149.359ZM152.943 92.781C153.409 92.781 153.82 92.6737 154.175 92.459C154.529 92.235 154.809 91.927 155.015 91.535C155.22 91.143 155.323 90.6857 155.323 90.163C155.323 89.6403 155.22 89.183 155.015 88.791C154.809 88.399 154.529 88.0957 154.175 87.881C153.82 87.657 153.409 87.545 152.943 87.545C152.476 87.545 152.065 87.657 151.711 87.881C151.356 88.0957 151.076 88.399 150.871 88.791C150.665 89.183 150.563 89.6403 150.563 90.163C150.563 90.6857 150.665 91.143 150.871 91.535C151.076 91.927 151.356 92.235 151.711 92.459C152.065 92.6737 152.476 92.781 152.943 92.781ZM158.15 96.715V86.691H159.214L159.326 87.839C159.55 87.503 159.867 87.1997 160.278 86.929C160.698 86.6583 161.23 86.523 161.874 86.523C162.564 86.523 163.166 86.6817 163.68 86.999C164.193 87.3163 164.59 87.7503 164.87 88.301C165.159 88.8517 165.304 89.477 165.304 90.177C165.304 90.877 165.159 91.5023 164.87 92.053C164.59 92.5943 164.188 93.0237 163.666 93.341C163.152 93.649 162.55 93.803 161.86 93.803C161.29 93.803 160.782 93.6863 160.334 93.453C159.895 93.2197 159.559 92.893 159.326 92.473V96.715H158.15ZM161.734 92.781C162.2 92.781 162.611 92.6737 162.966 92.459C163.32 92.235 163.6 91.927 163.806 91.535C164.011 91.143 164.114 90.6857 164.114 90.163C164.114 89.6403 164.011 89.183 163.806 88.791C163.6 88.399 163.32 88.0957 162.966 87.881C162.611 87.657 162.2 87.545 161.734 87.545C161.267 87.545 160.856 87.657 160.502 87.881C160.147 88.0957 159.867 88.399 159.662 88.791C159.456 89.183 159.354 89.6403 159.354 90.163C159.354 90.6857 159.456 91.143 159.662 91.535C159.867 91.927 160.147 92.235 160.502 92.459C160.856 92.6737 161.267 92.781 161.734 92.781ZM170.105 93.803C169.451 93.803 168.863 93.6537 168.341 93.355C167.818 93.0563 167.403 92.6363 167.095 92.095C166.796 91.5443 166.647 90.9003 166.647 90.163C166.647 89.4257 166.801 88.7863 167.109 88.245C167.417 87.6943 167.832 87.2697 168.355 86.971C168.887 86.6723 169.479 86.523 170.133 86.523C170.786 86.523 171.374 86.6723 171.897 86.971C172.419 87.2697 172.83 87.6943 173.129 88.245C173.437 88.7863 173.591 89.4257 173.591 90.163C173.591 90.9003 173.437 91.5443 173.129 92.095C172.821 92.6363 172.401 93.0563 171.869 93.355C171.346 93.6537 170.758 93.803 170.105 93.803ZM170.105 92.795C170.506 92.795 170.879 92.697 171.225 92.501C171.57 92.305 171.85 92.011 172.065 91.619C172.279 91.227 172.387 90.7417 172.387 90.163C172.387 89.5843 172.279 89.099 172.065 88.707C171.859 88.315 171.584 88.021 171.239 87.825C170.893 87.629 170.525 87.531 170.133 87.531C169.731 87.531 169.358 87.629 169.013 87.825C168.667 88.021 168.387 88.315 168.173 88.707C167.958 89.099 167.851 89.5843 167.851 90.163C167.851 90.7417 167.958 91.227 168.173 91.619C168.387 92.011 168.663 92.305 168.999 92.501C169.344 92.697 169.713 92.795 170.105 92.795ZM175.226 93.635V86.691H176.29L176.388 88.021C176.602 87.5637 176.929 87.1997 177.368 86.929C177.806 86.6583 178.348 86.523 178.992 86.523V87.755H178.67C178.259 87.755 177.881 87.8297 177.536 87.979C177.19 88.119 176.915 88.3617 176.71 88.707C176.504 89.0523 176.402 89.5283 176.402 90.135V93.635H175.226ZM183.056 93.635C182.421 93.635 181.922 93.481 181.558 93.173C181.194 92.865 181.012 92.3097 181.012 91.507V87.685H179.808V86.691H181.012L181.166 85.025H182.188V86.691H184.232V87.685H182.188V91.507C182.188 91.9457 182.276 92.2443 182.454 92.403C182.631 92.5523 182.944 92.627 183.392 92.627H184.12V93.635H183.056ZM188.26 93.803C187.438 93.803 186.785 93.5557 186.3 93.061C185.814 92.557 185.572 91.787 185.572 90.751V86.691H186.748V90.625C186.748 92.0717 187.34 92.795 188.526 92.795C189.132 92.795 189.632 92.5803 190.024 92.151C190.425 91.7123 190.626 91.0917 190.626 90.289V86.691H191.802V93.635H190.738L190.654 92.389C190.439 92.8277 190.117 93.173 189.688 93.425C189.268 93.677 188.792 93.803 188.26 93.803ZM193.737 93.635V86.691H194.801L194.871 87.937C195.095 87.4983 195.417 87.153 195.837 86.901C196.257 86.649 196.733 86.523 197.265 86.523C198.087 86.523 198.74 86.775 199.225 87.279C199.72 87.7737 199.967 88.539 199.967 89.575V93.635H198.791V89.701C198.791 88.2543 198.194 87.531 196.999 87.531C196.402 87.531 195.903 87.7503 195.501 88.189C195.109 88.6183 194.913 89.2343 194.913 90.037V93.635H193.737ZM202.463 85.151C202.23 85.151 202.034 85.0763 201.875 84.927C201.726 84.7683 201.651 84.5723 201.651 84.339C201.651 84.115 201.726 83.9283 201.875 83.779C202.034 83.6297 202.23 83.555 202.463 83.555C202.687 83.555 202.879 83.6297 203.037 83.779C203.196 83.9283 203.275 84.115 203.275 84.339C203.275 84.5723 203.196 84.7683 203.037 84.927C202.879 85.0763 202.687 85.151 202.463 85.151ZM201.875 93.635V86.691H203.051V93.635H201.875ZM207.843 93.635C207.208 93.635 206.709 93.481 206.345 93.173C205.981 92.865 205.799 92.3097 205.799 91.507V87.685H204.595V86.691H205.799L205.953 85.025H206.975V86.691H209.019V87.685H206.975V91.507C206.975 91.9457 207.063 92.2443 207.241 92.403C207.418 92.5523 207.731 92.627 208.179 92.627H208.907V93.635H207.843ZM211.269 96.715L212.991 92.963H212.585L209.827 86.691H211.101L213.397 92.095L215.833 86.691H217.051L212.501 96.715H211.269Z" fill="#9B9CA1"/>
<g clip-path="url(#clip2_1060_225)">
<rect x="39.9961" y="108.035" width="16" height="16" rx="4" fill="#1A1A1A"/>
<rect x="40.4961" y="108.535" width="15" height="15" rx="3.5" stroke="#222222"/>
</g>
<path d="M65.0321 121.235V111.435H66.2081V115.761H71.2901V111.435H72.4661V121.235H71.2901V116.727H66.2081V121.235H65.0321ZM77.628 121.403C76.9747 121.403 76.3867 121.254 75.864 120.955C75.3414 120.656 74.926 120.236 74.618 119.695C74.3194 119.144 74.17 118.5 74.17 117.763C74.17 117.026 74.324 116.386 74.632 115.845C74.94 115.294 75.3554 114.87 75.878 114.571C76.41 114.272 77.0027 114.123 77.656 114.123C78.3094 114.123 78.8974 114.272 79.42 114.571C79.9427 114.87 80.3534 115.294 80.652 115.845C80.96 116.386 81.114 117.026 81.114 117.763C81.114 118.5 80.96 119.144 80.652 119.695C80.344 120.236 79.924 120.656 79.392 120.955C78.8694 121.254 78.2814 121.403 77.628 121.403ZM77.628 120.395C78.0294 120.395 78.4027 120.297 78.748 120.101C79.0934 119.905 79.3734 119.611 79.588 119.219C79.8027 118.827 79.91 118.342 79.91 117.763C79.91 117.184 79.8027 116.699 79.588 116.307C79.3827 115.915 79.1074 115.621 78.762 115.425C78.4167 115.229 78.048 115.131 77.656 115.131C77.2547 115.131 76.8814 115.229 76.536 115.425C76.1907 115.621 75.9107 115.915 75.696 116.307C75.4814 116.699 75.374 117.184 75.374 117.763C75.374 118.342 75.4814 118.827 75.696 119.219C75.9107 119.611 76.186 119.905 76.522 120.101C76.8674 120.297 77.236 120.395 77.628 120.395ZM83.8894 121.235L81.8594 114.291H83.0354L84.5054 119.737L86.1294 114.291H87.4594L89.0974 119.737L90.5534 114.291H91.7434L89.7134 121.235H88.5094L86.8014 115.509L85.0934 121.235H83.8894ZM99.4932 121.235C98.8585 121.235 98.3592 121.081 97.9952 120.773C97.6312 120.465 97.4492 119.91 97.4492 119.107V115.285H96.2452V114.291H97.4492L97.6032 112.625H98.6252V114.291H100.669V115.285H98.6252V119.107C98.6252 119.546 98.7139 119.844 98.8912 120.003C99.0685 120.152 99.3812 120.227 99.8292 120.227H100.557V121.235H99.4932ZM102.163 121.235V111.155H103.339V115.481C103.573 115.052 103.904 114.72 104.333 114.487C104.763 114.244 105.229 114.123 105.733 114.123C106.536 114.123 107.18 114.375 107.665 114.879C108.151 115.374 108.393 116.139 108.393 117.175V121.235H107.231V117.301C107.231 115.854 106.648 115.131 105.481 115.131C104.875 115.131 104.366 115.35 103.955 115.789C103.545 116.218 103.339 116.834 103.339 117.637V121.235H102.163ZM113.297 121.403C112.634 121.403 112.046 121.254 111.533 120.955C111.02 120.647 110.614 120.222 110.315 119.681C110.026 119.14 109.881 118.5 109.881 117.763C109.881 117.035 110.026 116.4 110.315 115.859C110.604 115.308 111.006 114.884 111.519 114.585C112.042 114.277 112.644 114.123 113.325 114.123C113.997 114.123 114.576 114.277 115.061 114.585C115.556 114.884 115.934 115.28 116.195 115.775C116.456 116.27 116.587 116.802 116.587 117.371C116.587 117.474 116.582 117.576 116.573 117.679C116.573 117.782 116.573 117.898 116.573 118.029H111.043C111.071 118.561 111.192 119.004 111.407 119.359C111.631 119.704 111.906 119.966 112.233 120.143C112.569 120.32 112.924 120.409 113.297 120.409C113.782 120.409 114.188 120.297 114.515 120.073C114.842 119.849 115.08 119.546 115.229 119.163H116.391C116.204 119.807 115.845 120.344 115.313 120.773C114.79 121.193 114.118 121.403 113.297 121.403ZM113.297 115.117C112.737 115.117 112.238 115.29 111.799 115.635C111.37 115.971 111.122 116.466 111.057 117.119H115.425C115.397 116.494 115.182 116.004 114.781 115.649C114.38 115.294 113.885 115.117 113.297 115.117ZM121.851 124.315V114.291H122.915L123.027 115.439C123.251 115.103 123.568 114.8 123.979 114.529C124.399 114.258 124.931 114.123 125.575 114.123C126.265 114.123 126.867 114.282 127.381 114.599C127.894 114.916 128.291 115.35 128.571 115.901C128.86 116.452 129.005 117.077 129.005 117.777C129.005 118.477 128.86 119.102 128.571 119.653C128.291 120.194 127.889 120.624 127.367 120.941C126.853 121.249 126.251 121.403 125.561 121.403C124.991 121.403 124.483 121.286 124.035 121.053C123.596 120.82 123.26 120.493 123.027 120.073V124.315H121.851ZM125.435 120.381C125.901 120.381 126.312 120.274 126.667 120.059C127.021 119.835 127.301 119.527 127.507 119.135C127.712 118.743 127.815 118.286 127.815 117.763C127.815 117.24 127.712 116.783 127.507 116.391C127.301 115.999 127.021 115.696 126.667 115.481C126.312 115.257 125.901 115.145 125.435 115.145C124.968 115.145 124.557 115.257 124.203 115.481C123.848 115.696 123.568 115.999 123.363 116.391C123.157 116.783 123.055 117.24 123.055 117.763C123.055 118.286 123.157 118.743 123.363 119.135C123.568 119.527 123.848 119.835 124.203 120.059C124.557 120.274 124.968 120.381 125.435 120.381ZM130.642 121.235V114.291H131.706L131.804 115.621C132.018 115.164 132.345 114.8 132.784 114.529C133.222 114.258 133.764 114.123 134.408 114.123V115.355H134.086C133.675 115.355 133.297 115.43 132.952 115.579C132.606 115.719 132.331 115.962 132.126 116.307C131.92 116.652 131.818 117.128 131.818 117.735V121.235H130.642ZM138.632 121.403C137.979 121.403 137.391 121.254 136.868 120.955C136.345 120.656 135.93 120.236 135.622 119.695C135.323 119.144 135.174 118.5 135.174 117.763C135.174 117.026 135.328 116.386 135.636 115.845C135.944 115.294 136.359 114.87 136.882 114.571C137.414 114.272 138.007 114.123 138.66 114.123C139.313 114.123 139.901 114.272 140.424 114.571C140.947 114.87 141.357 115.294 141.656 115.845C141.964 116.386 142.118 117.026 142.118 117.763C142.118 118.5 141.964 119.144 141.656 119.695C141.348 120.236 140.928 120.656 140.396 120.955C139.873 121.254 139.285 121.403 138.632 121.403ZM138.632 120.395C139.033 120.395 139.407 120.297 139.752 120.101C140.097 119.905 140.377 119.611 140.592 119.219C140.807 118.827 140.914 118.342 140.914 117.763C140.914 117.184 140.807 116.699 140.592 116.307C140.387 115.915 140.111 115.621 139.766 115.425C139.421 115.229 139.052 115.131 138.66 115.131C138.259 115.131 137.885 115.229 137.54 115.425C137.195 115.621 136.915 115.915 136.7 116.307C136.485 116.699 136.378 117.184 136.378 117.763C136.378 118.342 136.485 118.827 136.7 119.219C136.915 119.611 137.19 119.905 137.526 120.101C137.871 120.297 138.24 120.395 138.632 120.395ZM146.903 121.403C146.212 121.403 145.606 121.244 145.083 120.927C144.57 120.61 144.168 120.176 143.879 119.625C143.599 119.074 143.459 118.449 143.459 117.749C143.459 117.049 143.604 116.428 143.893 115.887C144.182 115.336 144.584 114.907 145.097 114.599C145.61 114.282 146.217 114.123 146.917 114.123C147.486 114.123 147.99 114.24 148.429 114.473C148.868 114.706 149.208 115.033 149.451 115.453V111.155H150.627V121.235H149.563L149.451 120.087C149.227 120.423 148.905 120.726 148.485 120.997C148.065 121.268 147.538 121.403 146.903 121.403ZM147.029 120.381C147.496 120.381 147.906 120.274 148.261 120.059C148.625 119.835 148.905 119.527 149.101 119.135C149.306 118.743 149.409 118.286 149.409 117.763C149.409 117.24 149.306 116.783 149.101 116.391C148.905 115.999 148.625 115.696 148.261 115.481C147.906 115.257 147.496 115.145 147.029 115.145C146.572 115.145 146.161 115.257 145.797 115.481C145.442 115.696 145.162 115.999 144.957 116.391C144.761 116.783 144.663 117.24 144.663 117.763C144.663 118.286 144.761 118.743 144.957 119.135C145.162 119.527 145.442 119.835 145.797 120.059C146.161 120.274 146.572 120.381 147.029 120.381ZM155.078 121.403C154.257 121.403 153.603 121.156 153.118 120.661C152.633 120.157 152.39 119.387 152.39 118.351V114.291H153.566V118.225C153.566 119.672 154.159 120.395 155.344 120.395C155.951 120.395 156.45 120.18 156.842 119.751C157.243 119.312 157.444 118.692 157.444 117.889V114.291H158.62V121.235H157.556L157.472 119.989C157.257 120.428 156.935 120.773 156.506 121.025C156.086 121.277 155.61 121.403 155.078 121.403ZM163.748 121.403C163.085 121.403 162.488 121.254 161.956 120.955C161.433 120.647 161.018 120.222 160.71 119.681C160.411 119.13 160.262 118.491 160.262 117.763C160.262 117.035 160.411 116.4 160.71 115.859C161.018 115.308 161.433 114.884 161.956 114.585C162.488 114.277 163.085 114.123 163.748 114.123C164.569 114.123 165.26 114.338 165.82 114.767C166.389 115.196 166.749 115.77 166.898 116.489H165.694C165.601 116.06 165.372 115.728 165.008 115.495C164.644 115.252 164.219 115.131 163.734 115.131C163.342 115.131 162.973 115.229 162.628 115.425C162.283 115.621 162.003 115.915 161.788 116.307C161.573 116.699 161.466 117.184 161.466 117.763C161.466 118.342 161.573 118.827 161.788 119.219C162.003 119.611 162.283 119.91 162.628 120.115C162.973 120.311 163.342 120.409 163.734 120.409C164.219 120.409 164.644 120.292 165.008 120.059C165.372 119.816 165.601 119.476 165.694 119.037H166.898C166.758 119.737 166.403 120.306 165.834 120.745C165.265 121.184 164.569 121.403 163.748 121.403ZM171.093 121.235C170.458 121.235 169.959 121.081 169.595 120.773C169.231 120.465 169.049 119.91 169.049 119.107V115.285H167.845V114.291H169.049L169.203 112.625H170.225V114.291H172.269V115.285H170.225V119.107C170.225 119.546 170.313 119.844 170.491 120.003C170.668 120.152 170.981 120.227 171.429 120.227H172.157V121.235H171.093ZM178.868 121.235L176.838 114.291H178.014L179.484 119.737L181.108 114.291H182.438L184.076 119.737L185.532 114.291H186.722L184.692 121.235H183.488L181.78 115.509L180.072 121.235H178.868ZM190.927 121.403C190.274 121.403 189.686 121.254 189.163 120.955C188.64 120.656 188.225 120.236 187.917 119.695C187.618 119.144 187.469 118.5 187.469 117.763C187.469 117.026 187.623 116.386 187.931 115.845C188.239 115.294 188.654 114.87 189.177 114.571C189.709 114.272 190.302 114.123 190.955 114.123C191.608 114.123 192.196 114.272 192.719 114.571C193.242 114.87 193.652 115.294 193.951 115.845C194.259 116.386 194.413 117.026 194.413 117.763C194.413 118.5 194.259 119.144 193.951 119.695C193.643 120.236 193.223 120.656 192.691 120.955C192.168 121.254 191.58 121.403 190.927 121.403ZM190.927 120.395C191.328 120.395 191.702 120.297 192.047 120.101C192.392 119.905 192.672 119.611 192.887 119.219C193.102 118.827 193.209 118.342 193.209 117.763C193.209 117.184 193.102 116.699 192.887 116.307C192.682 115.915 192.406 115.621 192.061 115.425C191.716 115.229 191.347 115.131 190.955 115.131C190.554 115.131 190.18 115.229 189.835 115.425C189.49 115.621 189.21 115.915 188.995 116.307C188.78 116.699 188.673 117.184 188.673 117.763C188.673 118.342 188.78 118.827 188.995 119.219C189.21 119.611 189.485 119.905 189.821 120.101C190.166 120.297 190.535 120.395 190.927 120.395ZM196.048 121.235V114.291H197.112L197.21 115.621C197.425 115.164 197.751 114.8 198.19 114.529C198.629 114.258 199.17 114.123 199.814 114.123V115.355H199.492C199.081 115.355 198.703 115.43 198.358 115.579C198.013 115.719 197.737 115.962 197.532 116.307C197.327 116.652 197.224 117.128 197.224 117.735V121.235H196.048ZM201.134 121.235V111.155H202.31V117.217L205.152 114.291H206.594L203.514 117.427L206.986 121.235H205.488L202.31 117.637V121.235H201.134ZM210.439 121.403C209.608 121.403 208.917 121.193 208.367 120.773C207.816 120.353 207.494 119.784 207.401 119.065H208.605C208.679 119.429 208.871 119.746 209.179 120.017C209.496 120.278 209.921 120.409 210.453 120.409C210.947 120.409 211.311 120.306 211.545 120.101C211.778 119.886 211.895 119.634 211.895 119.345C211.895 118.925 211.741 118.645 211.433 118.505C211.134 118.365 210.709 118.239 210.159 118.127C209.785 118.052 209.412 117.945 209.039 117.805C208.665 117.665 208.353 117.469 208.101 117.217C207.849 116.956 207.723 116.615 207.723 116.195C207.723 115.588 207.947 115.094 208.395 114.711C208.852 114.319 209.468 114.123 210.243 114.123C210.98 114.123 211.582 114.31 212.049 114.683C212.525 115.047 212.8 115.57 212.875 116.251H211.713C211.666 115.896 211.512 115.621 211.251 115.425C210.999 115.22 210.658 115.117 210.229 115.117C209.809 115.117 209.482 115.206 209.249 115.383C209.025 115.56 208.913 115.794 208.913 116.083C208.913 116.363 209.057 116.582 209.347 116.741C209.645 116.9 210.047 117.035 210.551 117.147C210.98 117.24 211.386 117.357 211.769 117.497C212.161 117.628 212.478 117.828 212.721 118.099C212.973 118.36 213.099 118.743 213.099 119.247C213.108 119.872 212.87 120.39 212.385 120.801C211.909 121.202 211.26 121.403 210.439 121.403Z" fill="#9B9CA1"/>
<rect x="64.9961" y="116.235" width="1" height="1.59" fill="#9B9CA1"/>
<g clip-path="url(#clip3_1060_225)">
<rect x="39.9961" y="135.635" width="16" height="16" rx="4" fill="#1A1A1A"/>
<rect x="40.4961" y="136.135" width="15" height="15" rx="3.5" stroke="#222222"/>
</g>
<path d="M69.4841 149.003C68.5228 149.003 67.6781 148.793 66.9501 148.373C66.2314 147.944 65.6668 147.346 65.2561 146.581C64.8548 145.816 64.6541 144.934 64.6541 143.935C64.6541 142.936 64.8548 142.059 65.2561 141.303C65.6668 140.538 66.2314 139.94 66.9501 139.511C67.6781 139.082 68.5228 138.867 69.4841 138.867C70.4548 138.867 71.2994 139.082 72.0181 139.511C72.7461 139.94 73.3108 140.538 73.7121 141.303C74.1134 142.059 74.3141 142.936 74.3141 143.935C74.3141 144.934 74.1134 145.816 73.7121 146.581C73.3108 147.346 72.7461 147.944 72.0181 148.373C71.2994 148.793 70.4548 149.003 69.4841 149.003ZM69.4841 147.967C70.2028 147.967 70.8328 147.808 71.3741 147.491C71.9248 147.164 72.3494 146.702 72.6481 146.105C72.9561 145.498 73.1101 144.775 73.1101 143.935C73.1101 143.095 72.9561 142.376 72.6481 141.779C72.3494 141.182 71.9248 140.724 71.3741 140.407C70.8328 140.08 70.2028 139.917 69.4841 139.917C68.7654 139.917 68.1308 140.08 67.5801 140.407C67.0388 140.724 66.6141 141.182 66.3061 141.779C66.0074 142.376 65.8581 143.095 65.8581 143.935C65.8581 144.775 66.0074 145.498 66.3061 146.105C66.6141 146.702 67.0388 147.164 67.5801 147.491C68.1308 147.808 68.7654 147.967 69.4841 147.967ZM78.4746 149.003C77.6533 149.003 76.9999 148.756 76.5146 148.261C76.0293 147.757 75.7866 146.987 75.7866 145.951V141.891H76.9626V145.825C76.9626 147.272 77.5553 147.995 78.7406 147.995C79.3473 147.995 79.8466 147.78 80.2386 147.351C80.6399 146.912 80.8406 146.292 80.8406 145.489V141.891H82.0166V148.835H80.9526L80.8686 147.589C80.6539 148.028 80.3319 148.373 79.9026 148.625C79.4826 148.877 79.0066 149.003 78.4746 149.003ZM83.9523 148.835V141.891H85.0163L85.1143 143.221C85.329 142.764 85.6557 142.4 86.0943 142.129C86.533 141.858 87.0743 141.723 87.7183 141.723V142.955H87.3963C86.9857 142.955 86.6077 143.03 86.2623 143.179C85.917 143.319 85.6417 143.562 85.4363 143.907C85.231 144.252 85.1283 144.728 85.1283 145.335V148.835H83.9523ZM96.4533 149.003C95.884 149.003 95.3753 148.886 94.9273 148.653C94.4887 148.42 94.1527 148.093 93.9193 147.673L93.8073 148.835H92.7433V138.755H93.9193V143.039C94.1433 142.703 94.4607 142.4 94.8713 142.129C95.2913 141.858 95.8233 141.723 96.4673 141.723C97.158 141.723 97.76 141.882 98.2733 142.199C98.7867 142.516 99.1833 142.95 99.4633 143.501C99.7527 144.052 99.8973 144.677 99.8973 145.377C99.8973 146.077 99.7527 146.702 99.4633 147.253C99.1833 147.794 98.782 148.224 98.2593 148.541C97.746 148.849 97.144 149.003 96.4533 149.003ZM96.3273 147.981C96.794 147.981 97.2047 147.874 97.5593 147.659C97.914 147.435 98.194 147.127 98.3993 146.735C98.6047 146.343 98.7073 145.886 98.7073 145.363C98.7073 144.84 98.6047 144.383 98.3993 143.991C98.194 143.599 97.914 143.296 97.5593 143.081C97.2047 142.857 96.794 142.745 96.3273 142.745C95.8607 142.745 95.45 142.857 95.0953 143.081C94.7407 143.296 94.4607 143.599 94.2553 143.991C94.05 144.383 93.9473 144.84 93.9473 145.363C93.9473 145.886 94.05 146.343 94.2553 146.735C94.4607 147.127 94.7407 147.435 95.0953 147.659C95.45 147.874 95.8607 147.981 96.3273 147.981ZM104.068 149.003C103.247 149.003 102.594 148.756 102.108 148.261C101.623 147.757 101.38 146.987 101.38 145.951V141.891H102.556V145.825C102.556 147.272 103.149 147.995 104.334 147.995C104.941 147.995 105.44 147.78 105.832 147.351C106.234 146.912 106.434 146.292 106.434 145.489V141.891H107.61V148.835H106.546L106.462 147.589C106.248 148.028 105.926 148.373 105.496 148.625C105.076 148.877 104.6 149.003 104.068 149.003ZM112.206 149.003C111.375 149.003 110.685 148.793 110.134 148.373C109.583 147.953 109.261 147.384 109.168 146.665H110.372C110.447 147.029 110.638 147.346 110.946 147.617C111.263 147.878 111.688 148.009 112.22 148.009C112.715 148.009 113.079 147.906 113.312 147.701C113.545 147.486 113.662 147.234 113.662 146.945C113.662 146.525 113.508 146.245 113.2 146.105C112.901 145.965 112.477 145.839 111.926 145.727C111.553 145.652 111.179 145.545 110.806 145.405C110.433 145.265 110.12 145.069 109.868 144.817C109.616 144.556 109.49 144.215 109.49 143.795C109.49 143.188 109.714 142.694 110.162 142.311C110.619 141.919 111.235 141.723 112.01 141.723C112.747 141.723 113.349 141.91 113.816 142.283C114.292 142.647 114.567 143.17 114.642 143.851H113.48C113.433 143.496 113.279 143.221 113.018 143.025C112.766 142.82 112.425 142.717 111.996 142.717C111.576 142.717 111.249 142.806 111.016 142.983C110.792 143.16 110.68 143.394 110.68 143.683C110.68 143.963 110.825 144.182 111.114 144.341C111.413 144.5 111.814 144.635 112.318 144.747C112.747 144.84 113.153 144.957 113.536 145.097C113.928 145.228 114.245 145.428 114.488 145.699C114.74 145.96 114.866 146.343 114.866 146.847C114.875 147.472 114.637 147.99 114.152 148.401C113.676 148.802 113.027 149.003 112.206 149.003ZM117.26 140.351C117.027 140.351 116.831 140.276 116.672 140.127C116.523 139.968 116.448 139.772 116.448 139.539C116.448 139.315 116.523 139.128 116.672 138.979C116.831 138.83 117.027 138.755 117.26 138.755C117.484 138.755 117.675 138.83 117.834 138.979C117.993 139.128 118.072 139.315 118.072 139.539C118.072 139.772 117.993 139.968 117.834 140.127C117.675 140.276 117.484 140.351 117.26 140.351ZM116.672 148.835V141.891H117.848V148.835H116.672ZM119.896 148.835V141.891H120.96L121.03 143.137C121.254 142.698 121.576 142.353 121.996 142.101C122.416 141.849 122.892 141.723 123.424 141.723C124.245 141.723 124.898 141.975 125.384 142.479C125.878 142.974 126.126 143.739 126.126 144.775V148.835H124.95V144.901C124.95 143.454 124.352 142.731 123.158 142.731C122.56 142.731 122.061 142.95 121.66 143.389C121.268 143.818 121.072 144.434 121.072 145.237V148.835H119.896ZM131.029 149.003C130.367 149.003 129.779 148.854 129.265 148.555C128.752 148.247 128.346 147.822 128.047 147.281C127.758 146.74 127.613 146.1 127.613 145.363C127.613 144.635 127.758 144 128.047 143.459C128.337 142.908 128.738 142.484 129.251 142.185C129.774 141.877 130.376 141.723 131.057 141.723C131.729 141.723 132.308 141.877 132.793 142.185C133.288 142.484 133.666 142.88 133.927 143.375C134.189 143.87 134.319 144.402 134.319 144.971C134.319 145.074 134.315 145.176 134.305 145.279C134.305 145.382 134.305 145.498 134.305 145.629H128.775C128.803 146.161 128.925 146.604 129.139 146.959C129.363 147.304 129.639 147.566 129.965 147.743C130.301 147.92 130.656 148.009 131.029 148.009C131.515 148.009 131.921 147.897 132.247 147.673C132.574 147.449 132.812 147.146 132.961 146.763H134.123C133.937 147.407 133.577 147.944 133.045 148.373C132.523 148.793 131.851 149.003 131.029 149.003ZM131.029 142.717C130.469 142.717 129.97 142.89 129.531 143.235C129.102 143.571 128.855 144.066 128.789 144.719H133.157C133.129 144.094 132.915 143.604 132.513 143.249C132.112 142.894 131.617 142.717 131.029 142.717ZM138.538 149.003C137.707 149.003 137.017 148.793 136.466 148.373C135.915 147.953 135.593 147.384 135.5 146.665H136.704C136.779 147.029 136.97 147.346 137.278 147.617C137.595 147.878 138.02 148.009 138.552 148.009C139.047 148.009 139.411 147.906 139.644 147.701C139.877 147.486 139.994 147.234 139.994 146.945C139.994 146.525 139.84 146.245 139.532 146.105C139.233 145.965 138.809 145.839 138.258 145.727C137.885 145.652 137.511 145.545 137.138 145.405C136.765 145.265 136.452 145.069 136.2 144.817C135.948 144.556 135.822 144.215 135.822 143.795C135.822 143.188 136.046 142.694 136.494 142.311C136.951 141.919 137.567 141.723 138.342 141.723C139.079 141.723 139.681 141.91 140.148 142.283C140.624 142.647 140.899 143.17 140.974 143.851H139.812C139.765 143.496 139.611 143.221 139.35 143.025C139.098 142.82 138.757 142.717 138.328 142.717C137.908 142.717 137.581 142.806 137.348 142.983C137.124 143.16 137.012 143.394 137.012 143.683C137.012 143.963 137.157 144.182 137.446 144.341C137.745 144.5 138.146 144.635 138.65 144.747C139.079 144.84 139.485 144.957 139.868 145.097C140.26 145.228 140.577 145.428 140.82 145.699C141.072 145.96 141.198 146.343 141.198 146.847C141.207 147.472 140.969 147.99 140.484 148.401C140.008 148.802 139.359 149.003 138.538 149.003ZM145.538 149.003C144.707 149.003 144.017 148.793 143.466 148.373C142.915 147.953 142.593 147.384 142.5 146.665H143.704C143.779 147.029 143.97 147.346 144.278 147.617C144.595 147.878 145.02 148.009 145.552 148.009C146.047 148.009 146.411 147.906 146.644 147.701C146.877 147.486 146.994 147.234 146.994 146.945C146.994 146.525 146.84 146.245 146.532 146.105C146.233 145.965 145.809 145.839 145.258 145.727C144.885 145.652 144.511 145.545 144.138 145.405C143.765 145.265 143.452 145.069 143.2 144.817C142.948 144.556 142.822 144.215 142.822 143.795C142.822 143.188 143.046 142.694 143.494 142.311C143.951 141.919 144.567 141.723 145.342 141.723C146.079 141.723 146.681 141.91 147.148 142.283C147.624 142.647 147.899 143.17 147.974 143.851H146.812C146.765 143.496 146.611 143.221 146.35 143.025C146.098 142.82 145.757 142.717 145.328 142.717C144.908 142.717 144.581 142.806 144.348 142.983C144.124 143.16 144.012 143.394 144.012 143.683C144.012 143.963 144.157 144.182 144.446 144.341C144.745 144.5 145.146 144.635 145.65 144.747C146.079 144.84 146.485 144.957 146.868 145.097C147.26 145.228 147.577 145.428 147.82 145.699C148.072 145.96 148.198 146.343 148.198 146.847C148.207 147.472 147.969 147.99 147.484 148.401C147.008 148.802 146.359 149.003 145.538 149.003ZM153.583 148.835V141.891H154.647L154.731 142.899C154.955 142.526 155.254 142.236 155.627 142.031C156.001 141.826 156.421 141.723 156.887 141.723C157.438 141.723 157.909 141.835 158.301 142.059C158.703 142.283 159.011 142.624 159.225 143.081C159.468 142.661 159.799 142.33 160.219 142.087C160.649 141.844 161.111 141.723 161.605 141.723C162.436 141.723 163.099 141.975 163.593 142.479C164.088 142.974 164.335 143.739 164.335 144.775V148.835H163.173V144.901C163.173 144.182 163.029 143.641 162.739 143.277C162.45 142.913 162.035 142.731 161.493 142.731C160.933 142.731 160.467 142.95 160.093 143.389C159.729 143.818 159.547 144.434 159.547 145.237V148.835H158.371V144.901C158.371 144.182 158.227 143.641 157.937 143.277C157.648 142.913 157.233 142.731 156.691 142.731C156.141 142.731 155.679 142.95 155.305 143.389C154.941 143.818 154.759 144.434 154.759 145.237V148.835H153.583ZM169.271 149.003C168.617 149.003 168.029 148.854 167.507 148.555C166.984 148.256 166.569 147.836 166.261 147.295C165.962 146.744 165.813 146.1 165.813 145.363C165.813 144.626 165.967 143.986 166.275 143.445C166.583 142.894 166.998 142.47 167.521 142.171C168.053 141.872 168.645 141.723 169.299 141.723C169.952 141.723 170.54 141.872 171.063 142.171C171.585 142.47 171.996 142.894 172.295 143.445C172.603 143.986 172.757 144.626 172.757 145.363C172.757 146.1 172.603 146.744 172.295 147.295C171.987 147.836 171.567 148.256 171.035 148.555C170.512 148.854 169.924 149.003 169.271 149.003ZM169.271 147.995C169.672 147.995 170.045 147.897 170.391 147.701C170.736 147.505 171.016 147.211 171.231 146.819C171.445 146.427 171.553 145.942 171.553 145.363C171.553 144.784 171.445 144.299 171.231 143.907C171.025 143.515 170.75 143.221 170.405 143.025C170.059 142.829 169.691 142.731 169.299 142.731C168.897 142.731 168.524 142.829 168.179 143.025C167.833 143.221 167.553 143.515 167.339 143.907C167.124 144.299 167.017 144.784 167.017 145.363C167.017 145.942 167.124 146.427 167.339 146.819C167.553 147.211 167.829 147.505 168.165 147.701C168.51 147.897 168.879 147.995 169.271 147.995ZM177.542 149.003C176.851 149.003 176.244 148.844 175.722 148.527C175.208 148.21 174.807 147.776 174.518 147.225C174.238 146.674 174.098 146.049 174.098 145.349C174.098 144.649 174.242 144.028 174.532 143.487C174.821 142.936 175.222 142.507 175.736 142.199C176.249 141.882 176.856 141.723 177.556 141.723C178.125 141.723 178.629 141.84 179.068 142.073C179.506 142.306 179.847 142.633 180.09 143.053V138.755H181.266V148.835H180.202L180.09 147.687C179.866 148.023 179.544 148.326 179.124 148.597C178.704 148.868 178.176 149.003 177.542 149.003ZM177.668 147.981C178.134 147.981 178.545 147.874 178.9 147.659C179.264 147.435 179.544 147.127 179.74 146.735C179.945 146.343 180.048 145.886 180.048 145.363C180.048 144.84 179.945 144.383 179.74 143.991C179.544 143.599 179.264 143.296 178.9 143.081C178.545 142.857 178.134 142.745 177.668 142.745C177.21 142.745 176.8 142.857 176.436 143.081C176.081 143.296 175.801 143.599 175.596 143.991C175.4 144.383 175.302 144.84 175.302 145.363C175.302 145.886 175.4 146.343 175.596 146.735C175.801 147.127 176.081 147.435 176.436 147.659C176.8 147.874 177.21 147.981 177.668 147.981ZM186.305 149.003C185.642 149.003 185.054 148.854 184.541 148.555C184.027 148.247 183.621 147.822 183.323 147.281C183.033 146.74 182.889 146.1 182.889 145.363C182.889 144.635 183.033 144 183.323 143.459C183.612 142.908 184.013 142.484 184.527 142.185C185.049 141.877 185.651 141.723 186.333 141.723C187.005 141.723 187.583 141.877 188.069 142.185C188.563 142.484 188.941 142.88 189.203 143.375C189.464 143.87 189.595 144.402 189.595 144.971C189.595 145.074 189.59 145.176 189.581 145.279C189.581 145.382 189.581 145.498 189.581 145.629H184.051C184.079 146.161 184.2 146.604 184.415 146.959C184.639 147.304 184.914 147.566 185.241 147.743C185.577 147.92 185.931 148.009 186.305 148.009C186.79 148.009 187.196 147.897 187.523 147.673C187.849 147.449 188.087 147.146 188.237 146.763H189.399C189.212 147.407 188.853 147.944 188.321 148.373C187.798 148.793 187.126 149.003 186.305 149.003ZM186.305 142.717C185.745 142.717 185.245 142.89 184.807 143.235C184.377 143.571 184.13 144.066 184.065 144.719H188.433C188.405 144.094 188.19 143.604 187.789 143.249C187.387 142.894 186.893 142.717 186.305 142.717ZM191.154 148.835V138.755H192.33V148.835H191.154Z" fill="#9B9CA1"/>
<rect x="16.4961" y="16.745" width="267" height="231" rx="11.5" stroke="#242424"/>
<g clip-path="url(#clip4_1060_225)">
<rect x="101.137" y="200.245" width="60.86" height="24.8" rx="12.4" fill="#111E22"/>
<path d="M117.365 217.413C116.646 217.413 116.016 217.287 115.475 217.035C114.933 216.783 114.509 216.424 114.201 215.957C113.902 215.49 113.748 214.935 113.739 214.291H115.307C115.316 214.814 115.498 215.257 115.853 215.621C116.207 215.985 116.707 216.167 117.351 216.167C117.92 216.167 118.363 216.032 118.681 215.761C119.007 215.481 119.171 215.126 119.171 214.697C119.171 214.352 119.091 214.072 118.933 213.857C118.783 213.642 118.573 213.465 118.303 213.325C118.041 213.185 117.738 213.059 117.393 212.947C117.047 212.835 116.683 212.714 116.301 212.583C115.545 212.331 114.975 212.004 114.593 211.603C114.219 211.202 114.033 210.674 114.033 210.021C114.023 209.47 114.149 208.99 114.411 208.579C114.681 208.168 115.055 207.851 115.531 207.627C116.016 207.394 116.581 207.277 117.225 207.277C117.859 207.277 118.415 207.394 118.891 207.627C119.376 207.86 119.754 208.187 120.025 208.607C120.295 209.018 120.435 209.498 120.445 210.049H118.877C118.877 209.797 118.811 209.559 118.681 209.335C118.55 209.102 118.359 208.91 118.107 208.761C117.855 208.612 117.547 208.537 117.183 208.537C116.716 208.528 116.329 208.644 116.021 208.887C115.722 209.13 115.573 209.466 115.573 209.895C115.573 210.278 115.685 210.572 115.909 210.777C116.133 210.982 116.441 211.155 116.833 211.295C117.225 211.426 117.673 211.58 118.177 211.757C118.662 211.916 119.096 212.107 119.479 212.331C119.861 212.555 120.165 212.849 120.389 213.213C120.622 213.577 120.739 214.039 120.739 214.599C120.739 215.094 120.613 215.556 120.361 215.985C120.109 216.405 119.731 216.75 119.227 217.021C118.723 217.282 118.102 217.413 117.365 217.413ZM125.217 217.245C124.536 217.245 123.995 217.082 123.593 216.755C123.192 216.419 122.991 215.826 122.991 214.977V211.547H121.801V210.301H122.991L123.173 208.537H124.475V210.301H126.435V211.547H124.475V214.977C124.475 215.36 124.555 215.626 124.713 215.775C124.881 215.915 125.166 215.985 125.567 215.985H126.365V217.245H125.217ZM131.036 217.413C130.354 217.413 129.748 217.264 129.216 216.965C128.693 216.657 128.282 216.232 127.984 215.691C127.685 215.15 127.536 214.52 127.536 213.801C127.536 213.073 127.68 212.434 127.97 211.883C128.268 211.332 128.679 210.903 129.202 210.595C129.734 210.287 130.35 210.133 131.05 210.133C131.731 210.133 132.324 210.287 132.828 210.595C133.332 210.894 133.724 211.295 134.004 211.799C134.284 212.303 134.424 212.858 134.424 213.465C134.424 213.558 134.419 213.661 134.41 213.773C134.41 213.876 134.405 213.992 134.396 214.123H128.992C129.038 214.795 129.258 215.308 129.65 215.663C130.051 216.008 130.513 216.181 131.036 216.181C131.456 216.181 131.806 216.088 132.086 215.901C132.375 215.705 132.59 215.444 132.73 215.117H134.214C134.027 215.77 133.654 216.316 133.094 216.755C132.543 217.194 131.857 217.413 131.036 217.413ZM131.036 211.351C130.541 211.351 130.102 211.5 129.72 211.799C129.337 212.088 129.104 212.527 129.02 213.115H132.94C132.912 212.574 132.72 212.144 132.366 211.827C132.011 211.51 131.568 211.351 131.036 211.351ZM137.636 217.245L135.032 210.301H136.586L138.518 215.831L140.45 210.301H141.99L139.4 217.245H137.636ZM146.102 217.413C145.421 217.413 144.814 217.264 144.282 216.965C143.759 216.657 143.349 216.232 143.05 215.691C142.751 215.15 142.602 214.52 142.602 213.801C142.602 213.073 142.747 212.434 143.036 211.883C143.335 211.332 143.745 210.903 144.268 210.595C144.8 210.287 145.416 210.133 146.116 210.133C146.797 210.133 147.39 210.287 147.894 210.595C148.398 210.894 148.79 211.295 149.07 211.799C149.35 212.303 149.49 212.858 149.49 213.465C149.49 213.558 149.485 213.661 149.476 213.773C149.476 213.876 149.471 213.992 149.462 214.123H144.058C144.105 214.795 144.324 215.308 144.716 215.663C145.117 216.008 145.579 216.181 146.102 216.181C146.522 216.181 146.872 216.088 147.152 215.901C147.441 215.705 147.656 215.444 147.796 215.117H149.28C149.093 215.77 148.72 216.316 148.16 216.755C147.609 217.194 146.923 217.413 146.102 217.413ZM146.102 211.351C145.607 211.351 145.169 211.5 144.786 211.799C144.403 212.088 144.17 212.527 144.086 213.115H148.006C147.978 212.574 147.787 212.144 147.432 211.827C147.077 211.51 146.634 211.351 146.102 211.351Z" fill="#33ABD1"/>
<rect x="101.637" y="200.745" width="59.86" height="23.8" rx="11.9" stroke="#235564"/>
</g>
<path opacity="0.2" d="M97.4909 195.808L96.6996 196.599C96.6059 196.692 96.4788 196.745 96.3462 196.745C96.2137 196.745 96.0865 196.692 95.9928 196.599L92.8871 193.495C92.8296 193.437 92.7587 193.395 92.6808 193.37C92.6029 193.346 92.5203 193.342 92.4402 193.357C92.3601 193.372 92.2849 193.407 92.2212 193.457C92.1575 193.508 92.1072 193.574 92.0746 193.649L90.8584 196.447C90.817 196.538 90.7492 196.615 90.6638 196.667C90.5784 196.719 90.4793 196.744 90.3793 196.74C90.2793 196.735 90.1831 196.7 90.103 196.64C90.023 196.58 89.9628 196.497 89.9303 196.403L86.6628 186.398C86.636 186.311 86.6335 186.218 86.6554 186.13C86.6773 186.042 86.7228 185.961 86.7871 185.897C86.8513 185.833 86.9319 185.787 87.0201 185.765C87.1084 185.743 87.2009 185.746 87.2878 185.773L97.294 189.038C97.3887 189.07 97.4714 189.13 97.5315 189.21C97.5916 189.29 97.6263 189.387 97.631 189.487C97.6358 189.586 97.6105 189.686 97.5583 189.771C97.5061 189.856 97.4295 189.924 97.3384 189.966L94.5403 191.183C94.4655 191.215 94.3999 191.265 94.3491 191.329C94.2983 191.393 94.2638 191.468 94.2487 191.548C94.2336 191.628 94.2384 191.711 94.2625 191.789C94.2866 191.867 94.3294 191.937 94.3871 191.995L97.4915 195.099C97.5381 195.146 97.575 195.201 97.6001 195.262C97.6253 195.323 97.6382 195.388 97.6382 195.454C97.6381 195.519 97.6251 195.584 97.5998 195.645C97.5745 195.706 97.5375 195.761 97.4909 195.808Z" fill="#33ABD1"/>
<path d="M94.7389 191.641L97.537 190.424C97.7213 190.343 97.8766 190.207 97.9826 190.036C98.0885 189.864 98.1401 189.664 98.1305 189.463C98.121 189.262 98.0508 189.068 97.9292 188.907C97.8075 188.746 97.6401 188.626 97.4489 188.562L87.4439 185.295C87.2689 185.239 87.0819 185.232 86.9033 185.275C86.7247 185.319 86.5615 185.41 86.4316 185.54C86.3016 185.67 86.21 185.833 86.1668 186.012C86.1235 186.191 86.1303 186.378 86.1864 186.553L89.4533 196.558C89.5149 196.751 89.6343 196.92 89.7954 197.043C89.9565 197.166 90.1514 197.236 90.3539 197.245H90.4026C90.5969 197.246 90.787 197.189 90.9494 197.083C91.1118 196.976 91.2392 196.824 91.3158 196.646L92.532 193.848L95.6364 196.952C95.7292 197.045 95.8395 197.118 95.9608 197.169C96.0822 197.219 96.2122 197.245 96.3436 197.245C96.4749 197.245 96.605 197.219 96.7263 197.169C96.8477 197.118 96.9579 197.045 97.0508 196.952L97.8433 196.159C97.9361 196.067 98.0098 195.956 98.0601 195.835C98.1104 195.714 98.1362 195.584 98.1362 195.452C98.1362 195.321 98.1104 195.191 98.0601 195.069C98.0098 194.948 97.9361 194.838 97.8433 194.745L94.7389 191.641ZM96.3433 196.245L93.2389 193.141C93.1236 193.025 92.9819 192.94 92.826 192.892C92.6702 192.844 92.5049 192.834 92.3447 192.865C92.1844 192.895 92.0341 192.965 91.9067 193.066C91.7793 193.168 91.6788 193.3 91.6139 193.449L90.4001 196.24L87.1364 186.245L97.1283 189.508L94.3383 190.721C94.1886 190.786 94.0571 190.887 93.9552 191.014C93.8534 191.141 93.7842 191.292 93.7537 191.452C93.7233 191.612 93.7325 191.778 93.7806 191.933C93.8286 192.089 93.9141 192.231 94.0295 192.346L97.1364 195.452L96.3433 196.245Z" fill="#33ABD1"/>
<g clip-path="url(#clip5_1060_225)">
<rect x="208.887" y="140.245" width="59.11" height="24.8" rx="12.4" fill="#221D11"/>
<path d="M221.881 157.245V147.445H223.365V151.645L227.229 147.445H229.063L225.437 151.351L229.147 157.245H227.341L224.373 152.485L223.365 153.577V157.245H221.881ZM233.112 157.413C232.43 157.413 231.824 157.264 231.292 156.965C230.769 156.657 230.358 156.232 230.06 155.691C229.761 155.15 229.612 154.52 229.612 153.801C229.612 153.073 229.756 152.434 230.046 151.883C230.344 151.332 230.755 150.903 231.278 150.595C231.81 150.287 232.426 150.133 233.126 150.133C233.807 150.133 234.4 150.287 234.904 150.595C235.408 150.894 235.8 151.295 236.08 151.799C236.36 152.303 236.5 152.858 236.5 153.465C236.5 153.558 236.495 153.661 236.486 153.773C236.486 153.876 236.481 153.992 236.472 154.123H231.068C231.114 154.795 231.334 155.308 231.726 155.663C232.127 156.008 232.589 156.181 233.112 156.181C233.532 156.181 233.882 156.088 234.162 155.901C234.451 155.705 234.666 155.444 234.806 155.117H236.29C236.103 155.77 235.73 156.316 235.17 156.755C234.619 157.194 233.933 157.413 233.112 157.413ZM233.112 151.351C232.617 151.351 232.178 151.5 231.796 151.799C231.413 152.088 231.18 152.527 231.096 153.115H235.016C234.988 152.574 234.796 152.144 234.442 151.827C234.087 151.51 233.644 151.351 233.112 151.351ZM239.712 157.245L237.108 150.301H238.662L240.594 155.831L242.526 150.301H244.066L241.476 157.245H239.712ZM246.126 148.985C245.846 148.985 245.612 148.901 245.426 148.733C245.248 148.556 245.16 148.336 245.16 148.075C245.16 147.814 245.248 147.599 245.426 147.431C245.612 147.254 245.846 147.165 246.126 147.165C246.406 147.165 246.634 147.254 246.812 147.431C246.998 147.599 247.092 147.814 247.092 148.075C247.092 148.336 246.998 148.556 246.812 148.733C246.634 148.901 246.406 148.985 246.126 148.985ZM245.384 157.245V150.301H246.868V157.245H245.384ZM248.827 157.245V150.301H250.143L250.255 151.519C250.469 151.09 250.782 150.754 251.193 150.511C251.613 150.259 252.093 150.133 252.635 150.133C253.475 150.133 254.133 150.394 254.609 150.917C255.094 151.44 255.337 152.219 255.337 153.255V157.245H253.867V153.409C253.867 152.065 253.316 151.393 252.215 151.393C251.664 151.393 251.207 151.589 250.843 151.981C250.488 152.373 250.311 152.933 250.311 153.661V157.245H248.827Z" fill="#E29D37"/>
<rect x="209.387" y="140.745" width="58.11" height="23.8" rx="11.9" stroke="#785A2C"/>
</g>
<path opacity="0.2" d="M205.241 135.808L204.45 136.599C204.356 136.692 204.229 136.745 204.096 136.745C203.964 136.745 203.837 136.692 203.743 136.599L200.637 133.495C200.58 133.437 200.509 133.395 200.431 133.37C200.353 133.346 200.27 133.342 200.19 133.357C200.11 133.372 200.035 133.407 199.971 133.457C199.907 133.508 199.857 133.574 199.825 133.649L198.608 136.447C198.567 136.538 198.499 136.615 198.414 136.667C198.328 136.719 198.229 136.744 198.129 136.74C198.029 136.735 197.933 136.7 197.853 136.64C197.773 136.58 197.713 136.497 197.68 136.403L194.413 126.398C194.386 126.311 194.383 126.218 194.405 126.13C194.427 126.042 194.473 125.961 194.537 125.897C194.601 125.833 194.682 125.787 194.77 125.765C194.858 125.743 194.951 125.746 195.038 125.773L205.044 129.038C205.139 129.07 205.221 129.13 205.281 129.21C205.342 129.29 205.376 129.387 205.381 129.487C205.386 129.586 205.36 129.686 205.308 129.771C205.256 129.856 205.18 129.924 205.088 129.966L202.29 131.183C202.216 131.215 202.15 131.265 202.099 131.329C202.048 131.393 202.014 131.468 201.999 131.548C201.984 131.628 201.988 131.711 202.012 131.789C202.037 131.867 202.079 131.937 202.137 131.995L205.242 135.099C205.288 135.146 205.325 135.201 205.35 135.262C205.375 135.323 205.388 135.388 205.388 135.454C205.388 135.519 205.375 135.584 205.35 135.645C205.325 135.706 205.288 135.761 205.241 135.808Z" fill="#E29D37"/>
<path d="M202.489 131.641L205.287 130.424C205.471 130.343 205.627 130.207 205.733 130.036C205.838 129.864 205.89 129.664 205.881 129.463C205.871 129.262 205.801 129.068 205.679 128.907C205.558 128.746 205.39 128.626 205.199 128.562L195.194 125.295C195.019 125.239 194.832 125.232 194.653 125.275C194.475 125.319 194.311 125.41 194.182 125.54C194.052 125.67 193.96 125.833 193.917 126.012C193.874 126.191 193.88 126.378 193.936 126.553L197.203 136.558C197.265 136.751 197.384 136.92 197.545 137.043C197.706 137.166 197.901 137.236 198.104 137.245H198.153C198.347 137.246 198.537 137.189 198.699 137.083C198.862 136.976 198.989 136.824 199.066 136.646L200.282 133.848L203.386 136.952C203.479 137.045 203.589 137.118 203.711 137.169C203.832 137.219 203.962 137.245 204.094 137.245C204.225 137.245 204.355 137.219 204.476 137.169C204.598 137.118 204.708 137.045 204.801 136.952L205.593 136.159C205.686 136.067 205.76 135.956 205.81 135.835C205.86 135.714 205.886 135.584 205.886 135.452C205.886 135.321 205.86 135.191 205.81 135.069C205.76 134.948 205.686 134.838 205.593 134.745L202.489 131.641ZM204.093 136.245L200.989 133.141C200.874 133.025 200.732 132.94 200.576 132.892C200.42 132.844 200.255 132.834 200.095 132.865C199.934 132.895 199.784 132.965 199.657 133.066C199.529 133.168 199.429 133.3 199.364 133.449L198.15 136.24L194.886 126.245L204.878 129.508L202.088 130.721C201.939 130.786 201.807 130.887 201.705 131.014C201.603 131.141 201.534 131.292 201.504 131.452C201.473 131.612 201.483 131.778 201.531 131.933C201.579 132.089 201.664 132.231 201.78 132.346L204.886 135.452L204.093 136.245Z" fill="#E29D37"/>
</g>
<defs>
<clipPath id="clip0_1060_225">
<rect x="15.9961" y="16.245" width="268" height="232" rx="12" fill="white"/>
</clipPath>
<clipPath id="clip1_1060_225">
<rect x="39.9961" y="80.4351" width="16" height="16" rx="4" fill="white"/>
</clipPath>
<clipPath id="clip2_1060_225">
<rect x="39.9961" y="108.035" width="16" height="16" rx="4" fill="white"/>
</clipPath>
<clipPath id="clip3_1060_225">
<rect x="39.9961" y="135.635" width="16" height="16" rx="4" fill="white"/>
</clipPath>
<clipPath id="clip4_1060_225">
<rect x="101.137" y="200.245" width="60.86" height="24.8" rx="12.4" fill="white"/>
</clipPath>
<clipPath id="clip5_1060_225">
<rect x="208.887" y="140.245" width="59.11" height="24.8" rx="12.4" fill="white"/>
</clipPath>
</defs>
</svg>
